<?xml version="1.0" encoding="UTF-8"?>
<!DOCTYPE svg PUBLIC "-//W3C//DTD SVG 1.1//EN" "http://www.w3.org/Graphics/SVG/1.1/DTD/svg11.dtd">
<!-- Creator: CorelDRAW X5 -->
<svg xmlns="http://www.w3.org/2000/svg" xml:space="preserve" width="2.16995in" height="0.975559in" shape-rendering="geometricPrecision" text-rendering="geometricPrecision" image-rendering="optimizeQuality" fill-rule="evenodd" clip-rule="evenodd"
viewBox="0 0 2167 974"
 xmlns:xlink="http://www.w3.org/1999/xlink">
 <g>
 <defs>
   <linearGradient id="id0" gradientUnits="userSpaceOnUse" x1="12.3876" y1="911.13" x2="2166.82" y2="911.13">
    <stop offset="0" stop-color="#06A190"/>
    <stop offset="0.501961" stop-color="#FEFEFE"/>
    <stop offset="1" stop-color="#06A190"/>
   </linearGradient>
 </defs>
 <g id="Layer_x0020_1">
  <metadata id="CorelCorpID_0Corel-Layer"/>
  <path fill="#06A190" fill-rule="nonzero" stroke="#06A190" stroke-width="9.98554" d="M194 601l0 -2c-11,-1 -21,-3 -32,-6 -10,-3 -20,-7 -30,-11 -10,-4 -19,-10 -28,-15 -9,-6 -17,-12 -26,-20 -10,-11 -17,-20 -22,-29 -5,-8 -8,-18 -10,-29 -2,-11 -1,-23 3,-35 3,-9 7,-16 13,-22 6,-6 12,-11 18,-15 6,-4 13,-7 18,-8 6,-2 11,-3 15,-4l322 -38 0 -2c-1,-9 -2,-17 -4,-25 -2,-8 -4,-16 -7,-22 -3,-7 -5,-13 -7,-18 -2,-5 -4,-9 -6,-13 -11,-19 -24,-35 -39,-50 -15,-15 -32,-27 -51,-36 -19,-10 -38,-16 -59,-20 -21,-4 -42,-4 -64,-2 -29,3 -56,12 -81,26 -25,14 -46,32 -63,54 -17,22 -30,46 -38,73 -8,27 -11,55 -7,83 3,24 10,47 20,68 11,21 24,40 41,57 17,17 36,30 57,41 22,10 45,17 69,20zm-147 -332c9,-12 18,-23 29,-34 11,-10 23,-19 36,-27 13,-7 26,-14 40,-18 14,-5 29,-8 44,-10 16,-2 32,-2 47,0 16,2 31,5 45,10 15,5 29,11 42,19 13,8 26,17 37,28 5,5 9,10 13,16 4,6 8,13 11,21 3,8 5,16 5,24 0,9 -1,17 -3,26 -3,9 -7,18 -13,24 -6,7 -12,12 -19,16 -7,4 -13,6 -18,8 -5,2 -10,3 -14,4l-212 25c-4,0 -10,0 -15,0 -6,0 -13,-1 -21,-4 -8,-2 -16,-6 -24,-11 -8,-5 -14,-12 -19,-20 -6,-9 -9,-19 -10,-28 -1,-10 -1,-19 1,-28 2,-9 4,-17 7,-23 3,-7 6,-13 9,-18z"/>
  <path fill="#06A190" fill-rule="nonzero" stroke="#06A190" stroke-width="9.98554" d="M751 599l4 -1 -97 -174c-4,-9 -7,-19 -8,-27 -2,-9 -2,-17 -2,-24 0,-7 1,-14 2,-21 1,-6 3,-12 5,-17l84 -154 -3 -1 -75 136c-2,4 -5,7 -8,10 -3,3 -7,6 -11,8 -4,2 -9,4 -14,5 -5,1 -10,2 -16,2 -6,0 -11,-1 -16,-2 -5,-1 -10,-3 -14,-5 -4,-2 -8,-5 -12,-8 -3,-3 -6,-6 -8,-10l-75 -136 -3 1 72 131c1,0 1,1 1,1 0,0 0,0 0,1l8 13c3,6 5,12 7,19 2,7 3,15 3,25 0,9 -1,19 -3,30 -2,11 -6,22 -12,33l-90 164 3 1 90 -163c2,-4 4,-7 8,-10 3,-3 7,-5 12,-7 4,-2 9,-4 14,-5 5,-1 10,-2 16,-2 6,0 11,1 16,2 5,1 10,3 14,5 4,2 8,4 11,7 3,3 6,6 8,10l90 163z"/>
  <path fill="#FEFEFE" fill-rule="nonzero" stroke="#FEFEFE" stroke-width="9.98554" d="M1877 381c-15,0 -30,-3 -43,-8 -13,-6 -25,-13 -36,-23 -10,-10 -18,-22 -24,-35 -6,-13 -9,-27 -9,-42l0 -48c0,-15 3,-28 9,-41 6,-13 14,-24 24,-34 10,-10 22,-18 36,-23 13,-6 28,-8 43,-8l133 0c18,1 35,4 51,11 16,7 30,16 43,29 12,12 22,26 29,42 7,16 10,32 10,50 0,17 -3,34 -10,50 -7,16 -16,30 -29,42 -12,12 -27,22 -43,29 -16,7 -34,11 -52,11l-2 1 -130 0zm266 291l3 -2 -200 -263c-1,-1 -1,-1 -1,-2 0,-1 -1,-2 -1,-4 0,-1 0,-3 0,-4 0,-1 0,-3 1,-4 1,-2 1,-3 2,-4 1,-1 2,-2 3,-3 1,-1 2,-1 4,-1 1,0 3,0 4,0l52 0c19,-1 36,-4 53,-11 17,-7 31,-17 44,-29 13,-12 22,-27 29,-43 7,-16 11,-33 11,-51 0,-18 -4,-35 -11,-51 -7,-16 -17,-31 -30,-43 -13,-13 -28,-22 -45,-30 -17,-7 -35,-11 -53,-11l-247 0 0 556 4 0 0 -180c0,-15 3,-28 9,-41 6,-13 14,-24 24,-34 10,-10 22,-18 36,-23 13,-6 28,-8 43,-8l18 0c2,0 3,0 5,0 2,0 4,1 7,1 2,1 5,1 7,2 2,1 4,1 7,2 2,1 4,2 7,4 2,1 4,3 6,4 2,2 3,2 2,2 -1,-1 2,2 7,7l200 266zm-849 0c46,-126 92,-253 138,-379 23,-68 115,-49 131,0l147 379 4 0 -220 -566 -204 566 3 0zm-32 -146l0 11c0,18 -4,35 -10,50 -7,16 -17,30 -29,42 -12,12 -27,22 -43,28 -16,7 -57,10 -75,10l-128 0c-15,0 -29,-3 -43,-8 -13,-6 -25,-13 -35,-23 -10,-10 -18,-21 -24,-34 -6,-13 -8,-27 -8,-41l0 -57c0,-15 3,-29 8,-42 6,-13 14,-25 24,-35 10,-10 22,-18 35,-24 13,-6 28,-8 43,-8l131 0 1 1c55,2 123,30 144,81 7,16 10,32 10,50zm-286 -135c-15,0 -29,-3 -43,-8 -13,-6 -25,-13 -35,-23 -10,-10 -18,-21 -24,-34 -6,-13 -8,-27 -8,-41l0 -60c0,-15 3,-28 8,-41 6,-13 14,-24 24,-34 10,-10 22,-18 35,-23 13,-6 28,-8 43,-8l106 0c18,0 35,4 51,11 16,7 30,17 43,29 12,12 22,26 29,42 7,16 10,32 10,50l0 13c0,8 -1,17 -3,25 -2,8 -4,17 -8,24 -16,39 -31,69 -73,78 -8,2 -17,3 -25,3l-130 0zm130 280c18,0 59,-4 76,-11 16,-7 31,-17 44,-29 13,-12 22,-27 29,-43 7,-16 10,-33 10,-51l0 -11c0,-12 -1,-23 -4,-34 -3,-11 -7,-22 -13,-31 -26,-44 -81,-52 -82,-67 0,-2 1,-4 2,-6 13,-25 40,-69 46,-92 3,-11 4,-22 4,-33l0 -13c0,-18 -3,-35 -10,-51 -7,-16 -17,-31 -29,-43 -13,-12 -27,-22 -44,-29 -17,-7 -34,-11 -52,-11l-219 0c0,6 0,31 0,77 0,46 0,113 0,201 0,89 0,156 0,201 0,46 0,71 0,77l243 0z"/>
  <path fill="url(#id0)" fill-rule="nonzero" d="M45 849c11,0 19,2 24,7 5,4 8,11 8,21l0 6c0,7 -1,12 -4,16 -3,4 -7,7 -13,8 13,3 20,12 20,26l0 10c0,9 -3,17 -8,22 -6,5 -14,7 -25,7l-34 0 0 -124 33 0zm-4 52c7,0 12,-1 15,-4 3,-2 5,-7 5,-13l0 -7c0,-6 -1,-10 -4,-12 -3,-3 -7,-4 -12,-4l-16 0 0 40 13 0zm5 59c6,0 10,-1 13,-4 3,-3 4,-7 4,-13l0 -11c0,-7 -2,-11 -5,-14 -3,-3 -8,-4 -16,-4l-14 0 0 46 17 0zm145 13l-15 0 28 -124 24 0 28 124 -16 0 -6 -25 -37 0 -6 25zm41 -37l-17 -71 -16 71 33 0zm156 -87c11,0 20,2 25,7 5,5 8,12 8,21l0 10c0,7 -1,12 -4,17 -3,4 -8,7 -14,9 6,2 11,5 14,9 3,4 4,10 4,17l0 19c0,3 0,6 1,9 0,2 1,4 2,6l-17 0c-1,-2 -2,-4 -2,-6 0,-2 -1,-5 -1,-9l0 -19c0,-7 -2,-11 -5,-14 -4,-3 -9,-4 -16,-4l-12 0 0 53 -16 0 0 -124 33 0zm-4 58c7,0 12,-1 16,-4 3,-2 5,-7 5,-13l0 -12c0,-6 -1,-10 -4,-13 -3,-3 -7,-4 -13,-4l-16 0 0 46 12 0zm172 -59c11,0 19,3 25,8 6,6 8,13 8,23l0 11 -16 0 0 -12c0,-12 -6,-18 -17,-18 -6,0 -10,2 -13,5 -3,3 -4,8 -4,13l0 65c0,6 1,10 4,13 3,3 7,5 13,5 12,0 17,-6 17,-18l0 -16 16 0 0 15c0,10 -3,17 -8,23 -6,6 -14,8 -25,8 -11,0 -19,-3 -25,-8 -6,-6 -8,-13 -8,-23l0 -64c0,-10 3,-17 8,-23 6,-6 14,-8 25,-8zm133 31c0,-10 3,-17 9,-23 6,-6 14,-8 25,-8 11,0 20,3 25,8 6,6 9,13 9,23l0 64c0,10 -3,17 -9,23 -6,6 -14,8 -25,8 -11,0 -19,-3 -25,-8 -6,-6 -9,-13 -9,-23l0 -64zm16 65c0,6 1,10 4,13 3,3 7,5 13,5 12,0 17,-6 17,-18l0 -65c0,-6 -1,-10 -4,-13 -3,-3 -7,-5 -13,-5 -6,0 -10,2 -13,5 -3,3 -4,8 -4,13l0 65zm187 -94c11,0 20,3 25,8 6,5 8,13 8,23l0 62c0,10 -3,17 -8,23 -6,5 -14,8 -25,8l-35 0 0 -124 35 0zm0 111c12,0 17,-6 17,-17l0 -64c0,-12 -6,-17 -18,-17l-18 0 0 98 18 0zm187 -44l-36 0 0 44 44 0 0 13 -61 0 0 -124 61 0 0 13 -44 0 0 42 36 0 0 12zm292 0l-36 0 0 44 44 0 0 13 -61 0 0 -124 61 0 0 13 -44 0 0 42 36 0 0 12zm144 -67c11,0 20,3 25,8 6,5 8,13 8,23l0 62c0,10 -3,17 -8,23 -6,5 -14,8 -25,8l-35 0 0 -124 35 0zm0 111c12,0 17,-6 17,-17l0 -64c0,-12 -6,-17 -18,-17l-18 0 0 98 18 0zm151 13l-16 0 0 -124 16 0 0 124zm124 -111l-27 0 0 -13 71 0 0 13 -27 0 0 111 -16 0 0 -111zm139 17c0,-10 3,-17 9,-23 6,-6 14,-8 25,-8 11,0 20,3 25,8 6,6 9,13 9,23l0 64c0,10 -3,17 -9,23 -6,6 -14,8 -25,8 -11,0 -19,-3 -25,-8 -6,-6 -9,-13 -9,-23l0 -64zm16 65c0,6 1,10 4,13 3,3 7,5 13,5 12,0 17,-6 17,-18l0 -65c0,-6 -1,-10 -4,-13 -3,-3 -7,-5 -13,-5 -6,0 -10,2 -13,5 -3,3 -4,8 -4,13l0 65zm186 -94c11,0 20,2 25,7 5,5 8,12 8,21l0 10c0,7 -1,12 -4,17 -3,4 -8,7 -14,9 6,2 11,5 14,9 3,4 4,10 4,17l0 19c0,3 0,6 1,9 0,2 1,4 2,6l-17 0c-1,-2 -2,-4 -2,-6 0,-2 -1,-5 -1,-9l0 -19c0,-7 -2,-11 -5,-14 -4,-3 -9,-4 -16,-4l-12 0 0 53 -16 0 0 -124 33 0zm-4 58c7,0 12,-1 16,-4 3,-2 5,-7 5,-13l0 -12c0,-6 -1,-10 -4,-13 -3,-3 -7,-4 -13,-4l-16 0 0 46 12 0z"/>
  <path fill="#FEFEFE" d="M39 75c-14,7 -17,31 -7,54 11,23 31,36 46,29 14,-7 17,-31 7,-54 -11,-23 -31,-36 -46,-29zm279 -33c16,3 24,26 19,51 -5,25 -22,42 -38,39 -16,-3 -24,-26 -19,-51 5,-25 22,-42 38,-39zm-146 -42c22,-3 44,24 48,59 4,35 -11,65 -33,68 -22,3 -44,-24 -48,-59 -4,-35 11,-65 33,-68z"/>
 </g>
</g>
</svg>
