<svg xmlns="http://www.w3.org/2000/svg" xml:space="preserve" width="2.6388in" height="1.10714in" shape-rendering="geometricPrecision" text-rendering="geometricPrecision" image-rendering="optimizeQuality" fill-rule="evenodd" clip-rule="evenodd"
viewBox="0 0 2908 1220"
 xmlns:xlink="http://www.w3.org/1999/xlink">
 <defs>
   <linearGradient id="gradientExBar" gradientUnits="userSpaceOnUse" x1="530.946" y1="1148.73" x2="2907.55" y2="1148.73">
    <stop offset="0" stop-color="#06A190"/>
    <stop offset="0.501961" stop-color="#373435"/>
    <stop offset="1" stop-color="#06A190"/>
   </linearGradient>
 </defs>
 <g>
  <path fill="#06A190" fill-rule="nonzero" stroke="#06A190" stroke-width="11.0184" d="M731 806l0 -2c-12,-1 -23,-3 -35,-7 -11,-3 -22,-8 -33,-12 -11,-4 -21,-11 -31,-17 -10,-7 -19,-13 -29,-22 -11,-12 -19,-22 -24,-32 -6,-9 -9,-20 -11,-32 -2,-12 -1,-25 3,-39 3,-10 8,-18 14,-24 7,-7 13,-12 20,-17 7,-4 14,-8 20,-9 7,-2 12,-3 17,-4l355 -42 0 -2c-1,-10 -2,-19 -4,-28 -2,-9 -4,-18 -8,-24 -3,-8 -6,-14 -8,-20 -2,-6 -4,-10 -7,-14 -12,-21 -26,-39 -43,-55 -17,-17 -35,-30 -56,-40 -21,-11 -42,-18 -65,-22 -23,-4 -46,-4 -71,-2 -32,3 -62,13 -89,29 -28,15 -51,35 -70,60 -19,24 -33,51 -42,81 -9,30 -12,61 -8,92 3,26 11,52 22,75 12,23 26,44 45,63 19,19 40,33 63,45 24,11 50,19 76,22l-2 0zm-162 -366c10,-13 20,-25 32,-38 12,-11 25,-21 40,-30 14,-8 29,-15 44,-20 15,-6 32,-9 49,-11 18,-2 35,-2 52,0 18,2 34,6 50,11 17,6 32,12 46,21 14,9 29,19 41,31 6,6 10,11 14,18 4,7 9,14 12,23 3,9 6,18 6,26 0,10 -1,19 -3,29 -3,10 -8,20 -14,26 -7,8 -13,13 -21,18 -8,4 -14,7 -20,9 -6,2 -11,3 -15,4l-234 28c-4,0 -11,0 -17,0 -7,0 -14,-1 -23,-4 -9,-2 -18,-7 -26,-12 -9,-6 -15,-13 -21,-22 -7,-10 -10,-21 -11,-31 -1,-11 -1,-21 1,-31 2,-10 4,-19 8,-25 3,-8 7,-14 10,-20l2 0z"/>
  <path fill="#06A190" fill-rule="nonzero" stroke="#06A190" stroke-width="11.0184" d="M1345 804l4 -1 -107 -192c-4,-10 -8,-21 -9,-30 -2,-10 -2,-19 -2,-26 0,-8 1,-15 2,-23 1,-7 3,-13 6,-19l93 -170 -3 -1 -83 150c-2,4 -6,8 -9,11 -3,3 -8,7 -12,9 -4,2 -10,4 -15,6 -6,1 -11,2 -18,2 -7,0 -12,-1 -18,-2 -6,-1 -11,-3 -15,-6 -4,-2 -9,-6 -13,-9 -3,-3 -7,-7 -9,-11l-83 -150 -3 1 79 145c1,0 1,1 1,1 0,0 0,0 0,1l9 14c3,7 6,13 8,21 2,8 3,17 3,28 0,10 -1,21 -3,33 -2,12 -7,24 -13,36l-99 181 3 1 99 -180c2,-4 4,-8 9,-11 3,-3 8,-6 13,-8 4,-2 10,-4 15,-6 6,-1 11,-2 18,-2 7,0 12,1 18,2 6,1 11,3 15,6 4,2 9,4 12,8 3,3 7,7 9,11l99 180 -1 0z"/>
  <path fill="#373435" fill-rule="nonzero" stroke="#373435" stroke-width="11.0184" d="M2588 563c-17,0 -33,-3 -47,-9 -14,-7 -28,-14 -40,-25 -11,-11 -20,-24 -26,-39 -7,-14 -10,-30 -10,-46l0 -53c0,-17 3,-31 10,-45 7,-14 15,-26 26,-38 11,-11 24,-20 40,-25 14,-7 31,-9 47,-9l147 0c20,1 39,4 56,12 18,8 33,18 47,32 13,13 24,29 32,46 8,18 11,35 11,55 0,19 -3,38 -11,55 -8,18 -18,33 -32,46 -13,13 -30,24 -47,32 -18,8 -38,12 -57,12l-2 1 -143 0 0 -3zm293 321l3 -2 -221 -290c-1,-1 -1,-1 -1,-2 0,-1 -1,-2 -1,-4 0,-1 0,-3 0,-4 0,-1 0,-3 1,-4 1,-2 1,-3 2,-4 1,-1 2,-2 3,-3 1,-1 2,-1 4,-1 1,0 3,0 4,0l57 0c21,-1 40,-4 58,-12 19,-8 34,-19 49,-32 14,-13 24,-30 32,-47 8,-18 12,-36 12,-56 0,-20 -4,-39 -12,-56 -8,-18 -19,-34 -33,-47 -14,-14 -31,-24 -50,-33 -19,-8 -39,-12 -58,-12l-273 0 0 613 4 0 0 -199c0,-17 3,-31 10,-45 7,-14 15,-26 26,-38 11,-11 24,-20 40,-25 14,-7 31,-9 47,-9l20 0c2,0 3,0 6,0 2,0 4,1 8,1 2,1 6,1 8,2 2,1 4,1 8,2 2,1 4,2 8,4 2,1 4,3 7,4 2,2 3,2 2,2 -1,-1 2,2 8,8l221 293 0 -2zm-937 0c51,-139 102,-279 152,-418 25,-75 127,-54 145,0l162 418 4 0 -243 -624 -225 624 3 0 1 0zm-35 -161l0 12c0,20 -4,39 -11,55 -8,18 -19,33 -32,46 -13,13 -30,24 -47,31 -18,8 -63,11 -83,11l-141 0c-17,0 -32,-3 -47,-9 -14,-7 -28,-14 -39,-25 -11,-11 -20,-23 -26,-38 -7,-14 -9,-30 -9,-45l0 -63c0,-17 3,-32 9,-46 7,-14 15,-28 26,-39 11,-11 24,-20 39,-26 14,-7 31,-9 47,-9l145 0 1 1c61,2 136,33 159,89 8,18 11,35 11,55l-1 -1zm-316 -149c-17,0 -32,-3 -47,-9 -14,-7 -28,-14 -39,-25 -11,-11 -20,-23 -26,-38 -7,-14 -9,-30 -9,-45l0 -66c0,-17 3,-31 9,-45 7,-14 15,-26 26,-38 11,-11 24,-20 39,-25 14,-7 31,-9 47,-9l117 0c20,0 39,4 56,12 18,8 33,19 47,32 13,13 24,29 32,46 8,18 11,35 11,55l0 14c0,9 -1,19 -3,28 -2,9 -4,19 -9,26 -18,43 -34,76 -81,86 -9,2 -19,3 -28,3l-143 0 0 -3zm143 309c20,0 65,-4 84,-12 18,-8 34,-19 49,-32 14,-13 24,-30 32,-47 8,-18 11,-36 11,-56l0 -12c0,-13 -1,-25 -4,-38 -3,-12 -8,-24 -14,-34 -29,-49 -89,-57 -90,-74 0,-2 1,-4 2,-7 14,-28 44,-76 51,-102 3,-12 4,-24 4,-36l0 -14c0,-20 -3,-39 -11,-56 -8,-18 -19,-34 -32,-47 -14,-13 -30,-24 -49,-32 -19,-8 -38,-12 -57,-12l-242 0c0,7 0,34 0,85 0,51 0,125 0,222 0,98 0,172 0,222 0,51 0,78 0,85l268 0 -1 -1z"/>
  <path fill="url(#gradientExBar)" fill-rule="nonzero" d="M566 1080c12,0 21,2 26,8 6,4 9,12 9,23l0 7c0,8 -1,13 -4,18 -3,4 -8,8 -14,9 14,3 22,13 22,29l0 11c0,10 -3,19 -9,24 -7,6 -15,8 -28,8l-38 0 0 -137 36 0 -1 1zm-4 57c8,0 13,-1 17,-4 3,-2 6,-8 6,-14l0 -8c0,-7 -1,-11 -4,-13 -3,-3 -8,-4 -13,-4l-18 0 0 44 14 0 -1 0zm6 65c7,0 11,-1 14,-4 3,-3 4,-8 4,-14l0 -12c0,-8 -2,-12 -6,-15 -3,-3 -9,-4 -18,-4l-15 0 0 51 19 0 1 0zm160 14l-17 0 31 -137 26 0 31 137 -18 0 -7 -28 -41 0 -7 28zm45 -41l-19 -78 -18 78 36 0 0 0zm172 -96c12,0 22,2 28,8 6,6 9,13 9,23l0 11c0,8 -1,13 -4,19 -3,4 -9,8 -15,10 7,2 12,6 15,10 3,4 4,11 4,19l0 21c0,3 0,7 1,10 0,2 1,4 2,7l-19 0c-1,-2 -2,-4 -2,-7 0,-2 -1,-6 -1,-10l0 -21c0,-8 -2,-12 -6,-15 -4,-3 -10,-4 -18,-4l-13 0 0 58 -18 0 0 -137 36 0 0 -1zm-4 64c8,0 13,-1 18,-4 3,-2 6,-8 6,-14l0 -13c0,-7 -1,-11 -4,-14 -3,-3 -8,-4 -14,-4l-18 0 0 51 13 0 0 0zm190 -65c12,0 21,3 28,9 7,7 9,14 9,25l0 12 -18 0 0 -13c0,-13 -7,-20 -19,-20 -7,0 -11,2 -14,6 -3,3 -4,9 -4,14l0 72c0,7 1,11 4,14 3,3 8,6 14,6 13,0 19,-7 19,-20l0 -18 18 0 0 17c0,11 -3,19 -9,25 -7,7 -15,9 -28,9 -12,0 -21,-3 -28,-9 -7,-7 -9,-14 -9,-25l0 -71c0,-11 3,-19 9,-25 7,-7 15,-9 28,-9l0 1zm147 34c0,-11 3,-19 10,-25 7,-7 15,-9 28,-9 12,0 22,3 28,9 7,7 10,14 10,25l0 71c0,11 -3,19 -10,25 -7,7 -15,9 -28,9 -12,0 -21,-3 -28,-9 -7,-7 -10,-14 -10,-25l0 -71zm18 72c0,7 1,11 4,14 3,3 8,6 14,6 13,0 19,-7 19,-20l0 -72c0,-7 -1,-11 -4,-14 -3,-3 -8,-6 -14,-6 -7,0 -11,2 -14,6 -3,3 -4,9 -4,14l0 72 0 0zm206 -104c12,0 22,3 28,9 7,6 9,14 9,25l0 68c0,11 -3,19 -9,25 -7,6 -15,9 -28,9l-39 0 0 -137 39 0zm0 122c13,0 19,-7 19,-19l0 -71c0,-13 -7,-19 -20,-19l-20 0 0 108 20 0 1 0zm206 -49l-40 0 0 49 49 0 0 14 -67 0 0 -137 67 0 0 14 -49 0 0 46 40 0 0 13 0 0zm322 0l-40 0 0 49 49 0 0 14 -67 0 0 -137 67 0 0 14 -49 0 0 46 40 0 0 13 0 0zm159 -74c12,0 22,3 28,9 7,6 9,14 9,25l0 68c0,11 -3,19 -9,25 -7,6 -15,9 -28,9l-39 0 0 -137 39 0zm0 122c13,0 19,-7 19,-19l0 -71c0,-13 -7,-19 -20,-19l-20 0 0 108 20 0 1 0zm167 14l-18 0 0 -137 18 0 0 137zm137 -122l-30 0 0 -14 78 0 0 14 -30 0 0 122 -18 0 0 -122 -1 0zm153 19c0,-11 3,-19 10,-25 7,-7 15,-9 28,-9 12,0 22,3 28,9 7,7 10,14 10,25l0 71c0,11 -3,19 -10,25 -7,7 -15,9 -28,9 -12,0 -21,-3 -28,-9 -7,-7 -10,-14 -10,-25l0 -71zm18 72c0,7 1,11 4,14 3,3 8,6 14,6 13,0 19,-7 19,-20l0 -72c0,-7 -1,-11 -4,-14 -3,-3 -8,-6 -14,-6 -7,0 -11,2 -14,6 -3,3 -4,9 -4,14l0 72 0 0zm205 -104c12,0 22,2 28,8 6,6 9,13 9,23l0 11c0,8 -1,13 -4,19 -3,4 -9,8 -15,10 7,2 12,6 15,10 3,4 4,11 4,19l0 21c0,3 0,7 1,10 0,2 1,4 2,7l-19 0c-1,-2 -2,-4 -2,-7 0,-2 -1,-6 -1,-10l0 -21c0,-8 -2,-12 -6,-15 -4,-3 -10,-4 -18,-4l-13 0 0 58 -18 0 0 -137 36 0 0 -1zm-4 64c8,0 13,-1 18,-4 3,-2 6,-8 6,-14l0 -13c0,-7 -1,-11 -4,-14 -3,-3 -8,-4 -14,-4l-18 0 0 51 13 0 0 0z"/>
  <path fill="#373435" d="M560 226c-15,8 -19,34 -8,60 12,25 34,40 51,32 15,-8 19,-34 8,-60 -12,-25 -34,-40 -51,-32zm308 -36c18,3 26,29 21,56 -6,28 -24,46 -42,43 -18,-3 -26,-29 -21,-56 6,-28 24,-46 42,-43zm-161 -46c24,-3 49,26 53,65 4,39 -12,72 -36,75 -24,3 -49,-26 -53,-65 -4,-39 12,-72 36,-75z"/>
  <path fill="#ED3237" fill-rule="nonzero" d="M35 94c-6,0 -12,-1 -16,-3 -5,-2 -8,-5 -11,-9 -3,-4 -5,-8 -6,-14 -1,-5 -2,-11 -2,-17 0,-5 1,-10 2,-14 1,-4 3,-8 5,-11 2,-3 5,-6 7,-8 3,-2 6,-4 9,-5 3,-1 6,-2 10,-3 3,-1 7,-1 10,-1 2,0 4,0 6,0 2,0 4,0 6,0 2,0 4,0 6,1 2,0 3,1 4,1l-3 12c-1,0 -3,-1 -5,-1 -2,0 -4,-1 -7,-1 -2,0 -5,-1 -7,-1 -2,0 -4,0 -6,0 -2,0 -3,0 -4,0 -1,0 -2,0 -4,1 -1,0 -2,1 -3,1 -1,0 -2,1 -3,2 -3,2 -4,5 -5,10 -1,5 -1,11 -1,18 0,11 2,19 5,25 3,6 9,9 17,9 2,0 4,0 7,0 2,0 5,0 7,-1 2,0 4,-1 7,-1 2,0 4,-1 6,-2l0 7c-2,1 -4,2 -7,3 -2,1 -5,1 -8,2 -3,0 -5,1 -8,1 -3,0 -5,0 -8,0zm77 -44c-1,0 -3,-1 -4,-1 -1,0 -3,0 -4,0 -1,0 -2,0 -3,0 -1,0 -1,0 -2,1 -1,0 -1,1 -2,1 -1,1 -1,1 -2,2l0 39 -16 0 0 -55 15 0 1 9 0 0c0,-1 1,-1 2,-2 1,-1 1,-2 2,-3 1,-1 1,-2 2,-2 1,-1 2,-1 2,-1 1,-1 3,-1 5,-1 2,0 4,0 6,0l-2 14zm37 -14c3,0 5,0 8,1 3,1 5,2 7,4 2,2 4,4 6,7 2,3 3,7 4,11l0 1c-1,1 -1,1 -2,2 -1,1 -2,1 -3,1 -1,0 -3,1 -5,1 -2,0 -4,1 -7,1l-18 1 0 2c0,2 0,4 1,6 1,2 1,3 3,5 1,1 3,2 4,3 2,1 4,1 6,1 2,0 4,0 6,-1 2,0 4,-1 6,-1 2,-1 4,-1 5,-2 2,-1 3,-1 4,-1l1 4c-2,1 -4,3 -6,4 -2,1 -4,3 -7,4 -2,1 -5,2 -8,3 -3,1 -6,1 -9,1 -3,0 -7,0 -10,-1 -3,-1 -6,-2 -8,-5 -2,-2 -4,-5 -5,-8 -1,-3 -2,-8 -2,-13 0,-6 1,-10 2,-14 1,-4 3,-7 6,-9 3,-2 6,-4 9,-5 3,-1 7,-2 11,-2zm-8 9c0,0 -1,1 -1,2 0,1 -1,2 -1,3 0,1 -1,3 -1,4 0,1 0,3 0,4l18 -1c0,-2 -1,-3 -1,-5 0,-2 -1,-3 -2,-5 -1,-1 -2,-3 -3,-4 -1,-1 -2,-1 -4,-1 -1,0 -2,0 -3,0 -1,0 -2,1 -3,1zm95 39c1,0 3,0 6,-1l0 4c-1,1 -2,2 -3,2 -1,1 -2,1 -4,2 -1,1 -3,1 -4,1 -1,0 -3,0 -4,0 -1,0 -3,0 -4,-1 -1,0 -2,-1 -3,-2 -1,-1 -1,-1 -2,-2 -1,-1 -1,-2 -1,-2 -1,1 -3,2 -4,3 -1,1 -3,2 -4,2 -1,1 -3,1 -5,2 -2,0 -3,1 -5,1 -4,0 -8,-1 -11,-4 -3,-3 -4,-7 -4,-12 0,-3 0,-5 1,-7 1,-2 2,-4 4,-5 2,-1 4,-2 7,-3 3,-1 6,-1 10,-1l10 0 0 -8c0,-2 -1,-4 -2,-5 -1,-1 -3,-1 -6,-1 -2,0 -4,0 -7,1 -3,0 -6,1 -9,2l-2 -6c2,-1 4,-2 6,-2 2,-1 4,-2 7,-2 2,-1 4,-1 7,-2 2,0 5,-1 7,-1 3,0 5,0 7,1 2,0 4,1 5,2 1,1 2,2 3,4 1,2 1,4 1,7l0 25c0,6 2,9 4,9zm-20 -3c0,0 0,-1 0,-2 0,-1 0,-2 0,-4 0,-2 0,-3 0,-5 0,-2 0,-4 0,-6 -4,0 -7,0 -9,1 -2,0 -3,1 -4,2 0,0 0,1 -1,1 0,1 0,1 0,2 0,1 0,2 0,2 0,1 0,2 0,2 0,2 0,4 1,6 1,2 2,2 4,2 2,0 4,0 5,-1 2,0 3,-1 5,-2zm36 -37l-6 -2 0 -3 18 -12 4 0 0 10 17 0 -1 6c-1,0 -3,0 -5,1 -2,0 -4,0 -5,1 -2,0 -4,0 -6,0l0 31c0,2 0,4 1,5 1,1 2,2 5,2 1,0 1,0 3,0 1,0 2,0 3,0 1,0 2,0 3,0 1,0 2,0 3,0l0 5c-1,1 -3,2 -5,3 -2,1 -4,2 -6,2 -2,1 -4,1 -6,2 -2,0 -4,1 -6,1 -1,0 -3,0 -4,0 -1,0 -3,-1 -4,-2 -1,-1 -2,-2 -3,-3 -1,-1 -1,-3 -1,-5l0 -38zm70 -9c3,0 5,0 8,1 3,1 5,2 7,4 2,2 4,4 6,7 2,3 3,7 4,11l0 1c-1,1 -1,1 -2,2 -1,1 -2,1 -3,1 -1,0 -3,1 -5,1 -2,0 -4,1 -7,1l-18 1 0 2c0,2 0,4 1,6 1,2 1,3 3,5 1,1 3,2 4,3 2,1 4,1 6,1 2,0 4,0 6,-1 2,0 4,-1 6,-1 2,-1 4,-1 5,-2 2,-1 3,-1 4,-1l1 4c-2,1 -4,3 -6,4 -2,1 -4,3 -7,4 -2,1 -5,2 -8,3 -3,1 -6,1 -9,1 -3,0 -7,0 -10,-1 -3,-1 -6,-2 -8,-5 -2,-2 -4,-5 -5,-8 -1,-3 -2,-8 -2,-13 0,-6 1,-10 2,-14 1,-4 3,-7 6,-9 3,-2 6,-4 9,-5 3,-1 7,-2 11,-2zm-8 9c0,0 -1,1 -1,2 0,1 -1,2 -1,3 0,1 -1,3 -1,4 0,1 0,3 0,4l18 -1c0,-2 -1,-3 -1,-5 0,-2 -1,-3 -2,-5 -1,-1 -2,-3 -3,-4 -1,-1 -2,-1 -4,-1 -1,0 -2,0 -3,0 -1,0 -2,1 -3,1zm82 -8c0,-1 0,-2 0,-2 0,-1 0,-1 0,-2 0,-1 0,-1 0,-2l0 -29 16 -3 0 93 -11 0 -5 -5 0 0c-1,1 -2,2 -4,2 -1,1 -2,1 -4,2 -1,1 -3,1 -4,1 -2,0 -3,1 -5,1 -3,0 -6,0 -9,-1 -3,-1 -5,-2 -7,-5 -2,-2 -4,-5 -5,-8 -1,-3 -2,-8 -2,-13 0,-5 1,-9 2,-13 1,-4 3,-7 5,-9 2,-3 5,-5 9,-6 3,-1 7,-2 11,-2 2,0 4,0 6,0 2,0 4,0 6,1zm-22 28c0,6 1,11 3,14 2,3 5,4 9,4 2,0 4,0 5,-1 2,0 3,-1 5,-2l0 -36c-2,-1 -5,-1 -8,-1 -2,0 -4,0 -6,1 -2,0 -3,1 -4,2 -1,1 -2,3 -3,6 -1,3 -1,7 -1,12zm140 5c0,4 -1,7 -2,10 -1,3 -3,5 -6,7 -3,2 -6,4 -10,5 -4,1 -9,2 -14,2 -2,0 -4,0 -6,0 -2,0 -5,0 -7,0 -2,0 -5,0 -7,0 -2,0 -4,0 -6,0l0 -81c2,0 3,0 5,0 2,0 4,0 6,0 2,0 4,0 6,0 2,0 4,0 6,0 5,0 9,0 12,1 4,1 7,2 10,3 3,2 5,4 6,6 1,2 2,5 2,9 0,3 0,5 -1,7 -1,2 -2,4 -3,6 -1,2 -3,3 -5,4 -2,1 -4,2 -6,2l0 0c3,1 6,2 9,3 2,1 4,3 6,5 2,2 3,4 3,6 1,2 1,5 1,7zm-21 -39c0,-2 0,-5 -1,-6 -1,-2 -2,-3 -3,-4 -1,-1 -3,-2 -5,-2 -2,0 -4,-1 -7,-1 -1,0 -1,0 -2,0 -1,0 -1,0 -2,0l0 26 6 0c2,0 4,0 6,-1 2,0 4,-1 5,-1 0,0 1,-1 1,-1 1,-1 1,-1 1,-2 0,-1 1,-2 1,-3 0,-1 0,-3 0,-5zm4 38c0,-5 -2,-9 -5,-12 -3,-3 -8,-4 -14,-4l-5 0 0 31c0,0 1,0 1,0 0,0 1,0 1,0 0,0 1,0 1,0 1,0 1,0 2,0 1,0 2,0 3,0 1,0 2,0 4,0 1,0 2,0 3,-1 1,0 2,-1 2,-1 1,0 1,-1 2,-1 1,-1 1,-1 2,-2 1,-1 1,-2 1,-4 0,-2 0,-4 0,-6zm38 50c-3,3 -6,6 -9,8 -3,2 -6,2 -9,2 -2,0 -3,0 -5,0 -2,0 -3,-1 -4,-1l0 -5 1 0c2,0 4,-1 7,-2 3,-1 5,-3 8,-5 1,-1 3,-3 5,-4 2,-2 4,-4 5,-6 2,-2 4,-4 6,-6 2,-2 3,-4 5,-6 -2,-6 -4,-12 -7,-18 -2,-6 -4,-10 -6,-15 -2,-4 -4,-8 -5,-10 -1,-3 -3,-4 -3,-5 -1,-1 -2,-1 -3,-1 -1,0 -2,0 -2,0l0 0 0 -5c1,0 2,0 3,0 1,0 2,0 3,0 1,0 2,0 3,0 1,0 2,0 3,0 2,0 3,0 4,1 1,0 2,1 3,2 1,1 2,3 4,5 1,2 3,5 4,9 1,3 3,7 4,11 1,4 3,9 4,13l0 0c2,-3 3,-6 5,-8 1,-3 2,-5 3,-8 1,-2 1,-5 1,-7 0,-3 0,-5 0,-8 0,-1 0,-2 0,-2 0,-1 0,-2 0,-3 0,-1 0,-2 0,-2 0,-1 0,-1 0,-1l13 -2c0,1 1,2 1,4 0,2 0,3 0,5 0,4 -1,8 -2,12 -1,4 -3,8 -5,12 -2,4 -4,8 -7,12 -3,4 -5,8 -8,11 -3,4 -5,7 -6,10 -2,3 -3,5 -5,7 -1,2 -3,4 -4,5 -1,2 -3,3 -4,5zm60 -47l11 11 -11 11 -11 -11 11 -11zm0 -36l11 11 -11 11 -11 -11 11 -11z"/>
 </g>
</svg>
