<?xml version="1.0" encoding="UTF-8"?>
<!DOCTYPE svg PUBLIC "-//W3C//DTD SVG 1.1//EN" "http://www.w3.org/Graphics/SVG/1.1/DTD/svg11.dtd">
<!-- Creator: CorelDRAW X5 -->
<svg xmlns="http://www.w3.org/2000/svg" xml:space="preserve" width="5in" height="2.71646in" shape-rendering="geometricPrecision" text-rendering="geometricPrecision" image-rendering="optimizeQuality" fill-rule="evenodd" clip-rule="evenodd"
viewBox="0 0 5009 2721"
 xmlns:xlink="http://www.w3.org/1999/xlink">
 <g id="Layer_x0020_1">
  <metadata id="CorelCorpID_0Corel-Layer"/>
  <g id="_274732216">
   <path fill="#06A190" d="M4952 0l-88 0 0 13c-14,10 -18,2 -35,6 -5,1 -9,5 -14,8 -16,7 -19,3 -19,26 0,8 -1,12 1,20 2,10 31,16 35,16 18,0 28,-16 62,19 20,21 9,70 11,121 1,31 10,53 44,45 20,-39 19,-10 24,-57 1,-13 1,-84 1,-99 0,-22 -1,-41 -2,-64 -1,-48 -19,-19 -19,-55zm-149 2721l95 0 0 -13c25,-14 18,2 51,-13 21,-7 43,-23 37,-62 -5,-22 -4,-54 -8,-77l-5 -38c-1,-12 -4,-25 -5,-38 -10,0 -17,3 -27,7 -3,1 -4,2 -5,7 -7,19 -2,45 -4,62 -1,6 -2,5 -3,16 -1,17 -2,30 -13,39 -4,3 0,0 -4,3l-8 5c0,0 -1,1 -1,1l-17 11c-9,3 8,-1 -3,1 -6,1 -72,-6 -83,-2l-7 6c-6,4 -17,8 -24,11l1 28c2,14 10,8 22,20 13,13 12,16 12,29zm167 -963c-3,-11 3,-8 3,-8 -2,-3 -2,-1 0,-4 0,0 1,-1 1,-1 0,0 1,-1 1,-1 -4,-11 -1,-4 2,-6l-1 -1c-1,-22 -1,-74 1,-95 5,-40 7,-94 5,-136 -1,-12 -5,-28 -8,-40 -4,-21 -1,-23 -21,-26 -18,-3 -25,0 -42,1 -13,15 -7,61 -7,82 2,44 0,150 4,180 2,11 8,19 15,31 3,5 5,8 8,14 4,7 4,19 32,13l4 -2zm39 -1104l0 -163c-18,0 -18,-1 -27,-16 -4,-6 -9,-10 -14,-17 -5,0 -20,0 -25,1 -6,2 -8,7 -12,11 0,4 1,3 -3,1 4,13 0,-8 0,4 0,1 -1,0 -2,1 5,14 0,-8 0,4 0,1 -1,0 -2,1 3,15 -18,17 -5,91 2,13 4,73 -2,86 -3,6 0,8 -5,6 4,54 0,26 12,51 9,19 9,21 35,16l7 -2 4 -6c0,0 1,-4 1,-5l9 -24c5,-13 11,-31 16,-40l14 0zm-105 331c-2,17 2,61 0,73 2,2 0,-3 3,5 10,32 -10,175 8,188 5,3 25,7 32,6 27,-3 27,-9 29,-50 1,-28 2,-53 5,-78 4,-36 4,-121 -10,-147 -4,-6 -17,-13 -25,-16 -11,-4 -19,3 -31,4l-10 15zm72 1213c0,-53 7,-213 -15,-239 -8,-10 -15,-11 -19,-27l-31 1c-10,46 -10,17 -9,80 0,14 4,25 4,40 0,15 0,29 1,44 0,10 2,54 4,62 1,3 5,9 8,14 10,20 12,49 13,78l9 11 28 0c10,-22 7,-29 7,-63z"/>
   <path fill="#A6192E" d="M0 1865l0 123 16 0c7,30 12,73 15,107 2,22 -5,68 16,74 11,3 22,7 28,2 0,0 1,-1 1,-1 0,0 1,-1 1,-1 23,-13 26,-6 25,-59 0,-32 1,-65 1,-97 1,-135 -12,-86 -21,-124 -2,-6 -8,-34 -13,-38l-3 -2c-14,-3 10,2 -4,-1 -1,0 -6,-1 -7,-1 -7,-1 -11,-1 -17,-1 -9,13 -21,18 -38,18zm72 -329c-1,-4 -2,-4 2,-2 -1,-4 -3,-8 3,-6 -2,-12 3,-14 5,-23 2,-7 2,-16 3,-23 1,-5 10,-40 15,-39 -1,-5 -1,-5 0,-12 0,-3 1,-4 1,-6 2,-6 1,-2 4,-5l-1 -15c-2,-25 2,-103 0,-146l-6 -42c-21,-11 -16,-17 -28,-32l-28 1c-5,7 -12,25 -13,33 0,2 0,7 0,10 -1,39 2,58 2,97 0,28 -2,49 -5,75 -1,13 -5,21 -6,33 0,7 -1,30 -7,37 -3,3 -3,2 -14,2l0 37 14 0c15,24 16,30 39,29 3,0 7,0 11,-1l8 -1zm6 -1287c-2,-6 -2,-3 2,-4 -1,-4 -2,-4 -1,-10 3,-15 1,-5 5,-7 -2,-9 5,-24 10,-30l4 -3c0,-11 3,-50 5,-64 5,-32 28,-23 67,-37 10,-4 18,-3 30,-5l59 -11 -2 1c15,-20 -15,9 8,-7l1 -29c-6,-3 -13,-7 -19,-11 -8,-6 -6,-8 -17,-10 -30,-6 -19,-1 -43,5 -22,5 -79,15 -103,8 -12,10 -17,-5 -40,25 -7,9 -6,44 -7,59 -1,21 -1,43 0,64 1,72 -18,67 33,79 2,-3 2,-4 4,-6 7,-10 1,-3 6,-5zm136 2407c-1,-25 1,-31 -7,-38 -2,-2 -2,-1 -4,-3 0,0 -1,-2 -1,-1 0,0 -1,-1 -1,-1 -3,1 -2,3 -9,0 -9,-3 -2,-1 -6,-6l1 2c-20,-1 -54,-12 -62,-32 -5,-12 -11,-17 -14,-31 -2,-8 -3,-11 -5,-19l-1 -5c0,-1 0,-3 0,-4 -3,-22 -1,-41 -6,-51 -13,-24 -45,-30 -59,-16 -4,4 -5,8 -8,14 -10,22 -10,4 -5,32 1,6 1,12 2,18 2,12 4,24 5,36 2,27 4,49 7,76 8,7 8,7 13,19 7,16 22,21 38,25 9,2 15,-1 23,-3 18,-5 36,3 54,5 22,2 37,-14 46,-16zm4245 40c27,0 50,-2 70,-17l0 -29c-24,-20 -159,2 -216,-21 -15,-6 1,-4 -30,-12 -18,-4 -60,-5 -77,1 -14,5 -15,8 -18,25 -6,28 14,39 39,44 12,2 21,7 34,9 13,2 25,5 37,6 10,2 109,2 120,-2 13,-5 26,-4 42,-4zm-1296 -13l-6 -5 0 -29c16,-14 12,-4 51,-11 54,-10 3,-16 118,-20 59,-2 125,-15 168,5 0,24 -3,26 -27,46 -25,22 -51,15 -83,15 -8,0 -14,1 -23,2 -25,1 -174,-1 -197,-2zm-1260 0l6 -5 0 -29c-16,-14 -12,-4 -51,-11 -54,-10 -3,-16 -118,-20 -59,-2 -125,-15 -168,5 0,24 3,26 27,46 25,22 51,15 83,15 8,0 14,1 23,2 25,1 174,-1 197,-2zm-1827 -2114l2 1c-5,-3 -1,0 -5,-8 -1,-3 -1,-3 -3,-5 -13,1 -22,8 -29,17 -3,4 0,1 -4,3 0,1 1,2 0,2 0,0 -1,1 -1,2 0,1 -1,1 -2,1 4,25 -16,75 -15,109 1,39 -4,126 7,158 3,10 7,21 12,27l25 1c7,-1 -3,1 4,-1 0,0 1,-1 2,-1 2,4 5,-17 6,-19 1,-7 2,-10 3,-18 4,-56 15,-109 15,-157 0,-18 -4,-21 -4,-38 -1,-25 -14,-48 -13,-75zm2756 -536c-30,-1 -54,-7 -81,-7 -65,0 -43,9 -72,16l-2 30c7,6 8,3 16,7 5,2 9,6 13,9 6,3 12,3 18,5 9,4 3,4 16,5 27,2 58,1 85,4 28,3 57,2 86,0 26,-1 16,-2 33,-11 6,-3 10,-3 14,-7 3,-3 7,-8 10,-12 -4,-9 -8,-24 -17,-29 -7,-4 -27,-5 -36,-6 -27,-2 -57,-4 -84,-5zm-1665 0c-30,-1 -54,-7 -81,-7 -65,0 -43,9 -72,16l-2 30c7,6 8,3 16,7 5,2 9,6 13,9 6,3 12,3 18,5 9,4 3,4 16,5 27,2 58,1 85,4 28,3 57,2 86,0 26,-1 16,-2 33,-11 6,-3 10,-3 14,-7 3,-3 7,-8 10,-12 -4,-9 -8,-24 -17,-29 -7,-4 -27,-5 -36,-6 -27,-2 -57,-4 -83,-5zm1292 39c0,-9 -1,-17 -2,-22 -2,-10 -3,-8 -15,-9 -15,-1 -29,-3 -45,-3 -32,0 -60,-2 -92,-2 -32,0 -61,1 -92,3 -39,3 -40,15 -61,31 17,19 39,28 65,31 30,3 65,1 95,1 63,0 40,-9 77,-13 13,-1 61,-9 70,-17zm-1665 0c0,-9 -1,-17 -2,-22 -2,-10 -3,-8 -15,-9 -15,-1 -29,-3 -45,-3 -32,0 -60,-2 -92,-2 -32,0 -61,1 -92,3 -39,3 -40,15 -61,31 17,19 39,28 65,31 30,3 65,1 95,1 63,0 40,-9 77,-13 13,-1 61,-9 70,-17zm2503 32c-3,-3 5,0 -7,-3 -3,-1 -4,-1 -7,-1 -6,-2 -8,-3 -15,-4 -10,-3 -20,-6 -31,-8 -12,-2 -21,-4 -32,-7 -13,-3 -24,-5 -30,-11 18,-4 80,-14 95,-19 14,-6 23,-1 28,-10 12,2 57,-3 70,-4 20,1 47,0 67,-1 18,-1 48,5 62,2 -2,5 -2,3 3,1 2,12 1,21 1,34 -12,9 -40,10 -52,22 -10,10 -9,5 -13,10 -14,-2 -49,2 -70,1 -20,-1 -50,-5 -70,-1zm-1527 0c3,-3 -5,0 7,-3 3,-1 4,-1 7,-1 6,-2 8,-3 15,-4 10,-3 20,-6 31,-8 12,-2 21,-4 32,-7 13,-3 24,-5 30,-11 -18,-4 -80,-14 -95,-19 -14,-6 -23,-1 -28,-10 -12,2 -57,-3 -70,-4 -20,1 -47,0 -67,-1 -18,-1 -48,5 -62,2 2,5 2,3 -3,1 -2,12 -1,21 -1,34 12,9 40,10 52,22 10,10 9,5 13,10 14,-2 49,2 70,1 20,-1 50,-5 70,-1zm1165 2546l-1 -30c-21,-13 -114,-6 -147,-6 -20,0 -94,-4 -108,8 -3,3 -13,22 -15,27 2,4 11,26 14,28 16,13 97,5 117,2 14,-2 20,-5 31,-10 11,-4 24,-5 35,-8 24,-5 54,-2 73,-13zm-1665 0l-1 -30c-21,-13 -114,-6 -147,-6 -20,0 -94,-4 -108,8 -3,3 -13,22 -15,27 2,4 11,26 14,28 16,13 97,5 117,2 14,-2 20,-5 31,-10 11,-4 24,-5 35,-8 24,-5 54,-2 73,-13zm1076 33l1 2c3,-5 0,-1 5,-3 5,-2 -1,-1 5,1 5,-6 30,-15 36,-33 -25,-9 -40,-11 -73,-11 -28,0 -55,0 -83,0 -30,0 -95,-6 -121,1 -33,9 -29,3 -28,38 10,9 7,7 24,11l7 3c0,0 1,1 1,1 23,11 65,0 87,-2 23,-2 43,-5 69,-4 6,0 13,1 19,0l51 -3zm-1665 0l1 2c3,-5 0,-1 5,-3 5,-2 -1,-1 5,1 5,-6 30,-15 36,-33 -25,-9 -40,-11 -73,-11 -28,0 -55,0 -83,0 -30,0 -95,-6 -121,1 -33,9 -29,3 -28,38 10,9 7,7 24,11l7 3c0,0 1,1 1,1 23,11 65,0 87,-2 23,-2 43,-5 69,-4 6,0 13,1 19,0l51 -3zm3170 4c23,0 54,-5 75,-7 2,-6 4,-10 7,-15 1,-2 1,-3 4,-5 6,-6 0,-1 7,-4 2,-11 -1,-9 -22,-12l-108 -6c-25,-1 -46,-3 -73,-3l-68 6c-4,6 1,1 -5,3 -4,2 1,1 -5,-1l-5 7 -3 29c11,7 4,5 20,8 73,13 123,-4 176,0zm120 -2615c1,-16 -12,-16 -24,-31 -22,-1 -39,-4 -63,-4 -32,0 -87,-5 -115,0l-13 4c-24,8 -21,53 9,60 22,6 93,2 114,-1 12,-2 26,-9 39,-12 10,-3 47,-10 53,-16zm384 -30c-4,1 0,3 -7,1 -6,-2 -2,0 -5,-4l-25 0c-12,12 -4,-2 -22,17 -6,6 -15,12 -20,17 10,17 10,28 27,34 30,9 74,5 97,4 27,-1 52,2 78,-4 37,-8 17,0 39,-23 5,-5 7,-4 9,-13 -46,-21 -128,-4 -167,-25 -6,-3 -2,2 -4,-4z"/>
  </g>
  <path fill="none" stroke="#373435" stroke-width="10.0186" d="M3842 241l0 2188m-3158 0l0 -2188"/>
  <path fill="#373435" fill-rule="nonzero" d="M1056 642l31 8c-7,26 -18,45 -35,58 -17,13 -38,20 -63,20 -26,0 -46,-5 -62,-15 -16,-10 -28,-25 -37,-45 -8,-20 -13,-41 -13,-63 0,-24 5,-46 14,-64 9,-18 23,-32 40,-42 17,-9 37,-14 57,-14 24,0 44,6 60,18 16,12 27,29 34,51l-31 7c-6,-17 -13,-30 -24,-37 -10,-8 -24,-12 -39,-12 -18,0 -33,4 -46,13 -12,9 -21,20 -26,35 -5,15 -7,30 -7,45 0,20 3,37 9,52 6,15 15,26 27,33 12,7 26,11 40,11 18,0 32,-5 45,-15 12,-10 20,-25 25,-45z"/>
  <path id="1" fill="#373435" fill-rule="nonzero" d="M1111 639c0,-32 9,-55 27,-70 15,-13 33,-19 54,-19 24,0 43,8 58,23 15,15 22,37 22,64 0,22 -3,39 -10,52 -7,13 -16,22 -29,29 -13,7 -26,10 -42,10 -24,0 -43,-8 -58,-23 -15,-15 -22,-37 -22,-66zm30 0c0,22 5,38 14,49 10,11 22,16 36,16 14,0 27,-5 36,-16 10,-11 14,-28 14,-50 0,-21 -5,-37 -14,-48 -10,-11 -22,-16 -36,-16 -15,0 -27,5 -36,16 -10,11 -14,27 -14,49z"/>
  <polygon id="12" fill="#373435" fill-rule="nonzero" points="1306,724 1306,489 1335,489 1335,724 "/>
  <path id="123" fill="#373435" fill-rule="nonzero" d="M1369 639c0,-32 9,-55 27,-70 15,-13 33,-19 54,-19 24,0 43,8 58,23 15,15 22,37 22,64 0,22 -3,39 -10,52 -7,13 -16,22 -29,29 -13,7 -26,10 -42,10 -24,0 -43,-8 -58,-23 -15,-15 -22,-37 -22,-66zm30 0c0,22 5,38 14,49 10,11 22,16 36,16 14,0 27,-5 36,-16 10,-11 14,-28 14,-50 0,-21 -5,-37 -14,-48 -10,-11 -22,-16 -36,-16 -15,0 -27,5 -36,16 -10,11 -14,27 -14,49z"/>
  <path id="1234" fill="#373435" fill-rule="nonzero" d="M1564 724l0 -170 26 0 0 26c7,-12 13,-20 19,-24 6,-4 12,-6 19,-6 10,0 20,3 30,9l-10 27c-7,-4 -14,-6 -21,-6 -6,0 -12,2 -17,6 -5,4 -9,9 -11,16 -3,10 -5,21 -5,34l0 89 -29 0z"/>
  <path id="12345" fill="#373435" fill-rule="nonzero" d="M1774 587l0 -33 33 0 0 33 -33 0zm0 137l0 -33 33 0 0 33 -33 0z"/>
  <path fill="#373435" fill-rule="nonzero" d="M1056 1206l31 8c-7,26 -18,45 -35,58 -17,13 -38,20 -63,20 -26,0 -46,-5 -62,-15 -16,-10 -28,-25 -37,-45 -8,-20 -13,-41 -13,-63 0,-24 5,-46 14,-64 9,-18 23,-32 40,-42 17,-9 37,-14 57,-14 24,0 44,6 60,18 16,12 27,29 34,51l-31 7c-6,-17 -13,-30 -24,-37 -10,-8 -24,-12 -39,-12 -18,0 -33,4 -46,13 -12,9 -21,20 -26,35 -5,15 -7,30 -7,45 0,20 3,37 9,52 6,15 15,26 27,33 12,7 26,11 40,11 18,0 32,-5 45,-15 12,-10 20,-25 25,-45z"/>
  <path id="1" fill="#373435" fill-rule="nonzero" d="M1111 1203c0,-32 9,-55 27,-70 15,-13 33,-19 54,-19 24,0 43,8 58,23 15,15 22,37 22,64 0,22 -3,39 -10,52 -7,13 -16,22 -29,29 -13,7 -26,10 -42,10 -24,0 -43,-8 -58,-23 -15,-15 -22,-37 -22,-66zm30 0c0,22 5,38 14,49 10,11 22,16 36,16 14,0 27,-5 36,-16 10,-11 14,-28 14,-50 0,-21 -5,-37 -14,-48 -10,-11 -22,-16 -36,-16 -15,0 -27,5 -36,16 -10,11 -14,27 -14,49z"/>
  <polygon id="12" fill="#373435" fill-rule="nonzero" points="1306,1288 1306,1053 1335,1053 1335,1288 "/>
  <path id="123" fill="#373435" fill-rule="nonzero" d="M1369 1203c0,-32 9,-55 27,-70 15,-13 33,-19 54,-19 24,0 43,8 58,23 15,15 22,37 22,64 0,22 -3,39 -10,52 -7,13 -16,22 -29,29 -13,7 -26,10 -42,10 -24,0 -43,-8 -58,-23 -15,-15 -22,-37 -22,-66zm30 0c0,22 5,38 14,49 10,11 22,16 36,16 14,0 27,-5 36,-16 10,-11 14,-28 14,-50 0,-21 -5,-37 -14,-48 -10,-11 -22,-16 -36,-16 -15,0 -27,5 -36,16 -10,11 -14,27 -14,49z"/>
  <path id="1234" fill="#373435" fill-rule="nonzero" d="M1564 1288l0 -170 26 0 0 26c7,-12 13,-20 19,-24 6,-4 12,-6 19,-6 10,0 20,3 30,9l-10 27c-7,-4 -14,-6 -21,-6 -6,0 -12,2 -17,6 -5,4 -9,9 -11,16 -3,10 -5,21 -5,34l0 89 -29 0z"/>
  <path id="12345" fill="#373435" fill-rule="nonzero" d="M1774 1151l0 -33 33 0 0 33 -33 0zm0 137l0 -33 33 0 0 33 -33 0z"/>
  <path fill="#373435" fill-rule="nonzero" d="M1056 1770l31 8c-7,26 -18,45 -35,58 -17,13 -38,20 -63,20 -26,0 -46,-5 -62,-15 -16,-10 -28,-25 -37,-45 -8,-20 -13,-41 -13,-63 0,-24 5,-46 14,-64 9,-18 23,-32 40,-42 17,-9 37,-14 57,-14 24,0 44,6 60,18 16,12 27,29 34,51l-31 7c-6,-17 -13,-30 -24,-37 -10,-8 -24,-12 -39,-12 -18,0 -33,4 -46,13 -12,9 -21,20 -26,35 -5,15 -7,30 -7,45 0,20 3,37 9,52 6,15 15,26 27,33 12,7 26,11 40,11 18,0 32,-5 45,-15 12,-10 20,-25 25,-45z"/>
  <path id="1" fill="#373435" fill-rule="nonzero" d="M1111 1767c0,-32 9,-55 27,-70 15,-13 33,-19 54,-19 24,0 43,8 58,23 15,15 22,37 22,64 0,22 -3,39 -10,52 -7,13 -16,22 -29,29 -13,7 -26,10 -42,10 -24,0 -43,-8 -58,-23 -15,-15 -22,-37 -22,-66zm30 0c0,22 5,38 14,49 10,11 22,16 36,16 14,0 27,-5 36,-16 10,-11 14,-28 14,-50 0,-21 -5,-37 -14,-48 -10,-11 -22,-16 -36,-16 -15,0 -27,5 -36,16 -10,11 -14,27 -14,49z"/>
  <polygon id="12" fill="#373435" fill-rule="nonzero" points="1306,1852 1306,1617 1335,1617 1335,1852 "/>
  <path id="123" fill="#373435" fill-rule="nonzero" d="M1369 1767c0,-32 9,-55 27,-70 15,-13 33,-19 54,-19 24,0 43,8 58,23 15,15 22,37 22,64 0,22 -3,39 -10,52 -7,13 -16,22 -29,29 -13,7 -26,10 -42,10 -24,0 -43,-8 -58,-23 -15,-15 -22,-37 -22,-66zm30 0c0,22 5,38 14,49 10,11 22,16 36,16 14,0 27,-5 36,-16 10,-11 14,-28 14,-50 0,-21 -5,-37 -14,-48 -10,-11 -22,-16 -36,-16 -15,0 -27,5 -36,16 -10,11 -14,27 -14,49z"/>
  <path id="1234" fill="#373435" fill-rule="nonzero" d="M1564 1852l0 -170 26 0 0 26c7,-12 13,-20 19,-24 6,-4 12,-6 19,-6 10,0 20,3 30,9l-10 27c-7,-4 -14,-6 -21,-6 -6,0 -12,2 -17,6 -5,4 -9,9 -11,16 -3,10 -5,21 -5,34l0 89 -29 0z"/>
  <path id="12345" fill="#373435" fill-rule="nonzero" d="M1774 1715l0 -33 33 0 0 33 -33 0zm0 137l0 -33 33 0 0 33 -33 0z"/>
  <path fill="#373435" fill-rule="nonzero" d="M1056 2193l31 8c-7,26 -18,45 -35,58 -17,13 -38,20 -63,20 -26,0 -46,-5 -62,-15 -16,-10 -28,-25 -37,-45 -8,-20 -13,-41 -13,-63 0,-24 5,-46 14,-64 9,-18 23,-32 40,-42 17,-9 37,-14 57,-14 24,0 44,6 60,18 16,12 27,29 34,51l-31 7c-6,-17 -13,-30 -24,-37 -10,-8 -24,-12 -39,-12 -18,0 -33,4 -46,13 -12,9 -21,20 -26,35 -5,15 -7,30 -7,45 0,20 3,37 9,52 6,15 15,26 27,33 12,7 26,11 40,11 18,0 32,-5 45,-15 12,-10 20,-25 25,-45z"/>
  <path id="1" fill="#373435" fill-rule="nonzero" d="M1111 2190c0,-32 9,-55 27,-70 15,-13 33,-19 54,-19 24,0 43,8 58,23 15,15 22,37 22,64 0,22 -3,39 -10,52 -7,13 -16,22 -29,29 -13,7 -26,10 -42,10 -24,0 -43,-8 -58,-23 -15,-15 -22,-37 -22,-66zm30 0c0,22 5,38 14,49 10,11 22,16 36,16 14,0 27,-5 36,-16 10,-11 14,-28 14,-50 0,-21 -5,-37 -14,-48 -10,-11 -22,-16 -36,-16 -15,0 -27,5 -36,16 -10,11 -14,27 -14,49z"/>
  <polygon id="12" fill="#373435" fill-rule="nonzero" points="1306,2275 1306,2040 1335,2040 1335,2275 "/>
  <path id="123" fill="#373435" fill-rule="nonzero" d="M1369 2190c0,-32 9,-55 27,-70 15,-13 33,-19 54,-19 24,0 43,8 58,23 15,15 22,37 22,64 0,22 -3,39 -10,52 -7,13 -16,22 -29,29 -13,7 -26,10 -42,10 -24,0 -43,-8 -58,-23 -15,-15 -22,-37 -22,-66zm30 0c0,22 5,38 14,49 10,11 22,16 36,16 14,0 27,-5 36,-16 10,-11 14,-28 14,-50 0,-21 -5,-37 -14,-48 -10,-11 -22,-16 -36,-16 -15,0 -27,5 -36,16 -10,11 -14,27 -14,49z"/>
  <path id="1234" fill="#373435" fill-rule="nonzero" d="M1564 2275l0 -170 26 0 0 26c7,-12 13,-20 19,-24 6,-4 12,-6 19,-6 10,0 20,3 30,9l-10 27c-7,-4 -14,-6 -21,-6 -6,0 -12,2 -17,6 -5,4 -9,9 -11,16 -3,10 -5,21 -5,34l0 89 -29 0z"/>
  <path id="12345" fill="#373435" fill-rule="nonzero" d="M1774 2138l0 -33 33 0 0 33 -33 0zm0 137l0 -33 33 0 0 33 -33 0z"/>
  <path fill="#373435" fill-rule="nonzero" d="M2023 724l0 -235 89 0c18,0 33,2 44,7 11,5 20,12 26,22 6,10 9,20 9,31 0,10 -3,19 -8,28 -5,9 -14,16 -25,22 14,4 25,11 33,21 8,10 12,22 12,36 0,11 -2,21 -7,31 -5,9 -10,17 -17,22 -7,5 -16,9 -26,12 -10,3 -23,4 -38,4l-90 0zm31 -136l51 0c14,0 24,-1 30,-3 8,-2 14,-6 18,-12 4,-5 6,-12 6,-21 0,-8 -2,-15 -6,-21 -4,-6 -9,-10 -16,-12 -7,-2 -19,-3 -36,-3l-47 0 0 71zm0 109l59 0c10,0 17,0 21,-1 7,-1 13,-3 18,-6 5,-3 9,-7 12,-13 3,-6 5,-12 5,-20 0,-9 -2,-16 -7,-23 -5,-6 -11,-11 -19,-14 -8,-3 -20,-4 -35,-4l-55 0 0 81z"/>
  <polygon id="1" fill="#373435" fill-rule="nonzero" points="2241,724 2241,489 2270,489 2270,724 "/>
  <path id="12" fill="#373435" fill-rule="nonzero" d="M2427 703c-11,9 -21,15 -31,19 -10,4 -21,6 -32,6 -19,0 -33,-5 -44,-14 -10,-9 -15,-21 -15,-35 0,-8 2,-16 6,-23 4,-7 9,-12 15,-17 6,-4 13,-7 21,-9 6,-1 14,-3 26,-4 24,-3 41,-6 52,-10 0,-4 0,-6 0,-7 0,-12 -3,-20 -8,-25 -7,-7 -18,-10 -33,-10 -14,0 -24,2 -30,7 -7,5 -11,13 -14,25l-28 -4c3,-12 7,-22 13,-29 6,-7 15,-13 26,-17 11,-4 24,-6 39,-6 15,0 27,2 36,5 9,3 16,8 20,13 4,5 7,12 9,20 1,5 1,14 1,27l0 38c0,27 1,44 2,51 1,7 4,14 7,20l-30 0c-3,-6 -5,-13 -6,-21zm-2 -64c-11,4 -26,8 -48,11 -12,2 -20,4 -25,6 -5,2 -9,5 -11,9 -3,4 -4,9 -4,14 0,8 3,14 9,19 6,5 14,8 26,8 11,0 21,-2 30,-7 9,-5 15,-12 19,-20 3,-7 5,-16 5,-29l0 -11z"/>
  <path id="123" fill="#373435" fill-rule="nonzero" d="M2611 662l29 4c-3,20 -11,35 -24,46 -13,11 -29,17 -47,17 -23,0 -42,-8 -57,-23 -14,-15 -21,-37 -21,-66 0,-18 3,-34 9,-48 6,-14 16,-24 28,-31 13,-7 26,-10 41,-10 19,0 34,5 46,14 12,9 19,23 23,40l-28 4c-3,-11 -7,-20 -14,-26 -7,-6 -15,-9 -25,-9 -15,0 -27,5 -36,16 -9,10 -14,27 -14,49 0,23 4,40 13,50 9,10 20,16 35,16 11,0 21,-4 29,-10 8,-7 13,-18 15,-32z"/>
  <polygon id="1234" fill="#373435" fill-rule="nonzero" points="2665,724 2665,489 2694,489 2694,623 2763,554 2800,554 2735,617 2807,724 2771,724 2714,637 2694,657 2694,724 "/>
  <polygon id="12345" fill="#373435" fill-rule="nonzero" points="2808,728 2877,485 2900,485 2832,728 "/>
  <polygon id="123456" fill="#373435" fill-rule="nonzero" points="2926,724 2926,489 2958,489 3082,674 3082,489 3112,489 3112,724 3080,724 2956,540 2956,724 "/>
  <path id="1234567" fill="#373435" fill-rule="nonzero" d="M3274 703c-11,9 -21,15 -31,19 -10,4 -21,6 -32,6 -19,0 -33,-5 -44,-14 -10,-9 -15,-21 -15,-35 0,-8 2,-16 6,-23 4,-7 9,-12 15,-17 6,-4 13,-7 21,-9 6,-1 14,-3 26,-4 24,-3 41,-6 52,-10 0,-4 0,-6 0,-7 0,-12 -3,-20 -8,-25 -7,-7 -18,-10 -33,-10 -14,0 -24,2 -30,7 -7,5 -11,13 -14,25l-28 -4c3,-12 7,-22 13,-29 6,-7 15,-13 26,-17 11,-4 24,-6 39,-6 15,0 27,2 36,5 9,3 16,8 20,13 4,5 7,12 9,20 1,5 1,14 1,27l0 38c0,27 1,44 2,51 1,7 4,14 7,20l-30 0c-3,-6 -5,-13 -6,-21zm-2 -64c-11,4 -26,8 -48,11 -12,2 -20,4 -25,6 -5,2 -9,5 -11,9 -3,4 -4,9 -4,14 0,8 3,14 9,19 6,5 14,8 26,8 11,0 21,-2 30,-7 9,-5 15,-12 19,-20 3,-7 5,-16 5,-29l0 -11z"/>
  <path id="12345678" fill="#373435" fill-rule="nonzero" d="M3393 724l-65 -170 31 0 37 102c4,11 8,22 11,34 3,-9 6,-20 11,-32l38 -104 30 0 -65 170 -27 0z"/>
  <path id="123456789" fill="#373435" fill-rule="nonzero" d="M3510 790l-3 -27c6,2 12,3 17,3 6,0 12,-1 16,-3 4,-2 7,-5 10,-9 2,-3 5,-10 9,-21 1,-2 1,-4 3,-7l-65 -171 31 0 36 99c5,13 9,26 12,39 3,-13 7,-26 12,-39l37 -99 29 0 -65 173c-7,19 -12,32 -16,39 -5,10 -11,16 -18,21 -7,4 -15,7 -24,7 -6,0 -12,-1 -19,-4z"/>
  <path fill="#373435" fill-rule="nonzero" d="M2135 1196l0 -28 100 0 0 87c-15,12 -31,21 -48,28 -16,6 -33,9 -50,9 -23,0 -44,-5 -63,-15 -19,-10 -33,-24 -43,-43 -10,-19 -15,-40 -15,-63 0,-23 5,-44 15,-64 10,-20 24,-35 42,-44 18,-10 39,-14 63,-14 17,0 33,3 46,8 14,5 25,13 33,23 8,10 14,23 18,38l-28 8c-4,-12 -8,-21 -13,-28 -5,-7 -13,-12 -23,-16 -10,-4 -21,-6 -33,-6 -14,0 -27,2 -37,7 -10,4 -19,10 -25,17 -6,7 -11,15 -15,23 -6,15 -9,30 -9,47 0,21 4,38 11,53 7,14 18,25 32,31 14,7 29,10 44,10 14,0 27,-3 40,-8 13,-5 23,-11 29,-17l0 -44 -70 0z"/>
  <path id="1" fill="#373435" fill-rule="nonzero" d="M2278 1288l0 -170 26 0 0 26c7,-12 13,-20 19,-24 6,-4 12,-6 19,-6 10,0 20,3 30,9l-10 27c-7,-4 -14,-6 -21,-6 -6,0 -12,2 -17,6 -5,4 -9,9 -11,16 -3,10 -5,21 -5,34l0 89 -29 0z"/>
  <path id="12" fill="#373435" fill-rule="nonzero" d="M2506 1233l30 4c-5,17 -14,31 -26,41 -13,10 -29,14 -49,14 -25,0 -45,-8 -60,-23 -15,-15 -22,-37 -22,-65 0,-29 7,-51 22,-67 15,-16 34,-24 58,-24 23,0 42,8 56,23 15,15 22,37 22,65 0,2 0,4 0,8l-128 0c1,19 6,33 16,43 10,10 22,15 36,15 11,0 20,-3 27,-8 8,-6 14,-14 18,-27zm-96 -47l96 0c-1,-14 -5,-25 -11,-32 -9,-11 -21,-17 -36,-17 -13,0 -25,4 -34,13 -9,9 -14,21 -15,36z"/>
  <path id="123" fill="#373435" fill-rule="nonzero" d="M2571 1354l-3 -27c6,2 12,3 17,3 6,0 12,-1 16,-3 4,-2 7,-5 10,-9 2,-3 5,-10 9,-21 1,-2 1,-4 3,-7l-65 -171 31 0 36 99c5,13 9,26 12,39 3,-13 7,-26 12,-39l37 -99 29 0 -65 173c-7,19 -12,32 -16,39 -5,10 -11,16 -18,21 -7,4 -15,7 -24,7 -6,0 -12,-1 -19,-4z"/>
  <path id="1234" fill="#373435" fill-rule="nonzero" d="M2833 1288l0 -235 47 0 56 166c5,15 9,27 11,35 3,-9 7,-21 13,-38l57 -164 42 0 0 235 -30 0 0 -197 -69 197 -28 0 -69 -200 0 200 -30 0z"/>
  <path id="12345" fill="#373435" fill-rule="nonzero" d="M3224 1233l30 4c-5,17 -14,31 -26,41 -13,10 -29,14 -49,14 -25,0 -45,-8 -60,-23 -15,-15 -22,-37 -22,-65 0,-29 7,-51 22,-67 15,-16 34,-24 58,-24 23,0 42,8 56,23 15,15 22,37 22,65 0,2 0,4 0,8l-128 0c1,19 6,33 16,43 10,10 22,15 36,15 11,0 20,-3 27,-8 8,-6 14,-14 18,-27zm-96 -47l96 0c-1,-14 -5,-25 -11,-32 -9,-11 -21,-17 -36,-17 -13,0 -25,4 -34,13 -9,9 -14,21 -15,36z"/>
  <polygon id="123456" fill="#373435" fill-rule="nonzero" points="3290,1288 3290,1053 3319,1053 3319,1288 "/>
  <path id="1234567" fill="#373435" fill-rule="nonzero" d="M3476 1267c-11,9 -21,15 -31,19 -10,4 -21,6 -32,6 -19,0 -33,-5 -44,-14 -10,-9 -15,-21 -15,-35 0,-8 2,-16 6,-23 4,-7 9,-12 15,-17 6,-4 13,-7 21,-9 6,-1 14,-3 26,-4 24,-3 41,-6 52,-10 0,-4 0,-6 0,-7 0,-12 -3,-20 -8,-25 -7,-7 -18,-10 -33,-10 -14,0 -24,2 -30,7 -7,5 -11,13 -14,25l-28 -4c3,-12 7,-22 13,-29 6,-7 15,-13 26,-17 11,-4 24,-6 39,-6 15,0 27,2 36,5 9,3 16,8 20,13 4,5 7,12 9,20 1,5 1,14 1,27l0 38c0,27 1,44 2,51 1,7 4,14 7,20l-30 0c-3,-6 -5,-13 -6,-21zm-2 -64c-11,4 -26,8 -48,11 -12,2 -20,4 -25,6 -5,2 -9,5 -11,9 -3,4 -4,9 -4,14 0,8 3,14 9,19 6,5 14,8 26,8 11,0 21,-2 30,-7 9,-5 15,-12 19,-20 3,-7 5,-16 5,-29l0 -11z"/>
  <path id="12345678" fill="#373435" fill-rule="nonzero" d="M3548 1288l0 -170 26 0 0 24c13,-19 31,-28 55,-28 10,0 20,2 29,6 9,4 15,9 19,15 4,6 7,13 9,21 1,5 2,15 2,28l0 105 -29 0 0 -104c0,-12 -1,-21 -3,-26 -2,-6 -6,-10 -12,-14 -6,-4 -13,-5 -20,-5 -12,0 -23,4 -32,12 -9,8 -13,23 -13,44l0 93 -29 0z"/>
  <path id="123456789" fill="#373435" fill-rule="nonzero" d="M3727 1302l28 4c1,9 4,15 10,19 7,5 17,8 30,8 14,0 24,-3 31,-8 7,-5 12,-13 15,-22 2,-6 2,-18 2,-37 -13,15 -29,22 -48,22 -24,0 -42,-8 -55,-25 -13,-17 -19,-37 -19,-61 0,-16 3,-31 9,-45 6,-14 15,-24 26,-32 11,-7 25,-11 40,-11 20,0 37,8 50,24l0 -21 27 0 0 147c0,26 -3,45 -8,56 -5,11 -14,20 -26,26 -12,6 -26,10 -44,10 -20,0 -37,-5 -50,-14 -13,-9 -19,-23 -18,-41zm24 -102c0,22 4,39 13,49 9,10 20,15 34,15 13,0 25,-5 34,-15 9,-10 14,-26 14,-48 0,-21 -5,-37 -14,-47 -9,-11 -21,-16 -34,-16 -13,0 -24,5 -33,16 -9,10 -14,26 -14,46z"/>
  <path id="12345678910" fill="#373435" fill-rule="nonzero" d="M4034 1233l30 4c-5,17 -14,31 -26,41 -13,10 -29,14 -49,14 -25,0 -45,-8 -60,-23 -15,-15 -22,-37 -22,-65 0,-29 7,-51 22,-67 15,-16 34,-24 58,-24 23,0 42,8 56,23 15,15 22,37 22,65 0,2 0,4 0,8l-128 0c1,19 6,33 16,43 10,10 22,15 36,15 11,0 20,-3 27,-8 8,-6 14,-14 18,-27zm-96 -47l96 0c-1,-14 -5,-25 -11,-32 -9,-11 -21,-17 -36,-17 -13,0 -25,4 -34,13 -9,9 -14,21 -15,36z"/>
  <polygon id="1234567891011" fill="#373435" fill-rule="nonzero" points="4079,1292 4148,1049 4171,1049 4102,1292 "/>
  <path id="123456789101112" fill="#373435" fill-rule="nonzero" d="M4196 1288l0 -235 89 0c16,0 28,1 36,2 12,2 21,6 29,11 8,5 14,13 19,23 5,10 7,20 7,32 0,20 -6,37 -19,51 -13,14 -36,21 -70,21l-61 0 0 96 -31 0zm31 -123l61 0c20,0 35,-4 43,-11 9,-7 13,-18 13,-32 0,-10 -2,-18 -8,-25 -5,-7 -12,-12 -20,-14 -5,-1 -15,-2 -29,-2l-61 0 0 84z"/>
  <path id="12345678910111213" fill="#373435" fill-rule="nonzero" d="M4414 1086l0 -33 29 0 0 33 -29 0zm0 202l0 -170 29 0 0 170 -29 0z"/>
  <path id="1234567891011121314" fill="#373435" fill-rule="nonzero" d="M4487 1288l0 -170 26 0 0 24c13,-19 31,-28 55,-28 10,0 20,2 29,6 9,4 15,9 19,15 4,6 7,13 9,21 1,5 2,15 2,28l0 105 -29 0 0 -104c0,-12 -1,-21 -3,-26 -2,-6 -6,-10 -12,-14 -6,-4 -13,-5 -20,-5 -12,0 -23,4 -32,12 -9,8 -13,23 -13,44l0 93 -29 0z"/>
  <polygon id="123456789101112131415" fill="#373435" fill-rule="nonzero" points="4672,1288 4672,1053 4701,1053 4701,1187 4770,1118 4807,1118 4742,1181 4814,1288 4778,1288 4721,1201 4701,1221 4701,1288 "/>
  <path fill="#373435" fill-rule="nonzero" d="M2078 1760l0 -28 58 0 0 87c-9,12 -18,21 -28,28 -10,6 -19,9 -29,9 -14,0 -26,-5 -37,-15 -11,-10 -19,-24 -25,-43 -6,-19 -8,-40 -8,-63 0,-23 3,-44 8,-64 6,-20 14,-35 24,-44 11,-10 23,-14 36,-14 10,0 19,3 27,8 8,5 14,13 19,23 5,10 8,23 10,38l-16 8c-2,-12 -5,-21 -8,-28 -3,-7 -7,-12 -13,-16 -6,-4 -12,-6 -19,-6 -8,0 -16,2 -22,7 -6,4 -11,10 -15,17 -4,7 -7,15 -9,23 -3,15 -5,30 -5,47 0,21 2,38 6,53 4,14 10,25 18,31 8,7 17,10 26,10 8,0 16,-3 23,-8 8,-5 13,-11 17,-17l0 -44 -41 0z"/>
  <path id="1" fill="#373435" fill-rule="nonzero" d="M2161 1852l0 -170 15 0 0 26c4,-12 7,-20 11,-24 3,-4 7,-6 11,-6 6,0 11,3 17,9l-6 27c-4,-4 -8,-6 -12,-6 -4,0 -7,2 -10,6 -3,4 -5,9 -6,16 -2,10 -3,21 -3,34l0 89 -17 0z"/>
  <path id="12" fill="#373435" fill-rule="nonzero" d="M2293 1797l17 4c-3,17 -8,31 -15,41 -7,10 -17,14 -29,14 -15,0 -26,-8 -35,-23 -9,-15 -13,-37 -13,-65 0,-29 4,-51 13,-67 9,-16 20,-24 34,-24 13,0 24,8 33,23 8,15 13,37 13,65 0,2 0,4 0,8l-74 0c1,19 4,33 9,43 6,10 13,15 21,15 6,0 11,-3 16,-8 4,-6 8,-14 10,-27zm-56 -47l56 0c-1,-14 -3,-25 -6,-32 -5,-11 -12,-17 -21,-17 -8,0 -14,4 -20,13 -5,9 -8,21 -9,36z"/>
  <path id="123" fill="#373435" fill-rule="nonzero" d="M2331 1918l-2 -27c4,2 7,3 10,3 4,0 7,-1 9,-3 2,-2 4,-5 6,-9 1,-3 3,-10 5,-21 0,-2 1,-4 2,-7l-38 -171 18 0 21 99c3,13 5,26 7,39 2,-13 4,-26 7,-39l21 -99 17 0 -38 173c-4,19 -7,32 -10,39 -3,10 -6,16 -10,21 -4,4 -9,7 -14,7 -3,0 -7,-1 -11,-4z"/>
  <path id="1234" fill="#373435" fill-rule="nonzero" d="M2484 1852l0 -235 27 0 33 166c3,15 5,27 7,35 2,-9 4,-21 7,-38l33 -164 25 0 0 235 -18 0 0 -197 -40 197 -16 0 -40 -200 0 200 -18 0z"/>
  <path id="12345" fill="#373435" fill-rule="nonzero" d="M2711 1797l17 4c-3,17 -8,31 -15,41 -7,10 -17,14 -29,14 -15,0 -26,-8 -35,-23 -9,-15 -13,-37 -13,-65 0,-29 4,-51 13,-67 9,-16 20,-24 34,-24 13,0 24,8 33,23 8,15 13,37 13,65 0,2 0,4 0,8l-74 0c1,19 4,33 9,43 6,10 13,15 21,15 6,0 11,-3 16,-8 4,-6 8,-14 10,-27zm-56 -47l56 0c-1,-14 -3,-25 -6,-32 -5,-11 -12,-17 -21,-17 -8,0 -14,4 -20,13 -5,9 -8,21 -9,36z"/>
  <polygon id="123456" fill="#373435" fill-rule="nonzero" points="2749,1852 2749,1617 2766,1617 2766,1852 "/>
  <path id="1234567" fill="#373435" fill-rule="nonzero" d="M2858 1831c-6,9 -12,15 -18,19 -6,4 -12,6 -19,6 -11,0 -19,-5 -25,-14 -6,-9 -9,-21 -9,-35 0,-8 1,-16 3,-23 2,-7 5,-12 9,-17 4,-4 8,-7 12,-9 3,-1 8,-3 15,-4 14,-3 24,-6 30,-10 0,-4 0,-6 0,-7 0,-12 -2,-20 -5,-25 -4,-7 -11,-10 -19,-10 -8,0 -14,2 -18,7 -4,5 -7,13 -8,25l-17 -4c2,-12 4,-22 7,-29 3,-7 8,-13 15,-17 7,-4 14,-6 23,-6 9,0 15,2 21,5 5,3 9,8 12,13 3,5 4,12 5,20 1,5 1,14 1,27l0 38c0,27 0,44 1,51 1,7 2,14 4,20l-18 0c-2,-6 -3,-13 -3,-21zm-1 -64c-6,4 -15,8 -28,11 -7,2 -12,4 -15,6 -3,2 -5,5 -7,9 -2,4 -2,9 -2,14 0,8 2,14 5,19 3,5 8,8 15,8 7,0 12,-2 17,-7 5,-5 9,-12 11,-20 2,-7 3,-16 3,-29l0 -11z"/>
  <path id="12345678" fill="#373435" fill-rule="nonzero" d="M2899 1852l0 -170 15 0 0 24c7,-19 18,-28 32,-28 6,0 12,2 17,6 5,4 9,9 11,15 3,6 4,13 5,21 1,5 1,15 1,28l0 105 -17 0 0 -104c0,-12 -1,-21 -2,-26 -1,-6 -4,-10 -7,-14 -3,-4 -7,-5 -12,-5 -7,0 -13,4 -19,12 -5,8 -8,23 -8,44l0 93 -17 0z"/>
  <path id="123456789" fill="#373435" fill-rule="nonzero" d="M3003 1866l16 4c1,9 3,15 6,19 4,5 10,8 17,8 8,0 14,-3 18,-8 4,-5 7,-13 9,-22 1,-6 1,-18 1,-37 -7,15 -17,22 -28,22 -14,0 -24,-8 -32,-25 -8,-17 -11,-37 -11,-61 0,-16 2,-31 5,-45 3,-14 8,-24 15,-32 7,-7 14,-11 23,-11 12,0 22,8 29,24l0 -21 16 0 0 147c0,26 -2,45 -5,56 -3,11 -8,20 -15,26 -7,6 -15,10 -25,10 -12,0 -22,-5 -29,-14 -7,-9 -11,-23 -11,-41zm14 -102c0,22 3,39 8,49 5,10 12,15 20,15 8,0 14,-5 20,-15 5,-10 8,-26 8,-48 0,-21 -3,-37 -8,-47 -5,-11 -12,-16 -20,-16 -8,0 -14,5 -19,16 -5,10 -8,26 -8,46z"/>
  <path id="12345678910" fill="#373435" fill-rule="nonzero" d="M3182 1797l17 4c-3,17 -8,31 -15,41 -7,10 -17,14 -29,14 -15,0 -26,-8 -35,-23 -9,-15 -13,-37 -13,-65 0,-29 4,-51 13,-67 9,-16 20,-24 34,-24 13,0 24,8 33,23 8,15 13,37 13,65 0,2 0,4 0,8l-74 0c1,19 4,33 9,43 6,10 13,15 21,15 6,0 11,-3 16,-8 4,-6 8,-14 10,-27zm-56 -47l56 0c-1,-14 -3,-25 -6,-32 -5,-11 -12,-17 -21,-17 -8,0 -14,4 -20,13 -5,9 -8,21 -9,36z"/>
  <polygon id="1234567891011" fill="#373435" fill-rule="nonzero" points="3208,1856 3248,1613 3262,1613 3222,1856 "/>
  <path id="123456789101112" fill="#373435" fill-rule="nonzero" d="M3276 1852l0 -235 52 0c9,0 16,1 21,2 7,2 12,6 17,11 5,5 8,13 11,23 3,10 4,20 4,32 0,20 -4,37 -11,51 -7,14 -21,21 -40,21l-35 0 0 96 -18 0zm18 -123l36 0c12,0 20,-4 25,-11 5,-7 7,-18 7,-32 0,-10 -1,-18 -4,-25 -3,-7 -7,-12 -12,-14 -3,-1 -9,-2 -17,-2l-35 0 0 84z"/>
  <path id="12345678910111213" fill="#373435" fill-rule="nonzero" d="M3403 1650l0 -33 17 0 0 33 -17 0zm0 202l0 -170 17 0 0 170 -17 0z"/>
  <path id="1234567891011121314" fill="#373435" fill-rule="nonzero" d="M3446 1852l0 -170 15 0 0 24c7,-19 18,-28 32,-28 6,0 12,2 17,6 5,4 9,9 11,15 3,6 4,13 5,21 1,5 1,15 1,28l0 105 -17 0 0 -104c0,-12 -1,-21 -2,-26 -1,-6 -4,-10 -7,-14 -3,-4 -7,-5 -12,-5 -7,0 -13,4 -19,12 -5,8 -8,23 -8,44l0 93 -17 0z"/>
  <polygon id="123456789101112131415" fill="#373435" fill-rule="nonzero" points="3553,1852 3553,1617 3570,1617 3570,1751 3610,1682 3632,1682 3594,1745 3636,1852 3615,1852 3582,1765 3570,1785 3570,1852 "/>
  <path fill="#373435" fill-rule="nonzero" d="M2012 2275l0 -235 49 0c10,0 18,2 24,7 6,5 11,12 14,22 3,10 5,20 5,31 0,10 -2,19 -5,28 -3,9 -8,16 -14,22 8,4 14,11 18,21 4,10 6,22 6,36 0,11 -1,21 -4,31 -3,9 -6,17 -9,22 -4,5 -9,9 -14,12 -6,3 -13,4 -21,4l-49 0zm17 -136l28 0c8,0 13,-1 16,-3 4,-2 8,-6 10,-12 2,-5 3,-12 3,-21 0,-8 -1,-15 -3,-21 -2,-6 -5,-10 -9,-12 -4,-2 -10,-3 -20,-3l-26 0 0 71zm0 109l32 0c6,0 9,0 12,-1 4,-1 7,-3 10,-6 3,-3 5,-7 7,-13 2,-6 3,-12 3,-20 0,-9 -1,-16 -4,-23 -2,-6 -6,-11 -10,-14 -4,-3 -11,-4 -19,-4l-30 0 0 81z"/>
  <path id="1" fill="#373435" fill-rule="nonzero" d="M2192 2275l0 -25c-7,19 -17,29 -30,29 -6,0 -11,-2 -15,-6 -5,-4 -8,-9 -11,-15 -2,-6 -4,-13 -5,-21 -1,-6 -1,-15 -1,-27l0 -105 16 0 0 94c0,15 0,25 1,30 1,8 3,14 6,18 3,4 7,6 12,6 5,0 9,-2 13,-7 4,-4 7,-11 9,-18 2,-8 3,-19 3,-33l0 -91 16 0 0 170 -14 0z"/>
  <path id="12" fill="#373435" fill-rule="nonzero" d="M2231 2275l0 -170 14 0 0 26c4,-12 7,-20 10,-24 3,-4 6,-6 10,-6 5,0 11,3 16,9l-5 27c-4,-4 -8,-6 -12,-6 -3,0 -7,2 -9,6 -3,4 -5,9 -6,16 -2,10 -3,21 -3,34l0 89 -16 0z"/>
  <path id="123" fill="#373435" fill-rule="nonzero" d="M2289 2289l15 4c1,9 2,15 5,19 4,5 9,8 16,8 7,0 13,-3 17,-8 4,-5 7,-13 8,-22 1,-6 1,-18 1,-37 -7,15 -16,22 -26,22 -13,0 -23,-8 -30,-25 -7,-17 -11,-37 -11,-61 0,-16 2,-31 5,-45 3,-14 8,-24 14,-32 6,-7 13,-11 22,-11 11,0 20,8 27,24l0 -21 15 0 0 147c0,26 -2,45 -4,56 -3,11 -8,20 -14,26 -6,6 -14,10 -24,10 -11,0 -20,-5 -27,-14 -7,-9 -10,-23 -10,-41zm13 -102c0,22 2,39 7,49 5,10 11,15 18,15 7,0 13,-5 18,-15 5,-10 7,-26 7,-48 0,-21 -3,-37 -8,-47 -5,-11 -11,-16 -18,-16 -7,0 -13,5 -18,16 -5,10 -7,26 -7,46z"/>
  <path id="1234" fill="#373435" fill-rule="nonzero" d="M2454 2275l0 -25c-7,19 -17,29 -30,29 -6,0 -11,-2 -15,-6 -5,-4 -8,-9 -11,-15 -2,-6 -4,-13 -5,-21 -1,-6 -1,-15 -1,-27l0 -105 16 0 0 94c0,15 0,25 1,30 1,8 3,14 6,18 3,4 7,6 12,6 5,0 9,-2 13,-7 4,-4 7,-11 9,-18 2,-8 3,-19 3,-33l0 -91 16 0 0 170 -14 0z"/>
  <path id="12345" fill="#373435" fill-rule="nonzero" d="M2493 2275l0 -170 14 0 0 24c7,-19 17,-28 30,-28 6,0 11,2 16,6 5,4 8,9 11,15 2,6 4,13 5,21 1,5 1,15 1,28l0 105 -16 0 0 -104c0,-12 -1,-21 -2,-26 -1,-6 -3,-10 -7,-14 -3,-4 -7,-5 -11,-5 -7,0 -13,4 -18,12 -5,8 -7,23 -7,44l0 93 -16 0z"/>
  <path id="123456" fill="#373435" fill-rule="nonzero" d="M2654 2275l0 -22c-6,17 -15,25 -26,25 -7,0 -14,-4 -21,-11 -6,-7 -11,-18 -15,-31 -3,-13 -5,-29 -5,-46 0,-17 2,-32 5,-46 3,-14 8,-24 14,-32 6,-7 13,-11 21,-11 6,0 11,2 15,7 4,4 8,10 11,17l0 -84 16 0 0 235 -15 0zm-50 -85c0,22 3,38 8,49 5,11 11,16 18,16 7,0 13,-5 18,-15 5,-10 7,-26 7,-47 0,-23 -2,-40 -7,-51 -5,-11 -11,-16 -18,-16 -7,0 -13,5 -18,16 -5,10 -7,27 -7,50z"/>
  <path id="1234567" fill="#373435" fill-rule="nonzero" d="M2694 2341l-2 -27c3,2 7,3 9,3 4,0 6,-1 8,-3 2,-2 4,-5 5,-9 1,-3 3,-10 5,-21 0,-2 1,-4 1,-7l-36 -171 17 0 20 99c3,13 5,26 7,39 2,-13 4,-26 7,-39l20 -99 16 0 -36 173c-4,19 -7,32 -9,39 -3,10 -6,16 -10,21 -4,4 -8,7 -13,7 -3,0 -6,-1 -10,-4z"/>
  <polygon id="12345678" fill="#373435" fill-rule="nonzero" points="2773,2279 2810,2036 2823,2036 2786,2279 "/>
  <polygon id="123456789" fill="#373435" fill-rule="nonzero" points="2837,2275 2837,2040 2854,2040 2922,2224 2922,2040 2939,2040 2939,2275 2921,2275 2853,2090 2853,2275 "/>
  <path id="12345678910" fill="#373435" fill-rule="nonzero" d="M3027 2254c-6,9 -12,15 -17,19 -5,4 -11,6 -18,6 -10,0 -18,-5 -24,-14 -6,-9 -8,-21 -8,-35 0,-8 1,-16 3,-23 2,-7 5,-12 8,-17 3,-4 7,-7 11,-9 3,-1 8,-3 14,-4 13,-3 22,-6 28,-10 0,-4 0,-6 0,-7 0,-12 -2,-20 -5,-25 -4,-7 -10,-10 -18,-10 -7,0 -13,2 -17,7 -4,5 -6,13 -8,25l-16 -4c1,-12 4,-22 7,-29 3,-7 8,-13 14,-17 6,-4 13,-6 21,-6 8,0 14,2 20,5 5,3 9,8 11,13 2,5 4,12 5,20 1,5 1,14 1,27l0 38c0,27 0,44 1,51 1,7 2,14 4,20l-17 0c-2,-6 -3,-13 -3,-21zm-1 -64c-6,4 -14,8 -26,11 -7,2 -11,4 -14,6 -3,2 -5,5 -6,9 -1,4 -2,9 -2,14 0,8 2,14 5,19 3,5 8,8 14,8 6,0 12,-2 16,-7 5,-5 8,-12 11,-20 2,-7 3,-16 3,-29l0 -11z"/>
  <path id="1234567891011" fill="#373435" fill-rule="nonzero" d="M3092 2275l-36 -170 17 0 20 102c2,11 4,22 6,34 1,-9 3,-20 6,-32l21 -104 16 0 -36 170 -15 0z"/>
  <path id="123456789101112" fill="#373435" fill-rule="nonzero" d="M3156 2341l-2 -27c3,2 7,3 9,3 4,0 6,-1 8,-3 2,-2 4,-5 5,-9 1,-3 3,-10 5,-21 0,-2 1,-4 1,-7l-36 -171 17 0 20 99c3,13 5,26 7,39 2,-13 4,-26 7,-39l20 -99 16 0 -36 173c-4,19 -7,32 -9,39 -3,10 -6,16 -10,21 -4,4 -8,7 -13,7 -3,0 -6,-1 -10,-4z"/>
  <path id="12345678910111213" fill="#373435" fill-rule="nonzero" d="M3299 2275l0 -235 49 0c10,0 18,2 24,7 6,5 11,12 14,22 3,10 5,20 5,31 0,10 -2,19 -5,28 -3,9 -8,16 -14,22 8,4 14,11 18,21 4,10 6,22 6,36 0,11 -1,21 -4,31 -3,9 -6,17 -9,22 -4,5 -9,9 -14,12 -6,3 -13,4 -21,4l-49 0zm17 -136l28 0c8,0 13,-1 16,-3 4,-2 8,-6 10,-12 2,-5 3,-12 3,-21 0,-8 -1,-15 -3,-21 -2,-6 -5,-10 -9,-12 -4,-2 -10,-3 -20,-3l-26 0 0 71zm0 109l32 0c6,0 9,0 12,-1 4,-1 7,-3 10,-6 3,-3 5,-7 7,-13 2,-6 3,-12 3,-20 0,-9 -1,-16 -4,-23 -2,-6 -6,-11 -10,-14 -4,-3 -11,-4 -19,-4l-30 0 0 81z"/>
  <polygon id="1234567891011121314" fill="#373435" fill-rule="nonzero" points="3418,2275 3418,2040 3434,2040 3434,2275 "/>
  <path id="123456789101112131415" fill="#373435" fill-rule="nonzero" d="M3520 2275l0 -25c-7,19 -17,29 -30,29 -6,0 -11,-2 -15,-6 -5,-4 -8,-9 -11,-15 -2,-6 -4,-13 -5,-21 -1,-6 -1,-15 -1,-27l0 -105 16 0 0 94c0,15 0,25 1,30 1,8 3,14 6,18 3,4 7,6 12,6 5,0 9,-2 13,-7 4,-4 7,-11 9,-18 2,-8 3,-19 3,-33l0 -91 16 0 0 170 -14 0z"/>
  <path id="12345678910111213141516" fill="#373435" fill-rule="nonzero" d="M3623 2220l16 4c-3,17 -7,31 -14,41 -7,10 -16,14 -27,14 -14,0 -25,-8 -33,-23 -8,-15 -12,-37 -12,-65 0,-29 4,-51 12,-67 8,-16 19,-24 32,-24 13,0 23,8 31,23 8,15 12,37 12,65 0,2 0,4 0,8l-70 0c1,19 3,33 9,43 5,10 12,15 20,15 6,0 11,-3 15,-8 4,-6 7,-14 10,-27zm-52 -47l52 0c-1,-14 -3,-25 -6,-32 -5,-11 -12,-17 -20,-17 -7,0 -13,4 -18,13 -5,9 -8,21 -8,36z"/>
  <g>
   <line fill="none" stroke="#A6192E" stroke-width="31.31" stroke-linecap="round" stroke-linejoin="round" stroke-dasharray="62.619907 93.929861" x1="1995" y1="1408" x2="1995" y2= "953" />
  </g>
  <g>
   <line fill="none" stroke="#A6192E" stroke-width="31.31" stroke-linecap="round" stroke-linejoin="round" stroke-dasharray="62.619907 93.929861" x1="3643" y1="1408" x2="1995" y2= "1408" />
  </g>
  <g>
   <line fill="none" stroke="#06A190" stroke-width="31.31" stroke-linecap="round" stroke-linejoin="round" stroke-dasharray="62.619907 93.929861" x1="3643" y1="953" x2="3643" y2= "1408" />
  </g>
  <g>
   <line fill="none" stroke="#A6192E" stroke-width="31.31" stroke-linecap="round" stroke-linejoin="round" stroke-dasharray="62.619907 93.929861" x1="1995" y1="953" x2="3643" y2= "953" />
  </g>
 </g>
</svg>
