<?xml version="1.0" encoding="UTF-8"?>
<!DOCTYPE svg PUBLIC "-//W3C//DTD SVG 1.1//EN" "http://www.w3.org/Graphics/SVG/1.1/DTD/svg11.dtd">
<!-- Creator: CorelDRAW X5 -->
<svg xmlns="http://www.w3.org/2000/svg" xml:space="preserve" width="5in" height="2.71646in" shape-rendering="geometricPrecision" text-rendering="geometricPrecision" image-rendering="optimizeQuality" fill-rule="evenodd" clip-rule="evenodd"
viewBox="0 0 7523 4087"
 xmlns:xlink="http://www.w3.org/1999/xlink">
 <g id="Layer_x0020_1">
  <metadata id="CorelCorpID_0Corel-Layer"/>
  <g id="_309879400">
   <path fill="#06A190" d="M7437 0l-133 0 0 20c-21,16 -28,3 -52,9 -8,2 -13,8 -21,11 -23,10 -29,5 -29,39 0,12 -1,19 1,30 3,14 46,24 53,24 27,1 43,-25 93,29 30,32 14,106 17,182 2,47 15,79 65,68 30,-59 28,-15 36,-85 2,-19 1,-127 1,-148 -1,-33 -2,-62 -3,-96 -1,-72 -29,-29 -29,-83zm-224 4087l143 0 0 -19c37,-21 27,3 77,-20 31,-10 65,-34 56,-93 -7,-33 -6,-80 -12,-116l-7 -57c-2,-19 -6,-38 -7,-58 -15,0 -25,4 -40,10 -5,2 -6,3 -8,10 -10,29 -3,68 -7,94 -1,10 -4,8 -4,24 -1,26 -2,45 -20,59 -6,5 0,0 -6,4l-12 8c-1,0 -2,1 -2,1l-26 17c-13,4 13,-1 -5,1 -9,1 -109,-9 -125,-4l-11 9c-9,6 -26,13 -36,16l1 42c2,21 16,13 33,30 20,19 18,24 18,43zm251 -1446c-5,-17 4,-12 4,-12 -3,-4 -3,-2 0,-6 0,0 1,-2 1,-2 0,0 1,-1 2,-2 -5,-16 -2,-6 3,-9l-1 -2c-2,-33 -2,-112 2,-143 7,-59 10,-142 8,-204 -1,-18 -8,-43 -11,-60 -6,-31 -1,-34 -31,-39 -28,-5 -38,0 -63,2 -19,23 -11,91 -10,124 3,66 0,225 6,270 2,17 11,29 23,46 5,8 8,12 13,20 5,10 6,28 48,19l7 -2zm59 -1657l0 -244c-27,0 -27,-1 -41,-25 -6,-10 -14,-14 -21,-25 -8,0 -31,0 -37,2 -10,3 -12,10 -18,17 0,6 1,4 -5,1 6,20 1,-11 0,6 0,2 -2,1 -3,1 7,20 1,-11 0,6 0,2 -2,1 -3,1 5,22 -27,25 -8,137 3,19 6,109 -4,129 -5,9 0,12 -8,9 7,81 0,40 19,76 14,28 14,32 53,24l10 -3 6 -8c0,0 2,-6 2,-8l13 -36c8,-19 16,-47 24,-61l21 0zm-158 497c-3,26 3,91 -1,109 4,3 1,-4 5,8 15,48 -16,263 12,282 7,5 38,10 49,9 40,-4 41,-13 43,-75 1,-42 3,-79 8,-117 6,-53 7,-182 -16,-221 -6,-10 -25,-19 -37,-24 -16,-6 -29,4 -47,6l-16 23zm108 1821c0,-79 10,-320 -23,-359 -12,-15 -22,-16 -28,-40l-46 1c-15,69 -15,26 -13,119 1,22 5,38 6,60 0,22 0,44 1,66 0,14 3,80 7,93 1,4 8,14 12,20 15,31 18,74 20,117l14 16 43 1c15,-33 10,-44 10,-94z"/>
   <path fill="#A6192E" d="M0 2800l0 185 24 0c10,45 18,110 22,160 3,32 -8,101 23,111 16,5 32,10 43,3 0,0 1,-1 2,-1 1,0 1,-1 2,-1 34,-20 39,-8 38,-89 0,-48 1,-98 1,-146 1,-203 -18,-129 -32,-186 -2,-9 -12,-51 -19,-58l-5 -2c-20,-5 15,3 -6,-1 -2,0 -9,-2 -11,-2 -10,-2 -16,-1 -26,-1 -14,19 -32,27 -57,27zm108 -494c-2,-7 -3,-6 3,-3 -1,-7 -5,-13 4,-9 -3,-18 4,-21 7,-34 2,-10 3,-24 5,-35 1,-7 15,-61 23,-58 -2,-8 -2,-8 0,-18 1,-5 1,-7 2,-9 3,-9 2,-3 5,-7l-1 -23c-4,-38 3,-154 1,-219l-9 -63c-31,-17 -25,-26 -42,-49l-41 1c-8,10 -17,38 -19,50 -1,3 -1,11 -1,15 -2,59 2,87 3,146 0,42 -3,74 -7,113 -2,19 -8,32 -9,50 -1,11 -1,46 -10,55 -4,5 -4,3 -21,3l0 56 21 0c23,36 23,45 59,43 5,0 11,0 16,-1l12 -2zm10 -1933c-3,-10 -3,-4 3,-6 -1,-6 -3,-7 -1,-16 5,-22 1,-7 8,-11 -3,-13 7,-37 15,-45l5 -4c0,-16 4,-76 7,-96 8,-47 42,-34 100,-56 15,-5 28,-4 45,-7l89 -17 -3 2c22,-30 -22,14 11,-11l1 -44c-9,-5 -20,-11 -28,-17 -12,-9 -9,-12 -26,-15 -46,-9 -29,-2 -65,7 -33,8 -119,23 -154,13 -19,15 -25,-8 -60,37 -11,14 -9,66 -11,88 -2,32 -1,65 -1,97 1,108 -28,100 49,118 3,-4 3,-6 5,-9 10,-14 1,-4 10,-7zm204 3615c-2,-38 2,-47 -11,-57 -3,-2 -3,-1 -6,-4 0,0 -1,-2 -1,-2 0,1 -1,-1 -1,-2 -5,1 -3,4 -13,1 -14,-4 -3,-2 -8,-8l1 2c-30,-1 -81,-18 -93,-47 -8,-18 -16,-26 -22,-47 -3,-11 -5,-16 -8,-29l-2 -8c0,-1 0,-5 -1,-6 -4,-33 -1,-61 -9,-77 -19,-36 -67,-45 -89,-24 -7,6 -8,12 -12,21 -15,33 -15,6 -7,48 2,9 1,18 3,27 3,18 6,37 7,55 4,40 6,74 10,114 13,10 12,11 20,28 11,24 33,32 57,38 13,3 23,-2 35,-5 27,-7 54,5 81,7 33,3 55,-21 68,-25zm6374 61c40,0 75,-4 106,-25l-1 -43c-36,-30 -238,3 -325,-32 -22,-9 2,-6 -46,-17 -27,-7 -90,-8 -116,2 -21,7 -23,12 -27,37 -8,42 21,59 59,66 19,3 32,10 52,13 20,2 37,7 55,10 16,2 164,3 180,-4 19,-8 39,-6 63,-6zm-1947 -20l-9 -8 0 -44c24,-21 18,-7 76,-17 81,-15 5,-24 178,-31 89,-3 188,-22 252,8 -1,36 -5,38 -41,69 -38,32 -76,23 -125,23 -13,0 -21,2 -35,3 -37,1 -262,-1 -296,-4zm-1892 0l9 -8 0 -44c-24,-21 -18,-7 -76,-17 -81,-15 -5,-24 -178,-31 -89,-3 -188,-22 -252,8 1,36 5,38 41,69 38,32 76,23 125,23 13,0 21,2 35,3 37,1 262,-1 296,-4zm-2743 -3174l3 2c-7,-5 -2,1 -8,-13 -2,-4 -2,-4 -4,-8 -20,2 -33,13 -44,25 -5,6 0,1 -6,5 0,1 1,2 1,3 0,1 -1,1 -1,2 0,2 -2,1 -3,2 6,37 -23,113 -23,164 1,59 -6,190 10,237 5,15 11,31 18,40l38 2c11,-1 -5,1 6,-1 1,0 2,-2 2,-1 3,6 8,-26 8,-28 2,-11 3,-15 4,-27 6,-83 23,-164 23,-235 0,-27 -5,-31 -7,-56 -2,-38 -21,-72 -19,-113zm4138 -805c-45,-1 -80,-10 -122,-10 -97,0 -64,13 -109,23l-3 45c11,8 11,5 24,11 8,4 13,9 19,13 8,5 18,4 27,8 14,5 5,6 24,7 40,3 87,2 128,5 42,4 85,2 129,0 38,-2 24,-3 50,-16 8,-4 15,-5 21,-11 5,-5 10,-12 15,-17 -6,-13 -12,-36 -25,-43 -10,-6 -40,-8 -55,-9 -40,-3 -85,-6 -125,-7zm-2501 0c-45,-1 -80,-10 -122,-10 -97,0 -64,13 -109,23l-3 45c11,8 11,5 24,11 8,4 13,9 19,13 8,5 18,4 27,8 14,5 5,6 24,7 40,3 87,2 128,5 42,4 85,2 129,0 38,-2 24,-3 50,-16 8,-4 15,-5 21,-11 5,-5 10,-12 15,-17 -6,-13 -12,-36 -25,-43 -10,-6 -40,-8 -55,-9 -40,-3 -85,-6 -125,-7zm1941 59c1,-13 -1,-25 -3,-34 -3,-16 -5,-12 -23,-13 -23,-2 -43,-4 -67,-4 -48,0 -91,-3 -138,-3 -48,1 -91,1 -138,4 -59,4 -59,23 -92,47 25,28 59,42 97,46 44,5 97,1 142,2 94,0 59,-13 116,-20 20,-2 92,-14 106,-26zm-2501 0c1,-13 -1,-25 -3,-34 -3,-16 -5,-12 -23,-13 -23,-2 -43,-4 -67,-4 -48,0 -91,-3 -138,-3 -48,1 -91,1 -138,4 -59,4 -59,23 -92,47 25,28 59,42 97,46 44,5 97,1 142,2 94,0 59,-13 116,-20 20,-2 92,-14 106,-26zm3759 47c-4,-4 8,-1 -10,-5 -4,-1 -6,-1 -11,-2 -9,-2 -13,-4 -23,-7 -15,-4 -30,-9 -47,-12 -18,-3 -31,-5 -48,-10 -19,-5 -36,-8 -44,-16 27,-5 120,-21 143,-29 22,-8 35,-2 42,-15 18,2 85,-4 104,-6 30,2 71,0 101,-1 27,-1 72,8 93,2 -3,7 -3,5 5,2 3,19 2,31 1,51 -18,14 -60,16 -78,33 -16,16 -14,8 -20,15 -22,-3 -74,3 -104,2 -31,-1 -75,-8 -104,-2zm-2294 0c4,-4 -8,-1 10,-5 4,-1 6,-1 11,-2 9,-2 13,-4 23,-7 15,-4 30,-9 47,-12 18,-3 31,-5 48,-10 19,-5 36,-8 44,-16 -27,-5 -120,-21 -143,-29 -22,-8 -35,-2 -42,-15 -18,2 -85,-4 -104,-6 -30,2 -71,0 -101,-1 -27,-1 -72,8 -93,2 3,7 3,5 -5,2 -3,19 -2,31 -1,51 18,14 60,16 78,33 16,16 14,8 20,15 22,-3 74,3 104,2 31,-1 75,-8 104,-2zm1750 3824l-1 -44c-31,-19 -172,-9 -220,-9 -31,0 -142,-6 -162,13 -5,5 -20,33 -22,41 3,7 16,39 21,42 25,20 146,7 176,3 21,-3 29,-8 46,-14 16,-6 36,-8 53,-12 36,-8 81,-3 110,-19zm-2501 0l-1 -44c-31,-19 -172,-9 -220,-9 -31,0 -142,-6 -162,13 -5,5 -20,33 -22,41 3,7 16,39 21,42 25,20 146,7 175,3 21,-3 29,-8 46,-14 16,-6 36,-8 53,-12 36,-8 81,-3 110,-19zm1617 49l2 3c5,-7 -1,-2 8,-5 8,-3 -2,-2 7,1 7,-10 45,-23 54,-50 -37,-13 -60,-16 -110,-16 -42,0 -83,0 -125,0 -45,-1 -142,-9 -182,2 -50,13 -43,5 -42,58 16,14 10,10 36,17l10 4c1,0 1,1 2,1 34,17 97,0 131,-3 35,-3 65,-8 103,-6 10,0 19,1 29,0l77 -5zm-2501 0l2 3c5,-7 -1,-2 8,-5 8,-3 -2,-2 7,1 7,-10 45,-23 54,-50 -37,-13 -60,-16 -110,-16 -42,0 -83,0 -125,0 -45,-1 -142,-9 -182,2 -50,13 -43,5 -42,58 16,14 10,10 36,17l10 4c1,0 1,1 2,1 34,17 97,0 131,-3 35,-3 65,-8 103,-6 10,0 19,1 29,0l77 -5zm4761 6c35,0 81,-7 112,-10 3,-9 6,-15 10,-22 2,-4 2,-5 5,-8 9,-9 0,-1 10,-6 3,-16 -2,-13 -33,-19l-162 -10c-37,-1 -70,-4 -109,-4l-102 9c-5,9 1,2 -8,5 -7,2 2,2 -7,-1l-8 10 -4 44c16,10 6,7 31,12 109,20 184,-5 265,0zm180 -3928c2,-23 -18,-23 -36,-46 -33,-2 -59,-6 -95,-6 -48,-1 -131,-7 -173,1l-20 6c-36,12 -32,79 13,91 32,8 139,3 172,-2 19,-3 39,-13 59,-19 15,-5 70,-15 80,-24zm577 -46c-6,2 -1,4 -10,2 -9,-3 -3,0 -8,-6l-38 0c-17,18 -6,-2 -33,25 -9,9 -23,18 -29,26 15,25 15,42 40,50 44,14 110,7 146,6 41,-1 78,3 117,-6 56,-12 25,0 59,-35 8,-8 10,-7 14,-19 -69,-32 -192,-6 -251,-38 -9,-5 -2,4 -6,-5z"/>
  </g>
  <path fill="#00AFEF" d="M1680 1025l33 0 0 1902 -33 0 0 -1902zm90 0l33 0 0 1902 -33 0 0 -1902zm90 0l76 0 0 1902 -76 0 0 -1902zm133 0l120 0 0 1902 -120 0 0 -1902zm176 0l76 0 0 1488 -76 0 0 -1488zm133 0l123 0 0 1488 -123 0 0 -1488zm176 0l80 0 0 1488 -80 0 0 -1488zm133 0l123 0 0 1488 -123 0 0 -1488zm179 0l166 0 0 1488 -166 0 0 -1488zm219 0l33 0 0 1488 -33 0 0 -1488zm179 0l33 0 0 1488 -33 0 0 -1488zm86 0l80 0 0 1488 -80 0 0 -1488zm133 0l166 0 0 1488 -166 0 0 -1488zm223 0l33 0 0 1488 -33 0 0 -1488zm90 0l33 0 0 1902 -33 0 0 -1902zm86 0l33 0 0 1902 -33 0 0 -1902zm90 0l33 0 0 1488 -33 0 0 -1488zm223 0l33 0 0 1488 -33 0 0 -1488zm86 0l33 0 0 1488 -33 0 0 -1488zm133 0l33 0 0 1488 -33 0 0 -1488zm179 0l33 0 0 1488 -33 0 0 -1488zm133 0l120 0 0 1488 -120 0 0 -1488zm176 0l76 0 0 1488 -76 0 0 -1488zm133 0l76 0 0 1488 -76 0 0 -1488zm176 0l33 0 0 1488 -33 0 0 -1488zm133 0l123 0 0 1488 -123 0 0 -1488zm179 0l76 0 0 1902 -76 0 0 -1902zm133 0l76 0 0 1902 -76 0 0 -1902zm176 0l33 0 0 1902 -33 0 0 -1902zm90 0l33 0 0 1902 -33 0 0 -1902z"/>
  <path fill="black" d="M1674 1025l33 0 0 1962 -33 0 0 -1962zm90 0l33 0 0 1962 -33 0 0 -1962zm90 0l77 0 0 1962 -77 0 0 -1962zm133 0l120 0 0 1962 -120 0 0 -1962zm177 0l77 0 0 1564 -77 0 0 -1564zm133 0l123 0 0 1564 -123 0 0 -1564zm177 0l80 0 0 1564 -80 0 0 -1564zm133 0l123 0 0 1564 -123 0 0 -1564zm180 0l167 0 0 1564 -167 0 0 -1564zm220 0l33 0 0 1564 -33 0 0 -1564zm180 0l33 0 0 1564 -33 0 0 -1564zm87 0l80 0 0 1564 -80 0 0 -1564zm133 0l167 0 0 1564 -167 0 0 -1564zm223 0l33 0 0 1564 -33 0 0 -1564zm90 0l33 0 0 1962 -33 0 0 -1962zm87 0l33 0 0 1962 -33 0 0 -1962zm90 0l33 0 0 1564 -33 0 0 -1564zm223 0l33 0 0 1564 -33 0 0 -1564zm87 0l33 0 0 1564 -33 0 0 -1564zm133 0l33 0 0 1564 -33 0 0 -1564zm180 0l33 0 0 1564 -33 0 0 -1564zm87 0l123 0 0 1564 -123 0 0 -1564zm223 0l123 0 0 1564 -123 0 0 -1564zm223 0l33 0 0 1564 -33 0 0 -1564zm87 0l123 0 0 1564 -123 0 0 -1564zm180 0l33 0 0 1564 -33 0 0 -1564zm133 0l33 0 0 1962 -33 0 0 -1962zm133 0l120 0 0 1962 -120 0 0 -1962zm177 0l33 0 0 1962 -33 0 0 -1962zm90 0l33 0 0 1962 -33 0 0 -1962z"/>
  <path fill="black" fill-rule="nonzero" d="M5997 2930l36 -3c3,18 9,31 19,40 10,9 22,13 35,13 17,0 31,-6 42,-19 11,-13 17,-29 17,-50 0,-20 -5,-35 -17,-46 -11,-11 -25,-17 -43,-17 -11,0 -21,3 -30,8 -9,5 -16,12 -21,20l-32 -4 27 -144 139 0 0 33 -112 0 -15 75c17,-12 35,-18 53,-18 24,0 45,8 62,25 17,17 25,39 25,65 0,25 -7,47 -22,66 -18,23 -43,34 -74,34 -26,0 -46,-7 -62,-21 -16,-14 -25,-33 -28,-57z"/>
  <path fill="#373435" fill-rule="nonzero" d="M1424 2854c-14,-5 -25,-13 -32,-22 -7,-10 -10,-21 -10,-35 0,-20 7,-38 22,-51 15,-14 34,-21 58,-21 24,0 44,7 59,21 15,14 22,32 22,52 0,13 -3,24 -10,34 -7,10 -17,17 -31,22 17,6 30,15 39,27 9,12 13,27 13,45 0,24 -8,44 -25,60 -17,16 -39,24 -67,24 -28,0 -50,-8 -67,-25 -17,-16 -25,-37 -25,-61 0,-18 5,-33 14,-46 9,-12 22,-21 40,-25zm-7 -58c0,13 4,24 13,33 9,8 20,13 33,13 13,0 24,-4 33,-13 8,-8 13,-19 13,-31 0,-13 -4,-23 -13,-32 -9,-9 -20,-13 -33,-13 -13,0 -24,4 -33,13 -9,8 -13,19 -13,30zm-11 130c0,10 2,19 7,28 5,9 12,16 21,21 9,5 19,8 30,8 16,0 30,-5 41,-16 11,-11 16,-24 16,-40 0,-17 -5,-30 -17,-41 -11,-11 -25,-16 -41,-16 -16,0 -30,5 -40,16 -11,11 -16,24 -16,40z"/>
  <path fill="#373435" fill-rule="nonzero" d="M2217 2854c-14,-5 -25,-13 -32,-22 -7,-10 -10,-21 -10,-35 0,-20 7,-38 22,-51 15,-14 34,-21 58,-21 24,0 44,7 59,21 15,14 22,32 22,52 0,13 -3,24 -10,34 -7,10 -17,17 -31,22 17,6 30,15 39,27 9,12 13,27 13,45 0,24 -8,44 -25,60 -17,16 -39,24 -67,24 -28,0 -50,-8 -67,-25 -17,-16 -25,-37 -25,-61 0,-18 5,-33 14,-46 9,-12 22,-21 40,-25zm-7 -58c0,13 4,24 13,33 9,8 20,13 33,13 13,0 24,-4 33,-13 8,-8 13,-19 13,-31 0,-13 -4,-23 -13,-32 -9,-9 -20,-13 -33,-13 -13,0 -24,4 -33,13 -9,8 -13,19 -13,30zm-11 130c0,10 2,19 7,28 5,9 12,16 21,21 9,5 19,8 30,8 16,0 30,-5 41,-16 11,-11 16,-24 16,-40 0,-17 -5,-30 -17,-41 -11,-11 -25,-16 -41,-16 -16,0 -30,5 -40,16 -11,11 -16,24 -16,40z"/>
  <path id="1" fill="#373435" fill-rule="nonzero" d="M2546 2854c-14,-5 -25,-13 -32,-22 -7,-10 -10,-21 -10,-35 0,-20 7,-38 22,-51 15,-14 34,-21 58,-21 24,0 44,7 59,21 15,14 22,32 22,52 0,13 -3,24 -10,34 -7,10 -17,17 -31,22 17,6 30,15 39,27 9,12 13,27 13,45 0,24 -8,44 -25,60 -17,16 -39,24 -67,24 -28,0 -50,-8 -67,-25 -17,-16 -25,-37 -25,-61 0,-18 5,-33 14,-46 9,-12 22,-21 40,-25zm-7 -58c0,13 4,24 13,33 9,8 20,13 33,13 13,0 24,-4 33,-13 8,-8 13,-19 13,-31 0,-13 -4,-23 -13,-32 -9,-9 -20,-13 -33,-13 -13,0 -24,4 -33,13 -9,8 -13,19 -13,30zm-11 130c0,10 2,19 7,28 5,9 12,16 21,21 9,5 19,8 30,8 16,0 30,-5 41,-16 11,-11 16,-24 16,-40 0,-17 -5,-30 -17,-41 -11,-11 -25,-16 -41,-16 -16,0 -30,5 -40,16 -11,11 -16,24 -16,40z"/>
  <path id="12" fill="#373435" fill-rule="nonzero" d="M2823 2932l34 -5c4,20 11,34 20,42 10,9 21,13 35,13 16,0 30,-6 41,-17 11,-11 17,-25 17,-42 0,-16 -5,-29 -15,-39 -10,-10 -24,-15 -39,-15 -7,0 -15,1 -24,4l4 -30c2,0 4,0 6,0 15,0 28,-4 40,-11 12,-8 18,-19 18,-35 0,-13 -4,-23 -13,-31 -9,-8 -20,-12 -33,-12 -13,0 -25,4 -33,13 -9,8 -15,21 -17,38l-34 -6c4,-23 14,-41 29,-54 15,-13 33,-19 56,-19 15,0 29,3 42,10 13,7 23,16 30,27 7,11 10,23 10,36 0,12 -3,23 -10,33 -7,10 -16,18 -29,24 17,4 29,12 39,24 9,12 14,27 14,45 0,24 -9,45 -27,62 -18,17 -40,26 -68,26 -25,0 -45,-7 -61,-22 -16,-15 -26,-34 -28,-57z"/>
  <path id="123" fill="#373435" fill-rule="nonzero" d="M3157 2941l33 -3c3,16 8,27 16,34 8,7 18,11 30,11 11,0 20,-2 28,-7 8,-5 14,-11 20,-19 5,-8 9,-19 13,-33 3,-14 5,-28 5,-42 0,-1 0,-4 0,-7 -7,11 -16,20 -28,27 -12,7 -25,10 -39,10 -23,0 -43,-8 -59,-25 -16,-17 -24,-39 -24,-67 0,-28 8,-51 25,-69 17,-17 38,-26 63,-26 18,0 35,5 50,15 15,10 27,24 34,42 8,18 12,44 12,79 0,36 -4,64 -12,86 -8,21 -19,37 -35,48 -15,11 -33,17 -54,17 -22,0 -40,-6 -54,-18 -14,-12 -22,-29 -25,-51zm141 -124c0,-20 -5,-35 -16,-47 -11,-12 -23,-17 -38,-17 -15,0 -29,6 -40,19 -11,13 -17,29 -17,49 0,18 5,32 16,44 11,11 24,17 40,17 16,0 29,-6 39,-17 10,-11 15,-27 15,-46z"/>
  <path id="1234" fill="#373435" fill-rule="nonzero" d="M3481 2932l34 -5c4,20 11,34 20,42 10,9 21,13 35,13 16,0 30,-6 41,-17 11,-11 17,-25 17,-42 0,-16 -5,-29 -15,-39 -10,-10 -24,-15 -39,-15 -7,0 -15,1 -24,4l4 -30c2,0 4,0 6,0 15,0 28,-4 40,-11 12,-8 18,-19 18,-35 0,-13 -4,-23 -13,-31 -9,-8 -20,-12 -33,-12 -13,0 -25,4 -33,13 -9,8 -15,21 -17,38l-34 -6c4,-23 14,-41 29,-54 15,-13 33,-19 56,-19 15,0 29,3 42,10 13,7 23,16 30,27 7,11 10,23 10,36 0,12 -3,23 -10,33 -7,10 -16,18 -29,24 17,4 29,12 39,24 9,12 14,27 14,45 0,24 -9,45 -27,62 -18,17 -40,26 -68,26 -25,0 -45,-7 -61,-22 -16,-15 -26,-34 -28,-57z"/>
  <path fill="#373435" fill-rule="nonzero" d="M4035 2932l34 -5c4,20 11,34 20,42 10,9 21,13 35,13 16,0 30,-6 41,-17 11,-11 17,-25 17,-42 0,-16 -5,-29 -15,-39 -10,-10 -24,-15 -39,-15 -7,0 -15,1 -24,4l4 -30c2,0 4,0 6,0 15,0 28,-4 40,-11 12,-8 18,-19 18,-35 0,-13 -4,-23 -13,-31 -9,-8 -20,-12 -33,-12 -13,0 -25,4 -33,13 -9,8 -15,21 -17,38l-34 -6c4,-23 14,-41 29,-54 15,-13 33,-19 56,-19 15,0 29,3 42,10 13,7 23,16 30,27 7,11 10,23 10,36 0,12 -3,23 -10,33 -7,10 -16,18 -29,24 17,4 29,12 39,24 9,12 14,27 14,45 0,24 -9,45 -27,62 -18,17 -40,26 -68,26 -25,0 -45,-7 -61,-22 -16,-15 -26,-34 -28,-57z"/>
  <path id="1" fill="#373435" fill-rule="nonzero" d="M4367 2854c-14,-5 -25,-13 -32,-22 -7,-10 -10,-21 -10,-35 0,-20 7,-38 22,-51 15,-14 34,-21 58,-21 24,0 44,7 59,21 15,14 22,32 22,52 0,13 -3,24 -10,34 -7,10 -17,17 -31,22 17,6 30,15 39,27 9,12 13,27 13,45 0,24 -8,44 -25,60 -17,16 -39,24 -67,24 -28,0 -50,-8 -67,-25 -17,-16 -25,-37 -25,-61 0,-18 5,-33 14,-46 9,-12 22,-21 40,-25zm-7 -58c0,13 4,24 13,33 9,8 20,13 33,13 13,0 24,-4 33,-13 8,-8 13,-19 13,-31 0,-13 -4,-23 -13,-32 -9,-9 -20,-13 -33,-13 -13,0 -24,4 -33,13 -9,8 -13,19 -13,30zm-11 130c0,10 2,19 7,28 5,9 12,16 21,21 9,5 19,8 30,8 16,0 30,-5 41,-16 11,-11 16,-24 16,-40 0,-17 -5,-30 -17,-41 -11,-11 -25,-16 -41,-16 -16,0 -30,5 -40,16 -11,11 -16,24 -16,40z"/>
  <path id="12" fill="#373435" fill-rule="nonzero" d="M4704 3006l0 -67 -122 0 0 -32 128 -182 28 0 0 182 38 0 0 32 -38 0 0 67 -34 0zm0 -99l0 -126 -88 126 88 0z"/>
  <path id="123" fill="#373435" fill-rule="nonzero" d="M4873 2867c0,-33 3,-60 10,-80 7,-20 17,-36 30,-47 13,-11 30,-16 51,-16 15,0 28,3 40,9 11,6 21,15 28,26 7,11 13,25 17,42 4,16 6,38 6,66 0,33 -3,59 -10,80 -7,20 -17,36 -30,47 -13,11 -30,17 -51,17 -27,0 -48,-10 -64,-29 -18,-23 -28,-61 -28,-114zm35 0c0,46 5,77 16,92 11,15 24,23 40,23 16,0 29,-8 40,-23 11,-15 16,-46 16,-92 0,-46 -5,-77 -16,-92 -11,-15 -24,-23 -40,-23 -16,0 -28,7 -38,20 -12,17 -18,49 -18,95z"/>
  <path id="1234" fill="#373435" fill-rule="nonzero" d="M5157 2941l33 -3c3,16 8,27 16,34 8,7 18,11 30,11 11,0 20,-2 28,-7 8,-5 14,-11 20,-19 5,-8 9,-19 13,-33 3,-14 5,-28 5,-42 0,-1 0,-4 0,-7 -7,11 -16,20 -28,27 -12,7 -25,10 -39,10 -23,0 -43,-8 -59,-25 -16,-17 -24,-39 -24,-67 0,-28 8,-51 25,-69 17,-17 38,-26 63,-26 18,0 35,5 50,15 15,10 27,24 34,42 8,18 12,44 12,79 0,36 -4,64 -12,86 -8,21 -19,37 -35,48 -15,11 -33,17 -54,17 -22,0 -40,-6 -54,-18 -14,-12 -22,-29 -25,-51zm141 -124c0,-20 -5,-35 -16,-47 -11,-12 -23,-17 -38,-17 -15,0 -29,6 -40,19 -11,13 -17,29 -17,49 0,18 5,32 16,44 11,11 24,17 40,17 16,0 29,-6 39,-17 10,-11 15,-27 15,-46z"/>
 </g>
</svg>
