<?xml version="1.0" encoding="UTF-8"?>
<!DOCTYPE svg PUBLIC "-//W3C//DTD SVG 1.1//EN" "http://www.w3.org/Graphics/SVG/1.1/DTD/svg11.dtd">
<!-- Creator: CorelDRAW X5 -->
<svg xmlns="http://www.w3.org/2000/svg" xml:space="preserve" width="2.1677in" height="0.977551in" shape-rendering="geometricPrecision" text-rendering="geometricPrecision" image-rendering="optimizeQuality" fill-rule="evenodd" clip-rule="evenodd"
viewBox="0 0 1588 716"
 xmlns:xlink="http://www.w3.org/1999/xlink">
 <defs>
    <linearGradient id="id0" gradientUnits="userSpaceOnUse" x1="7.8898" y1="668.954" x2="1588.33" y2="668.954">
     <stop offset="0" stop-color="#06A190"/>
     <stop offset="0.501961" stop-color="#FEFEFE"/>
     <stop offset="1" stop-color="#06A190"/>
    </linearGradient>
 </defs>
 <g id="Layer_x0020_1">
  <metadata id="CorelCorpID_0Corel-Layer"/>
  <g id="_308722944">
   <path fill="#06A190" fill-rule="nonzero" stroke="#06A190" stroke-width="7.32727" d="M141 441l0 -1c-8,-1 -15,-2 -23,-4 -7,-2 -15,-5 -22,-8 -7,-3 -14,-7 -21,-11 -7,-4 -12,-9 -19,-15 -7,-8 -12,-15 -16,-21 -4,-6 -6,-13 -7,-21 -1,-8 -1,-17 2,-26 2,-7 5,-12 10,-16 4,-4 9,-8 13,-11 4,-3 10,-5 13,-6 4,-1 8,-2 11,-3l236 -28 0 -1c-1,-7 -1,-12 -3,-18 -1,-6 -3,-12 -5,-16 -2,-5 -4,-10 -5,-13 -1,-4 -3,-7 -4,-10 -8,-14 -18,-26 -29,-37 -11,-11 -23,-20 -37,-26 -14,-7 -28,-12 -43,-15 -15,-3 -31,-3 -47,-1 -21,2 -41,9 -59,19 -18,10 -34,23 -46,40 -12,16 -22,34 -28,54 -6,20 -8,40 -5,61 2,18 7,34 15,50 8,15 18,29 30,42 12,12 26,22 42,30 16,7 33,12 51,15l-1 0zm-108 -244c7,-9 13,-17 21,-25 8,-7 17,-14 26,-20 10,-5 19,-10 29,-13 10,-4 21,-6 32,-7 12,-1 23,-1 34,0 12,1 23,4 33,7 11,4 21,8 31,14 10,6 19,12 27,21 4,4 7,7 10,12 3,4 6,10 8,15 2,6 4,12 4,18 0,7 -1,12 -2,19 -2,7 -5,13 -10,18 -4,5 -9,9 -14,12 -5,3 -10,4 -13,6 -4,1 -7,2 -10,3l-156 18c-3,0 -7,0 -11,0 -4,0 -10,-1 -15,-3 -6,-1 -12,-4 -18,-8 -6,-4 -10,-9 -14,-15 -4,-7 -7,-14 -7,-21 -1,-7 -1,-14 1,-21 1,-7 3,-12 5,-17 2,-5 4,-10 7,-13l1 0z"/>
   <path fill="#06A190" fill-rule="nonzero" stroke="#06A190" stroke-width="7.32727" d="M549 440l3 -1 -71 -128c-3,-7 -5,-14 -6,-20 -1,-7 -1,-12 -1,-18 0,-5 1,-10 1,-15 1,-4 2,-9 4,-12l62 -113 -2 -1 -55 100c-1,3 -4,5 -6,7 -2,2 -5,4 -8,6 -3,1 -7,3 -10,4 -4,1 -7,1 -12,1 -4,0 -8,-1 -12,-1 -4,-1 -7,-2 -10,-4 -3,-1 -6,-4 -9,-6 -2,-2 -4,-4 -6,-7l-55 -100 -2 1 53 96c1,0 1,1 1,1 0,0 0,0 0,1l6 10c2,4 4,9 5,14 1,5 2,11 2,18 0,7 -1,14 -2,22 -1,8 -4,16 -9,24l-66 120 2 1 66 -120c1,-3 3,-5 6,-7 2,-2 5,-4 9,-5 3,-1 7,-3 10,-4 4,-1 7,-1 12,-1 4,0 8,1 12,1 4,1 7,2 10,4 3,1 6,3 8,5 2,2 4,4 6,7l66 120 -1 0z"/>
   <path fill="#FEFEFE" fill-rule="nonzero" stroke="#FEFEFE" stroke-width="7.32727" d="M1376 280c-11,0 -22,-2 -32,-6 -10,-4 -18,-10 -26,-17 -7,-7 -13,-16 -18,-26 -4,-10 -7,-20 -7,-31l0 -35c0,-11 2,-21 7,-30 4,-10 10,-18 18,-25 7,-7 16,-13 26,-17 10,-4 21,-6 32,-6l98 0c13,1 26,3 37,8 12,5 22,12 32,21 9,9 16,19 21,31 5,12 7,23 7,37 0,12 -2,25 -7,37 -5,12 -12,22 -21,31 -9,9 -20,16 -32,21 -12,5 -25,8 -38,8l-1 1 -95 0 0 -2zm195 214l2 -1 -147 -193c-1,-1 -1,-1 -1,-1 0,-1 -1,-1 -1,-3 0,-1 0,-2 0,-3 0,-1 0,-2 1,-3 1,-1 1,-2 1,-3 1,-1 1,-1 2,-2 1,-1 1,-1 3,-1 1,0 2,0 3,0l38 0c14,-1 26,-3 39,-8 12,-5 23,-12 32,-21 10,-9 16,-20 21,-32 5,-12 8,-24 8,-37 0,-13 -3,-26 -8,-37 -5,-12 -12,-23 -22,-32 -10,-10 -21,-16 -33,-22 -12,-5 -26,-8 -39,-8l-181 0 0 408 3 0 0 -132c0,-11 2,-21 7,-30 4,-10 10,-18 18,-25 7,-7 16,-13 26,-17 10,-4 21,-6 32,-6l13 0c1,0 2,0 4,0 1,0 3,1 5,1 1,1 4,1 5,1 1,1 3,1 5,1 1,1 3,1 5,3 1,1 3,2 4,3 1,1 2,1 1,1 -1,-1 1,1 5,5l147 195 0 -1zm-623 0c34,-92 68,-186 101,-278 17,-50 84,-36 96,0l108 278 3 0 -161 -415 -150 415 2 0 1 0zm-23 -107l0 8c0,13 -3,26 -7,37 -5,12 -12,22 -21,31 -9,9 -20,16 -32,21 -12,5 -42,7 -55,7l-94 0c-11,0 -21,-2 -32,-6 -10,-4 -18,-10 -26,-17 -7,-7 -13,-15 -18,-25 -4,-10 -6,-20 -6,-30l0 -42c0,-11 2,-21 6,-31 4,-10 10,-18 18,-26 7,-7 16,-13 26,-18 10,-4 21,-6 32,-6l96 0 1 1c40,1 90,22 106,59 5,12 7,23 7,37l-1 -1zm-210 -99c-11,0 -21,-2 -32,-6 -10,-4 -18,-10 -26,-17 -7,-7 -13,-15 -18,-25 -4,-10 -6,-20 -6,-30l0 -44c0,-11 2,-21 6,-30 4,-10 10,-18 18,-25 7,-7 16,-13 26,-17 10,-4 21,-6 32,-6l78 0c13,0 26,3 37,8 12,5 22,12 32,21 9,9 16,19 21,31 5,12 7,23 7,37l0 10c0,6 -1,12 -2,18 -1,6 -3,12 -6,18 -12,29 -23,51 -54,57 -6,1 -12,2 -18,2l-95 0 0 -2zm95 205c13,0 43,-3 56,-8 12,-5 23,-12 32,-21 10,-9 16,-20 21,-32 5,-12 7,-24 7,-37l0 -8c0,-9 -1,-17 -3,-25 -2,-8 -5,-16 -10,-23 -19,-32 -59,-38 -60,-49 0,-1 1,-3 1,-4 10,-18 29,-51 34,-68 2,-8 3,-16 3,-24l0 -10c0,-13 -2,-26 -7,-37 -5,-12 -12,-23 -21,-32 -10,-9 -20,-16 -32,-21 -12,-5 -25,-8 -38,-8l-161 0c0,4 0,23 0,56 0,34 0,83 0,147 0,65 0,114 0,147 0,34 0,52 0,56l178 0 -1 -1z"/>
   <path fill="url(#id0)" fill-rule="nonzero" d="M31 623c8,0 14,1 18,5 4,3 6,8 6,15l0 4c0,5 -1,9 -3,12 -2,3 -5,5 -10,6 10,2 15,9 15,19l0 7c0,7 -2,12 -6,16 -4,4 -10,5 -18,5l-25 0 0 -91 24 0 -1 1zm-3 38c5,0 9,-1 11,-3 2,-1 4,-5 4,-10l0 -5c0,-4 -1,-7 -3,-9 -2,-2 -5,-3 -9,-3l-12 0 0 29 10 0 -1 0zm4 43c4,0 7,-1 10,-3 2,-2 3,-5 3,-10l0 -8c0,-5 -1,-8 -4,-10 -2,-2 -6,-3 -12,-3l-10 0 0 34 12 0 1 0zm106 10l-11 0 21 -91 18 0 21 91 -12 0 -4 -18 -27 0 -4 18zm30 -27l-12 -52 -12 52 24 0 0 0zm114 -64c8,0 15,1 18,5 4,4 6,9 6,15l0 7c0,5 -1,9 -3,12 -2,3 -6,5 -10,7 4,1 8,4 10,7 2,3 3,7 3,12l0 14c0,2 0,4 1,7 0,1 1,3 1,4l-12 0c-1,-1 -1,-3 -1,-4 0,-1 -1,-4 -1,-7l0 -14c0,-5 -1,-8 -4,-10 -3,-2 -7,-3 -12,-3l-9 0 0 39 -12 0 0 -91 24 0 0 -1zm-3 43c5,0 9,-1 12,-3 2,-1 4,-5 4,-10l0 -9c0,-4 -1,-7 -3,-10 -2,-2 -5,-3 -10,-3l-12 0 0 34 9 0 0 0zm126 -43c8,0 14,2 18,6 4,4 6,10 6,17l0 8 -12 0 0 -9c0,-9 -4,-13 -12,-13 -4,0 -7,1 -10,4 -2,2 -3,6 -3,10l0 48c0,4 1,7 3,10 2,2 5,4 10,4 9,0 12,-4 12,-13l0 -12 12 0 0 11c0,7 -2,12 -6,17 -4,4 -10,6 -18,6 -8,0 -14,-2 -18,-6 -4,-4 -6,-10 -6,-17l0 -47c0,-7 2,-12 6,-17 4,-4 10,-6 18,-6l0 1zm98 23c0,-7 2,-12 7,-17 4,-4 10,-6 18,-6 8,0 15,2 18,6 4,4 7,10 7,17l0 47c0,7 -2,12 -7,17 -4,4 -10,6 -18,6 -8,0 -14,-2 -18,-6 -4,-4 -7,-10 -7,-17l0 -47zm12 48c0,4 1,7 3,10 2,2 5,4 10,4 9,0 12,-4 12,-13l0 -48c0,-4 -1,-7 -3,-10 -2,-2 -5,-4 -10,-4 -4,0 -7,1 -10,4 -2,2 -3,6 -3,10l0 48 0 0zm137 -69c8,0 15,2 18,6 4,4 6,10 6,17l0 45c0,7 -2,12 -6,17 -4,4 -10,6 -18,6l-26 0 0 -91 26 0zm0 81c9,0 12,-4 12,-12l0 -47c0,-9 -4,-12 -13,-12l-13 0 0 72 13 0 1 0zm137 -32l-26 0 0 32 32 0 0 10 -45 0 0 -91 45 0 0 10 -32 0 0 31 26 0 0 9 0 0zm214 0l-26 0 0 32 32 0 0 10 -45 0 0 -91 45 0 0 10 -32 0 0 31 26 0 0 9 0 0zm106 -49c8,0 15,2 18,6 4,4 6,10 6,17l0 45c0,7 -2,12 -6,17 -4,4 -10,6 -18,6l-26 0 0 -91 26 0zm0 81c9,0 12,-4 12,-12l0 -47c0,-9 -4,-12 -13,-12l-13 0 0 72 13 0 1 0zm111 10l-12 0 0 -91 12 0 0 91zm91 -81l-20 0 0 -10 52 0 0 10 -20 0 0 81 -12 0 0 -81 -1 0zm102 12c0,-7 2,-12 7,-17 4,-4 10,-6 18,-6 8,0 15,2 18,6 4,4 7,10 7,17l0 47c0,7 -2,12 -7,17 -4,4 -10,6 -18,6 -8,0 -14,-2 -18,-6 -4,-4 -7,-10 -7,-17l0 -47zm12 48c0,4 1,7 3,10 2,2 5,4 10,4 9,0 12,-4 12,-13l0 -48c0,-4 -1,-7 -3,-10 -2,-2 -5,-4 -10,-4 -4,0 -7,1 -10,4 -2,2 -3,6 -3,10l0 48 0 0zm136 -69c8,0 15,1 18,5 4,4 6,9 6,15l0 7c0,5 -1,9 -3,12 -2,3 -6,5 -10,7 4,1 8,4 10,7 2,3 3,7 3,12l0 14c0,2 0,4 1,7 0,1 1,3 1,4l-12 0c-1,-1 -1,-3 -1,-4 0,-1 -1,-4 -1,-7l0 -14c0,-5 -1,-8 -4,-10 -3,-2 -7,-3 -12,-3l-9 0 0 39 -12 0 0 -91 24 0 0 -1zm-3 43c5,0 9,-1 12,-3 2,-1 4,-5 4,-10l0 -9c0,-4 -1,-7 -3,-10 -2,-2 -5,-3 -10,-3l-12 0 0 34 9 0 0 0z"/>
   <path fill="#FEFEFE" d="M27 55c-10,5 -12,23 -5,40 8,17 23,26 34,21 10,-5 12,-23 5,-40 -8,-17 -23,-26 -34,-21zm205 -24c12,2 18,19 14,37 -4,18 -16,31 -28,29 -12,-2 -18,-19 -14,-37 4,-18 16,-31 28,-29zm-107 -31c16,-2 32,18 35,43 3,26 -8,48 -24,50 -16,2 -32,-18 -35,-43 -3,-26 8,-48 24,-50z"/>
  </g>
 </g>
</svg>
