<?xml version="1.0" encoding="UTF-8"?>
<!DOCTYPE svg PUBLIC "-//W3C//DTD SVG 1.1//EN" "http://www.w3.org/Graphics/SVG/1.1/DTD/svg11.dtd">
<!-- Creator: CorelDRAW X5 -->
<svg xmlns="http://www.w3.org/2000/svg" xml:space="preserve" width="2.16744in" height="0.975681in" shape-rendering="geometricPrecision" text-rendering="geometricPrecision" image-rendering="optimizeQuality" fill-rule="evenodd" clip-rule="evenodd"
viewBox="0 0 2771 1247"
 xmlns:xlink="http://www.w3.org/1999/xlink">
 <g id="Layer_x0020_1">
  <metadata id="CorelCorpID_0Corel-Layer"/>
  <g id="_390524160">
   <path fill="#373435" fill-rule="nonzero" stroke="#373435" stroke-width="8.87967" d="M244 768l0 -2c-14,-1 -27,-3 -41,-8 -13,-3 -26,-9 -38,-14 -13,-5 -24,-13 -36,-20 -12,-8 -22,-15 -34,-26 -13,-14 -22,-26 -28,-37 -7,-10 -10,-23 -13,-37 -2,-14 -1,-29 3,-45 3,-12 9,-21 16,-28 8,-8 15,-14 23,-20 8,-5 16,-9 23,-10 8,-2 14,-3 20,-5l412 -49 0 -2c-1,-12 -2,-22 -5,-32 -2,-10 -5,-21 -9,-28 -3,-9 -7,-16 -9,-23 -2,-7 -5,-12 -8,-16 -14,-24 -30,-45 -50,-64 -20,-20 -41,-35 -65,-46 -24,-13 -49,-21 -75,-26 -27,-5 -53,-5 -82,-2 -37,3 -72,15 -103,34 -32,17 -59,41 -81,70 -22,28 -38,59 -49,94 -10,35 -14,71 -9,107 3,30 13,60 26,87 14,27 30,51 52,73 22,22 46,38 73,52 28,13 58,22 88,26l-2 0 1 -1zm-188 -425c12,-15 23,-29 37,-44 14,-13 29,-24 46,-35 16,-9 34,-17 51,-23 17,-7 37,-10 57,-13 21,-2 41,-2 60,0 21,2 39,7 58,13 20,7 37,14 53,24 16,10 34,22 48,36 7,7 12,13 16,21 5,8 10,16 14,27 3,10 7,21 7,30 0,12 -1,22 -3,34 -3,12 -9,23 -16,30 -8,9 -15,15 -24,21 -9,5 -16,8 -23,10 -7,2 -13,3 -17,5l-271 32c-5,0 -13,0 -20,0 -8,0 -16,-1 -27,-5 -10,-2 -21,-8 -30,-14 -10,-7 -17,-15 -24,-26 -8,-12 -12,-24 -13,-36 -1,-13 -1,-24 1,-36 2,-12 5,-22 9,-29 3,-9 8,-16 12,-23l2 0 -2 0z"/>
   <path fill="#373435" fill-rule="nonzero" stroke="#373435" stroke-width="12.7859" d="M957 766l5 -1 -124 -223c-5,-12 -9,-24 -10,-35 -2,-12 -2,-22 -2,-30 0,-9 1,-17 2,-27 1,-8 3,-15 7,-22l108 -197 -3 -1 -96 174c-2,5 -7,9 -10,13 -3,3 -9,8 -14,10 -5,2 -12,5 -17,7 -7,1 -13,2 -21,2 -8,0 -14,-1 -21,-2 -7,-1 -13,-3 -17,-7 -5,-2 -10,-7 -15,-10 -3,-3 -8,-8 -10,-13l-96 -174 -3 1 92 168c1,0 1,1 1,1 0,0 0,0 0,1l10 16c3,8 7,15 9,24 2,9 3,20 3,32 0,12 -1,24 -3,38 -2,14 -8,28 -15,42l-115 210 3 1 115 -209c2,-5 5,-9 10,-13 3,-3 9,-7 15,-9 5,-2 12,-5 17,-7 7,-1 13,-2 21,-2 8,0 14,1 21,2 7,1 13,3 17,7 5,2 10,5 14,9 3,3 8,8 10,13l115 209 -1 0 0 0z"/>
   <path fill="#FEFEFE" fill-rule="nonzero" stroke="#FEFEFE" stroke-width="12.7859" d="M2399 486c-20,0 -38,-3 -55,-10 -16,-8 -32,-16 -46,-29 -13,-13 -23,-28 -30,-45 -8,-16 -12,-35 -12,-53l0 -61c0,-20 3,-36 12,-52 8,-16 17,-30 30,-44 13,-13 28,-23 46,-29 16,-8 36,-10 55,-10l171 0c23,1 45,5 65,14 21,9 38,21 55,37 15,15 28,34 37,53 9,21 13,41 13,64 0,22 -3,44 -13,64 -9,21 -21,38 -37,53 -15,15 -35,28 -55,37 -21,9 -44,14 -66,14l-2 1 -166 0 0 -3 -1 1zm340 372l3 -2 -256 -336c-1,-1 -1,-1 -1,-2 0,-1 -1,-2 -1,-5 0,-1 0,-3 0,-5 0,-1 0,-3 1,-5 1,-2 1,-3 2,-5 1,-1 2,-2 3,-3 1,-1 2,-1 5,-1 1,0 3,0 5,0l66 0c24,-1 46,-5 67,-14 22,-9 39,-22 57,-37 16,-15 28,-35 37,-55 9,-21 14,-42 14,-65 0,-23 -5,-45 -14,-65 -9,-21 -22,-39 -38,-55 -16,-16 -36,-28 -58,-38 -22,-9 -45,-14 -67,-14l-317 0 0 711 5 0 0 -231c0,-20 3,-36 12,-52 8,-16 17,-30 30,-44 13,-13 28,-23 46,-29 16,-8 36,-10 55,-10l23 0c2,0 3,0 7,0 2,0 5,1 9,1 2,1 7,1 9,2 2,1 5,1 9,2 2,1 5,2 9,5 2,1 5,3 8,5 2,2 3,2 2,2 -1,-1 2,2 9,9l256 340 0 -2 1 -2zm-1087 0c59,-161 118,-324 176,-485 29,-87 147,-63 168,0l188 485 5 0 -282 -724 -261 724 3 0 1 0 1 0zm-41 -187l0 14c0,23 -5,45 -13,64 -9,21 -22,38 -37,53 -15,15 -35,28 -55,36 -21,9 -73,13 -96,13l-164 0c-20,0 -37,-3 -55,-10 -16,-8 -32,-16 -45,-29 -13,-13 -23,-27 -30,-44 -8,-16 -10,-35 -10,-52l0 -73c0,-20 3,-37 10,-53 8,-16 17,-32 30,-45 13,-13 28,-23 45,-30 16,-8 36,-10 55,-10l168 0 1 1c71,2 158,38 184,103 9,21 13,41 13,64l-1 -1 -1 1zm-367 -173c-20,0 -37,-3 -55,-10 -16,-8 -32,-16 -45,-29 -13,-13 -23,-27 -30,-44 -8,-16 -10,-35 -10,-52l0 -77c0,-20 3,-36 10,-52 8,-16 17,-30 30,-44 13,-13 28,-23 45,-29 16,-8 36,-10 55,-10l136 0c23,0 45,5 65,14 21,9 38,22 55,37 15,15 28,34 37,53 9,21 13,41 13,64l0 16c0,10 -1,22 -3,32 -2,10 -5,22 -10,30 -21,50 -39,88 -94,100 -10,2 -22,3 -32,3l-166 0 0 -3 1 1zm166 359c23,0 75,-5 97,-14 21,-9 39,-22 57,-37 16,-15 28,-35 37,-55 9,-21 13,-42 13,-65l0 -14c0,-15 -1,-29 -5,-44 -3,-14 -9,-28 -16,-39 -34,-57 -103,-66 -104,-86 0,-2 1,-5 2,-8 16,-32 51,-88 59,-118 3,-14 5,-28 5,-42l0 -16c0,-23 -3,-45 -13,-65 -9,-21 -22,-39 -37,-55 -16,-15 -35,-28 -57,-37 -22,-9 -44,-14 -66,-14l-281 0c0,8 0,39 0,99 0,59 0,145 0,258 0,114 0,200 0,258 0,59 0,90 0,99l311 0 -1 -1 -1 -2z"/>
   <path fill="#373435" fill-rule="nonzero" d="M53 1086c14,0 24,2 30,9 7,5 10,14 10,27l0 8c0,9 -1,15 -5,21 -3,5 -9,9 -16,10 16,3 26,15 26,34l0 13c0,12 -3,22 -10,28 -8,7 -17,9 -32,9l-44 0 0 -159 42 0 -1 1 1 -1zm-5 66c9,0 15,-1 20,-5 3,-2 7,-9 7,-16l0 -9c0,-8 -1,-13 -5,-15 -3,-3 -9,-5 -15,-5l-21 0 0 51 16 0 -1 0 -1 -1zm7 75c8,0 13,-1 16,-5 3,-3 5,-9 5,-16l0 -14c0,-9 -2,-14 -7,-17 -3,-3 -10,-5 -21,-5l-17 0 0 59 22 0 1 0 1 -2zm186 16l-20 0 36 -159 30 0 36 159 -21 0 -8 -32 -48 0 -8 32 2 0zm52 -48l-22 -90 -21 90 42 0 0 0 1 0zm200 -111c14,0 26,2 32,9 7,7 10,15 10,27l0 13c0,9 -1,15 -5,22 -3,5 -10,9 -17,12 8,2 14,7 17,12 3,5 5,13 5,22l0 24c0,3 0,8 1,12 0,2 1,5 2,8l-22 0c-1,-2 -2,-5 -2,-8 0,-2 -1,-7 -1,-12l0 -24c0,-9 -2,-14 -7,-17 -5,-3 -12,-5 -21,-5l-15 0 0 67 -21 0 0 -159 42 0 0 -1 1 -1zm-5 74c9,0 15,-1 21,-5 3,-2 7,-9 7,-16l0 -15c0,-8 -1,-13 -5,-16 -3,-3 -9,-5 -16,-5l-21 0 0 59 15 0 0 0 -1 -2zm220 -75c14,0 24,3 32,10 8,8 10,16 10,29l0 14 -21 0 0 -15c0,-15 -8,-23 -22,-23 -8,0 -13,2 -16,7 -3,3 -5,10 -5,16l0 84c0,8 1,13 5,16 3,3 9,7 16,7 15,0 22,-8 22,-23l0 -21 21 0 0 20c0,13 -3,22 -10,29 -8,8 -17,10 -32,10 -14,0 -24,-3 -32,-10 -8,-8 -10,-16 -10,-29l0 -82c0,-13 3,-22 10,-29 8,-8 17,-10 32,-10l0 1 0 0zm171 39c0,-13 3,-22 12,-29 8,-8 17,-10 32,-10 14,0 26,3 32,10 8,8 12,16 12,29l0 82c0,13 -3,22 -12,29 -8,8 -17,10 -32,10 -14,0 -24,-3 -32,-10 -8,-8 -12,-16 -12,-29l0 -82zm21 84c0,8 1,13 5,16 3,3 9,7 16,7 15,0 22,-8 22,-23l0 -84c0,-8 -1,-13 -5,-16 -3,-3 -9,-7 -16,-7 -8,0 -13,2 -16,7 -3,3 -5,10 -5,16l0 84 0 0 -1 0zm239 -121c14,0 26,3 32,10 8,7 10,16 10,29l0 79c0,13 -3,22 -10,29 -8,7 -17,10 -32,10l-45 0 0 -159 45 0 0 1zm0 142c15,0 22,-8 22,-22l0 -82c0,-15 -8,-22 -23,-22l-23 0 0 125 23 0 1 0 0 1zm239 -57l-46 0 0 57 57 0 0 16 -78 0 0 -159 78 0 0 16 -57 0 0 53 46 0 0 15 0 0 0 1zm374 0l-46 0 0 57 57 0 0 16 -78 0 0 -159 78 0 0 16 -57 0 0 53 46 0 0 15 0 0 0 1zm184 -86c14,0 26,3 32,10 8,7 10,16 10,29l0 79c0,13 -3,22 -10,29 -8,7 -17,10 -32,10l-45 0 0 -159 45 0 0 1zm0 142c15,0 22,-8 22,-22l0 -82c0,-15 -8,-22 -23,-22l-23 0 0 125 23 0 1 0 0 1zm194 16l-21 0 0 -159 21 0 0 159zm159 -142l-35 0 0 -16 90 0 0 16 -35 0 0 142 -21 0 0 -142 -1 0 1 0zm178 22c0,-13 3,-22 12,-29 8,-8 17,-10 32,-10 14,0 26,3 32,10 8,8 12,16 12,29l0 82c0,13 -3,22 -12,29 -8,8 -17,10 -32,10 -14,0 -24,-3 -32,-10 -8,-8 -12,-16 -12,-29l0 -82zm21 84c0,8 1,13 5,16 3,3 9,7 16,7 15,0 22,-8 22,-23l0 -84c0,-8 -1,-13 -5,-16 -3,-3 -9,-7 -16,-7 -8,0 -13,2 -16,7 -3,3 -5,10 -5,16l0 84 0 0 -1 0zm238 -121c14,0 26,2 32,9 7,7 10,15 10,27l0 13c0,9 -1,15 -5,22 -3,5 -10,9 -17,12 8,2 14,7 17,12 3,5 5,13 5,22l0 24c0,3 0,8 1,12 0,2 1,5 2,8l-22 0c-1,-2 -2,-5 -2,-8 0,-2 -1,-7 -1,-12l0 -24c0,-9 -2,-14 -7,-17 -5,-3 -12,-5 -21,-5l-15 0 0 67 -21 0 0 -159 42 0 0 -1 1 -1zm-5 74c9,0 15,-1 21,-5 3,-2 7,-9 7,-16l0 -15c0,-8 -1,-13 -5,-16 -3,-3 -9,-5 -16,-5l-21 0 0 59 15 0 0 0 -1 -2z"/>
   <path fill="#FEFEFE" d="M46 95c-17,9 -22,39 -9,70 14,29 39,46 59,37 17,-9 22,-39 9,-70 -14,-29 -39,-46 -59,-37zm357 -42c21,3 30,34 24,65 -7,32 -28,53 -49,50 -21,-3 -30,-34 -24,-65 7,-32 28,-53 49,-50zm-187 -53c28,-3 57,30 61,75 5,45 -14,84 -42,87 -28,3 -57,-30 -61,-75 -5,-45 14,-84 42,-87z"/>
  </g>
 </g>
</svg>
