<?xml version="1.0" encoding="UTF-8"?>
<!DOCTYPE svg PUBLIC "-//W3C//DTD SVG 1.1//EN" "http://www.w3.org/Graphics/SVG/1.1/DTD/svg11.dtd">
<!-- Creator: CorelDRAW X5 -->
<svg xmlns="http://www.w3.org/2000/svg" xml:space="preserve" width="0.163496in" height="0.13278in" shape-rendering="geometricPrecision" text-rendering="geometricPrecision" image-rendering="optimizeQuality" fill-rule="evenodd" clip-rule="evenodd"
viewBox="0 0 63 51"
 xmlns:xlink="http://www.w3.org/1999/xlink">
 <g id="Layer_x0020_1">
  <metadata id="CorelCorpID_0Corel-Layer"/>
  <path fill="#06A190" fill-rule="nonzero" d="M63 51l-27 0 0 -21c0,-8 2,-14 5,-18 3,-4 9,-8 16,-12l6 11c-5,2 -8,4 -10,7 -2,2 -3,5 -3,8l13 0 0 25zm-35 0l-27 0 0 -21c0,-8 2,-14 5,-18 3,-4 9,-8 16,-12l6 11c-5,2 -8,4 -10,7 -2,2 -3,5 -3,8l13 0 0 25z"/>
 </g>
</svg>
