<?xml version="1.0" encoding="UTF-8"?>
<!DOCTYPE svg PUBLIC "-//W3C//DTD SVG 1.1//EN" "http://www.w3.org/Graphics/SVG/1.1/DTD/svg11.dtd">
<!-- Creator: CorelDRAW X5 -->
<svg xmlns="http://www.w3.org/2000/svg" xml:space="preserve" width="1.11065in" height="1.11045in" shape-rendering="geometricPrecision" text-rendering="geometricPrecision" image-rendering="optimizeQuality" fill-rule="evenodd" clip-rule="evenodd"
viewBox="0 0 198 198"
 xmlns:xlink="http://www.w3.org/1999/xlink">
 <g id="Layer_x0020_1">
  <metadata id="CorelCorpID_0Corel-Layer"/>
  <g id="_368091184">
   <path fill="#0A5E2D" d="M96 103c-3,-4 -18,-14 -26,-22 -4,-4 -7,-5 -14,-5 -7,9 -16,9 -14,24 0,1 37,33 46,43 5,5 13,12 20,3 2,-2 4,-6 6,-8 2,-3 4,-5 7,-8l20 -26c2,-3 4,-4 7,-8 7,-8 39,-45 36,-53 -1,-3 -12,-11 -16,-13 -9,-5 -13,4 -17,9 -5,5 -10,10 -14,15 -4,6 -9,12 -14,17 -7,9 -20,26 -28,32z"/>
   <path fill="#02923D" d="M95 21c16,0 21,3 34,5l7 -18c-10,-7 -30,-9 -44,-8l2 21z"/>
   <path fill="#05A868" d="M24 164c4,8 24,22 35,26 4,-5 6,-13 7,-20 -15,-4 -19,-14 -29,-19 -5,6 -9,8 -14,13z"/>
   <path fill="#05A868" d="M1 117c1,13 11,34 18,41 5,-3 12,-9 15,-13 -4,-10 -8,-11 -12,-31l-21 3z"/>
   <path fill="#02923D" d="M44 18c3,6 8,10 10,15 9,-2 14,-8 33,-11l-2 -20c-12,-2 -36,10 -42,16z"/>
   <path fill="#6ED2B0" d="M153 156l13 15c8,-5 22,-26 25,-38l-19 -6c-8,12 -6,13 -19,28z"/>
   <path fill="#05A868" d="M68 193c12,5 29,5 43,4 1,-7 -2,-13 -3,-21 -16,1 -20,-1 -34,-3l-6 19z"/>
   <path fill="#02923D" d="M0 108l21 -3c0,-13 1,-21 4,-33 -4,-3 -13,-7 -19,-8 -7,10 -6,30 -6,43z"/>
   <path fill="#A2DEC9" d="M176 88c1,12 1,21 -2,32l21 6c3,-13 5,-32 1,-45 -6,1 -14,3 -19,6z"/>
   <path fill="#02BE93" d="M120 195c16,0 29,-12 41,-19l-15 -15c-6,5 -19,12 -30,13l4 20z"/>
   <path fill="#02923D" d="M10 57l19 8c5,-11 13,-20 21,-26l-13 -16c0,0 -21,18 -26,35z"/>
  </g>
 </g>
</svg>
