<?xml version="1.0" encoding="UTF-8"?>
<!DOCTYPE svg PUBLIC "-//W3C//DTD SVG 1.1//EN" "http://www.w3.org/Graphics/SVG/1.1/DTD/svg11.dtd">
<!-- Creator: CorelDRAW X5 -->
<svg xmlns="http://www.w3.org/2000/svg" xml:space="preserve" width="4.14733in" height="2.60886in" shape-rendering="geometricPrecision" text-rendering="geometricPrecision" image-rendering="optimizeQuality" fill-rule="evenodd" clip-rule="evenodd"
viewBox="0 0 4147 2609"
 xmlns:xlink="http://www.w3.org/1999/xlink">
 <g id="Layer_x0020_1">
  <metadata id="CorelCorpID_0Corel-Layer"/>
  <path fill="none" stroke="white" stroke-width="16" d="M1462 2319l1226 0c29,0 52,23 52,52l0 178c0,29 -23,52 -52,52l-1226 0c-29,0 -52,-23 -52,-52l0 -178c0,-29 23,-52 52,-52z"/>
  <path fill="none" stroke="white" stroke-width="16" d="M60 2319l1226 0c29,0 52,23 52,52l0 178c0,29 -23,52 -52,52l-1226 0c-29,0 -52,-23 -52,-52l0 -178c0,-29 23,-52 52,-52z"/>
  <path fill="#06A190" fill-rule="nonzero" d="M490 2425c-4,-5 -9,-8 -16,-8 -2,0 -4,0 -5,1 -2,1 -3,2 -5,3 -1,1 -2,3 -3,5 -1,2 -1,4 -1,7 0,5 1,9 4,11 3,3 7,5 11,7 3,1 6,3 9,5 3,2 6,4 8,7 2,3 4,6 6,9 2,4 2,8 2,13 0,6 -1,11 -3,15 -2,4 -4,8 -7,11 -3,3 -6,5 -10,7 -4,1 -8,2 -13,2 -6,0 -12,-1 -18,-4 -5,-2 -10,-6 -13,-9l10 -14c2,3 5,5 9,7 3,2 7,3 11,3 4,0 7,-1 10,-4 3,-3 4,-7 4,-12 0,-5 -2,-9 -5,-12 -3,-3 -7,-6 -12,-8 -3,-1 -6,-3 -9,-5 -3,-2 -5,-4 -7,-7 -2,-3 -4,-5 -5,-9 -1,-3 -2,-7 -2,-12 0,-6 1,-11 3,-15 2,-4 4,-8 7,-11 3,-3 7,-5 10,-6 4,-1 8,-2 12,-2 6,0 11,1 16,3 5,2 8,5 12,8l-11 14zm56 -6l0 98 -19 0 0 -98 -21 0 0 -16 62 0 0 16 -21 0zm33 98l0 -114 19 0 0 114 -19 0zm109 -12c-3,5 -7,8 -12,11 -5,3 -11,4 -18,4 -6,0 -12,-2 -17,-5 -5,-3 -10,-7 -13,-12 -4,-5 -6,-12 -8,-19 -2,-7 -3,-15 -3,-24 0,-9 1,-17 3,-24 2,-7 5,-14 8,-19 4,-5 8,-9 13,-12 5,-3 11,-4 17,-4 7,0 12,1 17,4 5,2 9,6 12,10l-11 14c-4,-6 -10,-9 -17,-9 -4,0 -7,1 -10,3 -3,2 -5,5 -7,9 -2,4 -3,8 -4,13 -1,5 -1,11 -1,16 0,6 0,11 1,16 1,5 2,10 4,13 2,4 4,7 7,9 3,2 6,3 10,3 4,0 7,-1 10,-3 3,-2 5,-4 7,-7l11 13zm64 12l-30 -55 0 0 0 55 -19 0 0 -114 19 0 0 49 0 0 29 -49 22 0 -33 52 36 62 -22 0zm35 0l0 -114 51 0 0 17 -33 0 0 30 30 0 0 16 -30 0 0 34 34 0 0 17 -53 0zm116 -81c0,-3 0,-6 -1,-9 -1,-2 -2,-4 -4,-5 -2,-1 -3,-2 -5,-3 -2,-1 -4,-1 -6,-1l-11 0 0 35 11 0c5,0 9,-1 12,-4 3,-3 5,-7 5,-13zm1 81l-18 -49 -11 0 0 49 -19 0 0 -114 33 0c5,0 9,1 13,2 4,1 7,3 10,6 3,3 5,6 7,10 2,4 2,9 2,15 0,4 -1,8 -2,12 -1,3 -3,6 -4,9 -2,2 -4,4 -6,6 -2,1 -4,2 -6,3l20 52 -20 0z"/>
  <path fill="#06A190" fill-rule="nonzero" d="M1827 2437c0,-6 -1,-11 -4,-13 -3,-3 -7,-4 -11,-4l-11 0 0 36 11 0c5,0 8,-2 11,-5 3,-3 4,-8 4,-14zm18 0c0,6 -1,11 -3,15 -2,4 -4,8 -7,11 -3,3 -6,5 -10,6 -4,1 -8,2 -12,2l-14 0 0 46 -19 0 0 -114 32 0c4,0 7,1 11,2 4,1 7,3 10,6 3,3 6,6 8,10 2,4 3,10 3,16zm62 0c0,-3 0,-6 -1,-9 -1,-2 -2,-4 -4,-5 -2,-1 -3,-2 -5,-3 -2,-1 -4,-1 -6,-1l-11 0 0 35 11 0c5,0 9,-1 12,-4 3,-3 5,-7 5,-13zm1 81l-18 -49 -11 0 0 49 -19 0 0 -114 33 0c5,0 9,1 13,2 4,1 7,3 10,6 3,3 5,6 7,10 2,4 2,9 2,15 0,4 -1,8 -2,12 -1,3 -3,6 -4,9 -2,2 -4,4 -6,6 -2,1 -4,2 -6,3l20 52 -20 0zm35 0l0 -114 19 0 0 114 -19 0zm109 -12c-3,5 -7,8 -12,11 -5,3 -11,4 -18,4 -6,0 -12,-2 -17,-5 -5,-3 -10,-7 -13,-12 -4,-5 -6,-12 -8,-19 -2,-7 -3,-15 -3,-24 0,-9 1,-17 3,-24 2,-7 5,-14 8,-19 4,-5 8,-9 13,-12 5,-3 11,-4 17,-4 7,0 12,1 17,4 5,2 9,6 12,10l-11 14c-4,-6 -10,-9 -17,-9 -4,0 -7,1 -10,3 -3,2 -5,5 -7,9 -2,4 -3,8 -4,13 -1,5 -1,11 -1,16 0,6 0,11 1,16 1,5 2,10 4,13 2,4 4,7 7,9 3,2 6,3 10,3 4,0 7,-1 10,-3 3,-2 5,-4 7,-7l11 13zm14 12l0 -114 51 0 0 17 -33 0 0 30 30 0 0 16 -30 0 0 34 34 0 0 17 -53 0zm130 -98l0 98 -19 0 0 -98 -21 0 0 -16 62 0 0 16 -21 0zm62 2l-1 0 -12 57 25 0 -12 -57zm20 96l-6 -24 -30 0 -6 24 -19 0 28 -114 25 0 28 114 -20 0zm100 -7c-3,3 -8,5 -12,7 -5,2 -10,3 -17,3 -7,0 -13,-1 -18,-4 -5,-3 -10,-7 -14,-12 -4,-5 -7,-12 -9,-19 -2,-7 -3,-15 -3,-24 0,-9 1,-17 3,-24 2,-7 5,-14 8,-19 4,-5 8,-9 13,-12 5,-3 11,-4 17,-4 7,0 13,1 18,4 5,2 9,6 12,10l-11 14c-4,-6 -10,-9 -17,-9 -4,0 -7,1 -10,3 -3,2 -5,5 -7,9 -2,4 -3,8 -4,13 -1,5 -1,10 -1,16 0,6 0,11 1,16 1,5 2,10 4,13 2,4 4,7 7,9 3,2 6,3 11,3 3,0 5,0 7,-1 2,-1 4,-1 5,-2l0 -29 -14 0 0 -17 31 0 0 58z"/>
  <path fill="none" stroke="white" stroke-width="16" d="M2861 2319l1226 0c29,0 52,23 52,52l0 178c0,29 -23,52 -52,52l-1226 0c-29,0 -52,-23 -52,-52l0 -178c0,-29 23,-52 52,-52z"/>
  <path fill="#06A190" fill-rule="nonzero" d="M3008 2505c-3,5 -7,8 -12,11 -5,3 -11,4 -18,4 -6,0 -12,-2 -17,-5 -5,-3 -10,-7 -13,-12 -4,-5 -6,-12 -8,-19 -2,-7 -3,-15 -3,-24 0,-9 1,-17 3,-24 2,-7 5,-14 8,-19 4,-5 8,-9 13,-12 5,-3 11,-4 17,-4 7,0 12,1 17,4 5,2 9,6 12,10l-11 14c-4,-6 -10,-9 -17,-9 -4,0 -7,1 -10,3 -3,2 -5,5 -7,9 -2,4 -3,8 -4,13 -1,5 -1,11 -1,16 0,6 0,11 1,16 1,5 2,10 4,13 2,4 4,7 7,9 3,2 6,3 10,3 4,0 7,-1 10,-3 3,-2 5,-4 7,-7l11 13zm43 -84l-1 0 -12 57 25 0 -12 -57zm20 96l-6 -24 -30 0 -6 24 -19 0 28 -114 25 0 28 114 -20 0zm78 -81c0,-3 0,-6 -1,-9 -1,-2 -2,-4 -4,-5 -2,-1 -3,-2 -5,-3 -2,-1 -4,-1 -6,-1l-11 0 0 35 11 0c5,0 9,-1 12,-4 3,-3 5,-7 5,-13zm1 81l-18 -49 -11 0 0 49 -19 0 0 -114 33 0c5,0 9,1 13,2 4,1 7,3 10,6 3,3 5,6 7,10 2,4 2,9 2,15 0,4 -1,8 -2,12 -1,3 -3,6 -4,9 -2,2 -4,4 -6,6 -2,1 -4,2 -6,3l20 52 -20 0zm64 -98l0 98 -19 0 0 -98 -21 0 0 -16 62 0 0 16 -21 0zm90 40c0,-6 0,-11 -1,-16 -1,-5 -2,-9 -4,-13 -2,-4 -4,-7 -7,-9 -3,-2 -6,-3 -9,-3 -4,0 -7,1 -9,3 -3,2 -5,5 -7,9 -2,4 -3,8 -4,13 -1,5 -1,11 -1,16 0,6 0,11 1,16 1,5 2,10 4,13 2,4 4,7 7,9 3,2 6,3 9,3 4,0 7,-1 9,-3 3,-2 5,-5 7,-9 2,-4 3,-8 4,-13 1,-5 1,-11 1,-16zm20 0c0,9 -1,17 -3,25 -2,7 -5,14 -8,19 -4,5 -8,9 -13,12 -5,3 -11,4 -17,4 -6,0 -12,-1 -17,-4 -5,-3 -9,-7 -13,-12 -4,-5 -6,-12 -8,-19 -2,-7 -3,-16 -3,-25 0,-9 1,-17 3,-24 2,-7 5,-14 8,-19 4,-5 8,-9 13,-12 5,-3 11,-4 17,-4 6,0 12,1 17,4 5,3 9,7 13,12 4,5 6,12 8,19 2,7 3,15 3,24zm68 57l-32 -81 0 0 0 81 -17 0 0 -114 22 0 32 81 0 0 0 -81 17 0 0 114 -21 0zm121 -92c-4,-5 -9,-8 -16,-8 -2,0 -4,0 -5,1 -2,1 -3,2 -5,3 -1,1 -2,3 -3,5 -1,2 -1,4 -1,7 0,5 1,9 4,11 3,3 7,5 11,7 3,1 6,3 9,5 3,2 6,4 8,7 2,3 4,6 6,9 2,4 2,8 2,13 0,6 -1,11 -3,15 -2,4 -4,8 -7,11 -3,3 -6,5 -10,7 -4,1 -8,2 -13,2 -6,0 -12,-1 -18,-4 -5,-2 -10,-6 -13,-9l10 -14c2,3 5,5 9,7 3,2 7,3 11,3 4,0 7,-1 10,-4 3,-3 4,-7 4,-12 0,-5 -2,-9 -5,-12 -3,-3 -7,-6 -12,-8 -3,-1 -6,-3 -9,-5 -3,-2 -5,-4 -7,-7 -2,-3 -4,-5 -5,-9 -1,-3 -2,-7 -2,-12 0,-6 1,-11 3,-15 2,-4 4,-8 7,-11 3,-3 7,-5 10,-6 4,-1 8,-2 12,-2 6,0 11,1 16,3 5,2 8,5 12,8l-11 14zm56 -6l0 98 -19 0 0 -98 -21 0 0 -16 62 0 0 16 -21 0zm33 98l0 -114 19 0 0 114 -19 0zm109 -12c-3,5 -7,8 -12,11 -5,3 -11,4 -18,4 -6,0 -12,-2 -17,-5 -5,-3 -10,-7 -13,-12 -4,-5 -6,-12 -8,-19 -2,-7 -3,-15 -3,-24 0,-9 1,-17 3,-24 2,-7 5,-14 8,-19 4,-5 8,-9 13,-12 5,-3 11,-4 17,-4 7,0 12,1 17,4 5,2 9,6 12,10l-11 14c-4,-6 -10,-9 -17,-9 -4,0 -7,1 -10,3 -3,2 -5,5 -7,9 -2,4 -3,8 -4,13 -1,5 -1,11 -1,16 0,6 0,11 1,16 1,5 2,10 4,13 2,4 4,7 7,9 3,2 6,3 10,3 4,0 7,-1 10,-3 3,-2 5,-4 7,-7l11 13zm64 12l-30 -55 0 0 0 55 -19 0 0 -114 19 0 0 49 0 0 29 -49 22 0 -33 52 36 62 -22 0zm35 0l0 -114 51 0 0 17 -33 0 0 30 30 0 0 16 -30 0 0 34 34 0 0 17 -53 0zm116 -81c0,-3 0,-6 -1,-9 -1,-2 -2,-4 -4,-5 -2,-1 -3,-2 -5,-3 -2,-1 -4,-1 -6,-1l-11 0 0 35 11 0c5,0 9,-1 12,-4 3,-3 5,-7 5,-13zm1 81l-18 -49 -11 0 0 49 -19 0 0 -114 33 0c5,0 9,1 13,2 4,1 7,3 10,6 3,3 5,6 7,10 2,4 2,9 2,15 0,4 -1,8 -2,12 -1,3 -3,6 -4,9 -2,2 -4,4 -6,6 -2,1 -4,2 -6,3l20 52 -20 0zm80 -92c-4,-5 -9,-8 -16,-8 -2,0 -4,0 -5,1 -2,1 -3,2 -5,3 -1,1 -2,3 -3,5 -1,2 -1,4 -1,7 0,5 1,9 4,11 3,3 7,5 11,7 3,1 6,3 9,5 3,2 6,4 8,7 2,3 4,6 6,9 2,4 2,8 2,13 0,6 -1,11 -3,15 -2,4 -4,8 -7,11 -3,3 -6,5 -10,7 -4,1 -8,2 -13,2 -6,0 -12,-1 -18,-4 -5,-2 -10,-6 -13,-9l10 -14c2,3 5,5 9,7 3,2 7,3 11,3 4,0 7,-1 10,-4 3,-3 4,-7 4,-12 0,-5 -2,-9 -5,-12 -3,-3 -7,-6 -12,-8 -3,-1 -6,-3 -9,-5 -3,-2 -5,-4 -7,-7 -2,-3 -4,-5 -5,-9 -1,-3 -2,-7 -2,-12 0,-6 1,-11 3,-15 2,-4 4,-8 7,-11 3,-3 7,-5 10,-6 4,-1 8,-2 12,-2 6,0 11,1 16,3 5,2 8,5 12,8l-11 14z"/>
  <path fill="none" stroke="white" stroke-width="16" d="M1322 8l455 0c40,0 73,33 73,73l0 494c0,40 -33,73 -73,73l-455 0c-40,0 -73,-33 -73,-73l0 -494c0,-40 33,-73 73,-73z"/>
  <path fill="none" stroke="white" stroke-width="15.626" d="M1537 1317l-507 0 0 -990 134 0m1446 990l507 0 0 -990 -134 0"/>
  <g id="_359806856">
   <path fill="#85BA38" d="M1610 444c3,-1 9,-3 13,-3 0,3 4,23 5,28l3 15c1,3 2,9 2,12 0,1 0,4 -2,5 -2,1 -3,0 -4,0 -4,-2 -25,-15 -30,-17l0 0 0 0c-1,8 -25,65 -26,67 -1,1 -27,0 -28,0 -4,0 -26,0 -28,0 1,-3 6,-20 7,-24 2,-7 18,-67 19,-73 7,3 26,13 34,16 1,-2 5,-9 7,-10 3,-3 1,-1 4,-4 1,-1 3,-3 4,-4l5 -3c2,-1 3,-2 5,-3 4,-2 8,-3 12,-5l-2 6zm-171 -66c0,-13 2,-22 9,-30 10,-13 25,-11 40,-11 13,0 30,2 41,0 7,-1 11,-5 13,-11 3,-6 5,-12 7,-18 4,-11 10,-23 18,-31 8,-10 18,-16 32,-18l18 172c-17,3 -31,11 -40,24 -1,2 -3,4 -4,5 -3,-1 -13,-6 -16,-7 -27,-13 -54,-26 -81,-39 -3,-2 -32,-15 -32,-16 -2,-4 -4,-16 -4,-21zm-101 -95c0,1 1,2 2,3l37 50c7,11 21,28 29,40 2,3 3,4 5,7 0,1 1,1 1,2 1,1 1,0 1,2 0,2 0,4 0,5 4,48 9,75 18,121 1,5 9,35 8,37 -2,-1 -25,0 -31,0 -2,0 -2,-1 -4,-6 -3,-6 -5,-12 -8,-17 -7,-15 -17,-37 -23,-52 -7,-17 -15,-35 -22,-53 -3,-8 -13,-30 -13,-38l0 -99zm0 -72c2,1 75,101 85,115 1,1 2,3 3,4 -3,6 -6,7 -9,20 -2,9 -2,18 -1,28 -2,-1 -23,-30 -26,-35 -1,-2 -51,-69 -51,-71 0,-3 0,-59 0,-61zm0 -38c1,1 10,14 13,17 9,12 18,26 27,38 1,1 1,1 1,2 7,11 17,24 25,35l10 13c0,0 -1,18 -1,23 -1,-1 -37,-49 -37,-49l-14 -19c-2,-2 -3,-4 -5,-6l-18 -25 0 -27zm0 -49c11,-4 19,-9 31,-13 5,-2 11,-4 17,-6 5,-2 13,-4 18,-5 2,3 6,8 8,11 11,15 22,31 33,45 13,16 25,35 38,51 7,9 14,19 21,29 6,8 11,15 17,23 3,4 6,8 8,11 2,2 7,10 9,11 0,7 -4,20 -7,25 -5,8 -13,8 -24,7 -15,-1 -29,-3 -44,-1 -5,1 -9,2 -13,3 -1,-2 -2,-3 -3,-5 -1,-2 -2,-3 -3,-5 -4,-6 -13,-18 -17,-24 -1,-1 -2,-3 -3,-5 -7,-9 -20,-28 -27,-38 -5,-6 -9,-13 -14,-19l-21 -28c-1,-2 -19,-28 -21,-29l0 -39zm71 -25c2,-1 9,-3 12,-3 1,2 2,3 3,4l9 12c4,6 8,11 12,16l-5 14c-1,-1 -1,-2 -2,-3l-16 -22c-2,-2 -13,-18 -14,-19zm18 -5c5,-1 37,-8 40,-7 1,0 7,8 7,9 9,12 20,26 29,38 6,9 15,20 22,29 8,10 21,28 29,38 7,8 15,20 22,29 1,2 7,8 7,10 -11,2 -17,8 -23,14l-6 7c-1,-1 -6,-8 -8,-10 -8,-10 -16,-22 -24,-31l-24 -31c-1,-2 -3,-3 -4,-5 -1,-2 -3,-3 -4,-5 -3,-4 -5,-7 -8,-10 -7,-9 -21,-28 -28,-37 -1,-2 -3,-3 -4,-5 -3,-4 -5,-7 -8,-11 -3,-4 -5,-7 -8,-10 -1,-2 -3,-3 -4,-5l-3 -4c-1,-1 0,0 -1,-2zm158 -3c19,5 32,7 50,15 8,4 9,5 16,11 1,1 2,1 3,2 2,2 4,4 6,6 2,2 4,4 6,6 2,2 4,4 6,6 3,4 10,11 15,18l5 6c7,9 15,24 20,34 3,7 7,17 10,24 8,25 12,50 12,78 0,74 -29,146 -61,210l-7 14c-2,5 -5,9 -7,14l-7 13c0,0 0,1 -1,1l-37 0c17,-28 30,-52 44,-81 19,-40 34,-82 41,-126 6,-37 6,-73 -4,-109 -6,-23 -20,-52 -34,-71l-4 -6c-1,-1 -1,-2 -2,-3l-9 -11c-3,-4 -12,-13 -15,-16 -8,-7 -17,-15 -26,-21 -1,-1 -2,-1 -3,-2 -1,-1 -2,-1 -3,-2 -2,-2 -4,-3 -6,-4l-6 -4c-1,-1 0,0 -1,-1zm-93 -6c11,-1 25,-1 36,-1 4,0 4,1 9,5 6,5 14,12 19,17l14 14c1,2 2,2 3,4 1,1 1,1 2,2 3,5 10,11 14,18l6 9c11,16 22,41 27,59 14,52 14,94 7,147 -1,8 -3,16 -4,24 -1,4 -2,8 -3,12 -1,4 -2,8 -3,12l-16 -154c-15,0 -19,1 -31,10 -1,1 -1,1 -2,1 -1,1 -1,1 -2,2 -1,1 -3,3 -3,3 -1,-15 -2,-10 4,-15 6,-6 14,-9 22,-9l3 0c-1,-2 -33,-43 -36,-47 -5,-7 -4,-4 -6,-11 -5,-15 -11,-33 -19,-47 -7,-12 -14,-24 -23,-35l-6 -7c-1,-1 -1,-1 -2,-2 -2,-2 -2,-3 -4,-4 -3,-3 -5,-5 -8,-8zm-160 35l0 434 326 0c1,-1 1,-2 2,-2l14 -17c0,0 0,0 0,0l6 -9c2,-3 6,-8 8,-11l6 -8c1,-2 2,-3 3,-5l13 -20c1,-1 2,-3 3,-5 3,-6 6,-11 9,-16 1,-1 1,-2 2,-3 0,0 0,0 0,0l0 -1c2,-5 5,-8 7,-13l7 -14c0,0 0,0 0,0 0,0 0,0 0,0 0,-1 0,-1 0,-1l2 -4c4,-8 7,-17 10,-25l6 -19 5 -20c2,-9 4,-18 5,-28 4,-27 3,-48 0,-75 0,0 0,-1 0,-1l-1 -2c-1,-4 -2,-9 -3,-13 -2,-7 -4,-13 -6,-19 -3,-8 -7,-15 -10,-23l-3 -5c-2,-4 -4,-7 -6,-10l-7 -10c-4,-6 -9,-11 -14,-16 -1,-1 -1,-1 -2,-2 -7,-7 -15,-14 -22,-20l-14 -10c-28,-18 -63,-32 -96,-38 -54,-10 -97,-8 -151,2 -20,4 -40,10 -59,17 -7,2 -26,10 -33,13 -3,1 -6,3 -8,4z"/>
   <path fill="white" d="M1337 165c1,1 19,27 21,29l21 28c5,6 9,13 14,19 7,10 20,29 27,38 1,1 3,3 3,5 4,6 13,18 17,24 1,2 2,3 3,5 1,2 2,3 3,5 5,-1 8,-3 13,-3 15,-2 29,0 44,1 11,1 19,1 24,-7 3,-4 7,-18 7,-25 -1,-1 -7,-9 -9,-11 -3,-4 -5,-7 -8,-11 -6,-8 -11,-15 -17,-23 -7,-9 -14,-20 -21,-29 -13,-16 -25,-35 -38,-51 -11,-14 -22,-31 -33,-45 -3,-3 -6,-8 -8,-11 -5,1 -13,4 -18,5 -6,2 -11,4 -17,6 -12,4 -21,9 -31,13l0 39z"/>
   <path fill="white" d="M1438 379c0,5 2,17 4,21 1,1 29,14 32,16 27,12 54,26 81,39 3,2 14,7 16,7 1,-2 2,-4 4,-5 10,-13 23,-21 40,-24l-18 -172c-14,1 -23,8 -32,18 -8,9 -14,21 -18,31 -2,6 -4,12 -7,18 -3,6 -6,9 -13,11 -11,2 -28,0 -41,0 -15,0 -29,-2 -40,11 -7,8 -9,18 -9,30z"/>
   <path fill="#C1DA9A" d="M1585 93c1,1 0,0 1,1l6 4c2,2 4,3 6,4 1,1 2,1 3,2 1,1 2,2 3,2 9,7 17,14 26,21 3,3 12,12 15,16l9 11c1,1 1,2 2,3l4 6c14,18 28,47 34,71 9,36 10,72 4,109 -7,44 -22,86 -41,126 -14,30 -27,54 -44,81l37 0c0,0 0,0 1,-1l7 -13c2,-5 5,-9 7,-14l7 -14c32,-64 61,-135 61,-210 0,-29 -4,-53 -12,-78 -2,-7 -6,-17 -10,-24 -5,-10 -14,-26 -20,-34l-5 -6c-5,-7 -12,-14 -15,-18 -1,-2 -4,-4 -6,-6 -2,-2 -3,-4 -6,-6 -2,-2 -3,-4 -6,-6 -1,-1 -2,-1 -3,-2 -7,-7 -8,-8 -16,-11 -18,-8 -31,-10 -50,-15z"/>
   <path fill="#C1DA9A" d="M1340 287c-1,-1 -2,-2 -2,-3l0 99c0,8 10,29 13,38 7,18 15,36 22,53 6,15 16,37 23,52 3,6 5,11 8,17 3,5 2,6 4,6 6,0 29,0 31,0 0,-2 -7,-32 -8,-37 -9,-45 -13,-73 -18,-121 0,-2 0,-4 0,-5 0,-2 0,-1 -1,-2 0,0 -1,-1 -1,-2 -2,-2 -3,-4 -5,-7 -8,-12 -22,-29 -29,-40l-37 -50z"/>
   <path fill="#C1DA9A" d="M1573 126c-2,-2 -2,-2 -3,-4l-14 -14c-5,-5 -13,-12 -19,-17 -5,-4 -5,-5 -9,-5 -11,-1 -25,0 -36,1 2,3 5,5 8,8 2,2 2,3 4,4 1,1 1,1 2,2l6 7c9,11 16,22 23,35 8,13 15,32 19,47 2,7 1,4 6,11 3,4 35,45 36,47l-3 0c-9,0 -17,3 -22,9 -6,5 -5,0 -4,15 0,-1 2,-3 3,-3 1,-1 1,-1 2,-2 1,-1 1,-1 2,-1 12,-9 16,-10 31,-10l16 154c0,-4 2,-8 3,-12 1,-4 2,-8 3,-12 2,-8 3,-16 4,-24 8,-53 8,-95 -7,-147 -5,-19 -17,-43 -27,-59l-6 -9c-5,-7 -11,-14 -14,-18 -1,-1 -1,-1 -2,-2z"/>
   <path fill="white" d="M1426 96c1,1 0,0 1,2l3 4c1,2 3,3 4,5 3,4 5,7 8,10 3,3 5,7 8,11 1,2 3,3 4,5 7,8 21,27 28,37 3,3 5,7 8,10 1,2 3,3 4,5 1,2 3,3 4,5l24 31c8,10 16,21 24,31 1,2 7,9 8,10l6 -7c7,-7 13,-12 23,-14 -1,-2 -6,-8 -7,-10 -7,-9 -15,-20 -22,-29 -8,-10 -21,-28 -29,-38 -7,-9 -16,-20 -22,-29 -8,-12 -20,-26 -29,-38 -1,-1 -7,-9 -7,-9 -3,-1 -34,6 -40,7z"/>
   <path fill="#C1DA9A" d="M1597 483l0 0 -17 -10c3,-6 8,-13 12,-17 10,-9 14,-8 18,-11l2 -6c-4,2 -8,2 -12,5 -2,1 -4,2 -5,3l-5 3c-1,1 -3,3 -4,4 -3,3 -1,1 -4,4 -1,2 -6,8 -7,10 -8,-2 -26,-13 -34,-16 -1,6 -17,65 -19,73 -1,4 -6,21 -7,24 2,1 24,0 28,0 1,0 27,0 28,0 1,-2 25,-59 26,-67z"/>
   <path fill="white" d="M1337 212c0,2 0,59 0,61 0,2 50,69 51,71 4,5 24,34 26,35 0,-9 0,-19 1,-28 3,-13 6,-14 9,-20 -1,-2 -2,-3 -3,-4 -10,-14 -84,-113 -85,-115z"/>
   <path fill="#C1DA9A" d="M1337 175l0 27 18 25c2,2 3,4 5,6l14 19c0,0 36,49 37,49 0,-4 1,-22 1,-23l-10 -13c-8,-11 -17,-24 -25,-35 -1,-1 -1,-1 -1,-2 -9,-12 -18,-26 -27,-38 -3,-4 -11,-16 -13,-17z"/>
   <path fill="#3D5533" d="M1610 444c-4,3 -8,2 -18,11 -4,4 -10,11 -12,17l17 10 0 0c5,3 26,16 30,17 1,0 2,1 4,0 2,-1 2,-3 2,-5 0,-3 -1,-9 -2,-12l-3 -15c-1,-5 -5,-25 -5,-28 -4,0 -10,2 -13,3z"/>
   <path fill="#C1DA9A" d="M1408 101c1,1 12,16 14,19l16 22c1,1 1,2 2,3l5 -14c-4,-6 -8,-11 -12,-16l-9 -12c-1,-1 -2,-3 -3,-4 -3,1 -10,2 -12,3z"/>
  </g>
  <path fill="none" stroke="white" stroke-width="16" d="M2370 8l455 0c40,0 73,33 73,73l0 494c0,40 -33,73 -73,73l-455 0c-40,0 -73,-33 -73,-73l0 -494c0,-40 33,-73 73,-73z"/>
  <polygon fill="#FEFEFE" points="2636,412 2800,412 2801,356 2635,356 "/>
  <polygon fill="#FEFEFE" points="2636,339 2801,339 2800,284 2636,284 "/>
  <polygon fill="#FEFEFE" points="2636,267 2792,267 2801,268 2800,212 2636,212 "/>
  <polygon fill="#FEFEFE" points="2636,484 2644,483 2793,483 2801,484 2800,428 2636,428 "/>
  <polygon fill="#FEFEFE" points="2636,196 2644,195 2800,195 2800,140 2636,140 "/>
  <path fill="#008040" d="M2550 220c-1,5 -3,8 -5,13 -1,4 -3,8 -4,12l-28 70c1,6 7,18 10,25 1,4 3,7 5,12l25 61 -36 -3 -22 -67c-1,1 -1,0 -2,2l-21 62 -31 0c2,-6 7,-19 9,-24l18 -45c12,-28 10,-17 0,-44 0,0 0,-1 0,-1l-24 -65 26 0c2,0 4,0 6,0l20 60c0,0 0,0 0,1l2 -5c1,-1 1,-2 1,-4 0,0 1,-2 1,-2l1 -2c1,-3 1,-2 1,-4 2,-6 4,-11 6,-16 1,-3 2,-5 3,-9l8 -22c0,0 0,0 0,-1 0,0 0,-1 0,-1l31 -2zm-189 -110c-1,10 0,383 0,392 0,31 -3,28 7,29 30,6 70,14 100,20 31,7 63,12 93,19 3,1 0,0 2,1l14 3c8,2 50,11 54,10l0 -529c-5,-1 -58,11 -68,13 -22,4 -45,9 -67,14 -12,3 -128,25 -135,28z"/>
  <path fill="#FEFEFE" d="M2520 222c0,0 0,1 0,1 0,0 0,1 0,1l-8 22c-1,3 -2,6 -3,9 -2,5 -4,10 -6,16 -1,2 0,2 -1,4l-1 2c0,0 -1,2 -1,2 -1,2 -1,3 -1,4l-2 5c0,0 0,-1 0,-1l-20 -60c-2,0 -4,0 -6,0l-26 0 24 65c0,0 0,1 0,1 9,27 12,16 0,44l-18 45c-2,5 -8,17 -9,24l31 0 21 -62c1,-2 1,-1 2,-2l22 67 36 3 -25 -61c-2,-5 -4,-8 -5,-12 -3,-8 -8,-19 -10,-25l28 -70c1,-3 3,-7 4,-12 2,-4 3,-8 5,-13l-31 2z"/>
  <path fill="#008040" d="M2724 428l77 0 0 55 -3 0 -70 0 -4 1 0 -56zm0 -72l77 0 0 55 -77 0 0 -56zm0 -72l77 0 0 55 -77 0 0 -55zm0 -72l77 0 0 55 -4 0 -73 0 0 -55zm0 -72l77 0 0 55 -73 0 -4 0 0 -55zm-82 199c-2,5 -1,12 0,17 6,-3 57,-1 68,-1l0 55 -68 0 0 17 69 0 0 55 -69 0 1 36c20,0 180,1 185,-1 8,-3 7,-10 7,-19l0 -372c0,-10 -1,-16 -7,-18 -6,-2 -164,-1 -185,-1l1 31 68 0 0 55 -69 1 0 16 68 0 0 55 -69 1 0 16 68 0 0 55 -68 0z"/>
  <line fill="none" stroke="white" stroke-width="16" x1="1941" y1="328" x2="2206" y2= "328" />
  <path fill="none" stroke="white" stroke-width="16" d="M1846 979l455 0c40,0 73,33 73,73l0 494c0,40 -33,73 -73,73l-455 0c-40,0 -73,-33 -73,-73l0 -494c0,-40 33,-73 73,-73z"/>
  <path fill="#06A190" fill-rule="nonzero" d="M1878 1047l0 1c4,3 8,5 10,8 2,3 4,6 5,11 1,4 1,10 1,16l0 137c0,6 0,12 -1,16 -1,4 -2,8 -5,11 -2,3 -6,6 -10,8l0 1 168 0 9 -61 -1 0c-4,8 -9,15 -14,22 -5,7 -10,12 -16,17 -6,5 -12,8 -20,11 -8,3 -16,4 -26,4l-25 0 0 -96 17 0c6,0 12,0 17,1 5,1 9,2 12,5 3,2 6,6 9,10 3,4 5,10 8,17l1 0 0 -74 -1 0c-2,7 -5,13 -8,17 -3,4 -6,8 -9,10 -3,3 -8,4 -12,5 -5,1 -10,1 -17,1l-17 0 0 -89 22 0c10,0 18,1 25,3 7,2 14,5 19,10 5,4 10,9 15,15 5,6 9,13 13,20l1 0 -9 -58c-2,1 -5,2 -9,2 -4,0 -8,1 -13,1l-139 0z"/>
  <path fill="#06A190" fill-rule="nonzero" d="M2114 1255c-4,-3 -7,-5 -9,-8 -2,-3 -3,-6 -3,-10 0,-3 1,-6 2,-8 1,-3 3,-6 5,-9 13,-18 25,-37 38,-55l37 60c2,3 4,6 5,9 1,3 2,6 2,8 0,3 -1,5 -2,7 -1,2 -3,4 -5,6l0 1 93 0 0 -1c-4,-2 -7,-5 -10,-8 -3,-3 -6,-6 -9,-10 -3,-4 -6,-9 -10,-14 -19,-30 -37,-60 -56,-90 12,-17 24,-34 35,-51 4,-5 7,-10 11,-14 4,-4 8,-8 12,-11 4,-3 9,-6 14,-8 0,0 0,0 0,-1 -18,0 -37,0 -55,0 0,0 0,0 0,1 4,2 7,5 9,8 2,3 3,6 3,10 0,3 -1,6 -2,8 -1,3 -3,6 -5,9 -9,14 -19,28 -28,41 -6,-10 -12,-19 -18,-29 -22,-35 -46,-47 -95,-50 23,37 46,74 69,111l-46 66c-5,8 -11,14 -17,20 -6,5 -12,10 -20,13l0 1 56 0 0 -1z"/>
  <path fill="#FEFEFE" fill-rule="nonzero" d="M1958 1444c10,0 19,-1 27,-2 8,-2 15,-4 21,-7 6,-3 11,-8 14,-13 3,-5 5,-12 5,-20 0,-6 -1,-10 -3,-15 -2,-4 -5,-8 -9,-11 -4,-3 -8,-6 -12,-8 -5,-2 -10,-4 -15,-5 -5,-1 -10,-2 -16,-2 6,0 12,-1 17,-3 5,-2 10,-4 14,-7 4,-3 8,-7 10,-11 2,-4 4,-9 4,-15 0,-7 -2,-13 -5,-18 -3,-5 -7,-9 -13,-12 -6,-3 -12,-6 -19,-7 -7,-2 -16,-2 -25,-2l-78 0 0 0c3,2 6,4 8,6 2,2 3,5 4,8 1,3 1,7 1,12l0 105c0,5 0,9 -1,12 -1,3 -2,6 -4,8 -2,2 -4,4 -8,6l0 0 81 0zm-24 -85l0 -69 8 0c6,0 12,1 16,4 5,3 8,7 11,12 2,5 4,11 4,19 0,7 -1,14 -4,19 -3,5 -6,9 -11,12 -5,3 -10,4 -16,4l-8 0zm0 79l0 -73 12 0c8,0 14,1 19,4 5,3 9,7 12,12 3,5 4,12 4,20 0,8 -1,15 -4,20 -3,6 -7,10 -12,13 -5,3 -12,4 -19,4l-12 0z"/>
  <path fill="#FEFEFE" fill-rule="nonzero" d="M2163 1435c-1,0 -2,0 -3,1 -1,0 -2,0 -3,0 -3,0 -6,-1 -7,-2 -2,-1 -3,-4 -3,-6 -1,-3 -1,-6 -1,-10 0,-10 0,-19 0,-27 0,-8 0,-16 0,-23 0,-9 -2,-17 -7,-22 -4,-6 -11,-10 -19,-12 -8,-2 -18,-4 -30,-4 -7,0 -13,1 -19,2 -6,1 -11,3 -15,6 -4,2 -8,5 -10,9 -2,3 -3,7 -4,12 0,4 1,7 3,10 2,3 5,5 8,6 3,2 7,2 11,2 6,0 11,-1 15,-3 4,-2 7,-6 9,-10 -1,0 -1,0 -2,0 -1,0 -1,0 -2,0 -3,0 -6,-1 -8,-3 -2,-2 -3,-6 -3,-10 0,-3 1,-6 2,-8 1,-2 3,-4 5,-6 2,-1 5,-2 8,-2 4,0 6,1 9,3 2,2 4,4 5,7 1,3 1,6 1,10l0 26 -16 3c-7,1 -13,3 -19,4 -6,2 -12,4 -16,6 -5,3 -9,6 -11,10 -3,4 -4,9 -4,15 0,5 1,9 3,12 2,3 4,6 7,9 3,2 7,4 11,5 4,1 8,2 13,2 6,0 12,-1 16,-3 5,-2 9,-5 12,-8 3,-4 5,-8 7,-13 0,0 0,1 0,1 0,1 0,1 0,2 0,1 0,1 0,1 1,6 4,11 9,14 5,3 12,5 20,5 4,0 8,0 11,-1 4,-1 7,-2 10,-4 3,-2 5,-4 7,-6l0 0zm-58 -52l0 25c0,4 -1,8 -2,11 -1,3 -3,6 -5,8 -2,2 -5,3 -8,3 -4,0 -7,-2 -9,-5 -2,-3 -3,-8 -3,-14 0,-7 2,-13 5,-18 3,-4 8,-7 15,-9l7 -2z"/>
  <path fill="#FEFEFE" fill-rule="nonzero" d="M2242 1375c1,1 2,1 3,2 2,0 3,1 6,1 4,0 8,-1 12,-3 4,-2 7,-5 9,-8 2,-4 3,-8 3,-13 0,-4 -1,-8 -3,-12 -2,-3 -5,-6 -9,-8 -4,-2 -8,-3 -13,-3 -5,0 -9,1 -13,3 -4,2 -7,4 -10,8 -3,3 -5,7 -7,11 -2,4 -3,9 -5,13l0 -33 -53 0 0 0c2,1 4,3 6,4 1,1 3,3 3,5 1,2 1,4 2,6 0,3 0,6 0,10l0 63c0,4 0,7 0,9 0,2 -1,5 -1,6 -1,2 -2,3 -3,4 -1,1 -3,3 -5,4l0 0 66 0 0 0c-3,-1 -5,-2 -7,-4 -2,-1 -3,-3 -5,-4 -1,-2 -2,-4 -3,-6 -1,-3 -1,-6 -1,-9l0 -39c0,-6 1,-12 3,-16 2,-4 4,-8 7,-10 3,-2 6,-4 10,-4 4,0 8,1 10,3 2,2 3,5 3,9 0,3 -1,5 -2,7 -1,2 -3,3 -5,4l0 0z"/>
  <path fill="#06A190" d="M2050 1293c-5,2 -6,9 -4,16 2,7 8,12 13,10 5,-2 6,-9 4,-16 -2,-7 -8,-12 -13,-10zm86 0c5,2 6,9 4,16 -2,7 -8,12 -13,10 -5,-2 -6,-9 -4,-16 2,-7 8,-12 13,-10zm-43 -18c7,0 12,9 12,20 0,11 -6,20 -12,20 -7,0 -12,-9 -12,-20 0,-11 6,-20 12,-20z"/>
  <path fill="#FEFEFE" fill-rule="nonzero" d="M1910 1516l-20 0 0 28 25 0 0 8 -34 0 0 -79 34 0 0 8 -25 0 0 27 20 0 0 8zm64 -43c6,0 11,2 14,5 3,3 5,8 5,15l0 40c0,6 -2,11 -5,14 -3,3 -8,5 -14,5l-19 0 0 -79 19 0zm0 71c6,0 10,-4 10,-11l0 -41c0,-7 -3,-11 -10,-11l-10 0 0 63 10 0zm68 8l-9 0 0 -79 9 0 0 79zm53 -71l-15 0 0 -8 39 0 0 8 -15 0 0 71 -9 0 0 -71zm61 11c0,-6 2,-11 5,-15 3,-4 8,-5 14,-5 6,0 11,2 14,5 3,4 5,8 5,15l0 41c0,6 -2,11 -5,15 -3,4 -8,5 -14,5 -6,0 -11,-2 -14,-5 -3,-4 -5,-8 -5,-15l0 -41zm9 41c0,4 1,7 2,8 2,2 4,3 7,3 6,0 10,-4 10,-11l0 -42c0,-4 -1,-6 -2,-8 -2,-2 -4,-3 -7,-3 -3,0 -6,1 -7,3 -2,2 -2,5 -2,8l0 42zm87 -61c6,0 11,2 14,5 3,3 4,8 4,14l0 6c0,4 -1,8 -2,11 -2,3 -4,5 -8,6 4,1 6,3 8,6 2,3 2,6 2,11l0 12c0,2 0,4 0,5 0,1 1,3 1,4l-9 0c-1,-1 -1,-2 -1,-4 0,-1 0,-3 0,-6l0 -12c0,-4 -1,-7 -3,-9 -2,-2 -5,-3 -9,-3l-6 0 0 34 -9 0 0 -79 18 0zm-2 37c4,0 7,-1 9,-2 2,-2 3,-4 3,-8l0 -8c0,-4 -1,-6 -2,-8 -1,-2 -4,-3 -7,-3l-9 0 0 29 7 0z"/>
  <line fill="none" stroke="white" stroke-width="16" x1="2074" y1="1714" x2="2074" y2= "2149" />
 </g>
</svg>
